<?xml version="1.0" encoding="UTF-8"?><svg xmlns="http://www.w3.org/2000/svg" xmlns:xlink="http://www.w3.org/1999/xlink" fill-opacity="1" color-rendering="auto" color-interpolation="auto" text-rendering="auto" stroke="black" stroke-linecap="square" width="781" stroke-miterlimit="10" shape-rendering="auto" stroke-opacity="1" fill="black" stroke-dasharray="none" font-weight="normal" stroke-width="1" height="644" font-family="'Dialog'" font-style="normal" stroke-linejoin="miter" font-size="12px" stroke-dashoffset="0" image-rendering="auto">
  <!--Generated by ySVG 2.5-->
  <defs id="genericDefs"/>
  <g>
    <defs id="defs1">
      <clipPath clipPathUnits="userSpaceOnUse" id="clipPath1">
        <path d="M0 0 L781 0 L781 644 L0 644 L0 0 Z"/>
      </clipPath>
      <clipPath clipPathUnits="userSpaceOnUse" id="clipPath2">
        <path d="M273 8 L1054 8 L1054 652 L273 652 L273 8 Z"/>
      </clipPath>
    </defs>
    <g fill="transparent" text-rendering="geometricPrecision" shape-rendering="geometricPrecision" transform="translate(-273,-8)" stroke="transparent">
      <rect x="273" width="781" height="644" y="8" clip-path="url(#clipPath2)" stroke="none"/>
    </g>
    <g text-rendering="geometricPrecision" shape-rendering="geometricPrecision" transform="matrix(1,0,0,1,-273,-8)">
      <circle r="15" clip-path="url(#clipPath2)" cx="583.3102" cy="341.9743" stroke="none"/>
      <circle stroke-linecap="butt" clip-path="url(#clipPath2)" fill="none" r="15" cx="583.3102" cy="341.9743" stroke-miterlimit="1.45"/>
      <text stroke-linecap="butt" x="856.9742" y="226.6296" clip-path="url(#clipPath2)" font-family="sans-serif" stroke="none" stroke-miterlimit="1.45" xml:space="preserve">can use this.setState()</text>
      <circle stroke-linecap="butt" clip-path="url(#clipPath2)" fill="none" r="15" cx="367.2932" cy="41.9743" stroke-miterlimit="1.45"/>
      <rect x="555.3102" y="206.9743" clip-path="url(#clipPath2)" fill="rgb(153,204,255)" width="56" height="30" stroke="none"/>
      <text stroke-linecap="butt" x="560.5875" y="226.6296" clip-path="url(#clipPath2)" font-family="sans-serif" stroke="none" stroke-miterlimit="1.45" xml:space="preserve">render()</text>
      <rect x="532.8102" y="86.9743" clip-path="url(#clipPath2)" fill="rgb(153,204,255)" width="101" height="30" stroke="none"/>
      <text stroke-linecap="butt" x="538.6266" y="106.6296" clip-path="url(#clipPath2)" font-family="sans-serif" stroke="none" stroke-miterlimit="1.45" xml:space="preserve">getInitialState() </text>
      <rect x="526.3102" y="26.9743" clip-path="url(#clipPath2)" fill="rgb(153,204,255)" width="114" height="30" stroke="none"/>
      <text stroke-linecap="butt" x="533.5524" y="46.6296" clip-path="url(#clipPath2)" font-family="sans-serif" stroke="none" stroke-miterlimit="1.45" xml:space="preserve">getDefaultProps()</text>
      <rect x="508.4039" y="146.9743" clip-path="url(#clipPath2)" fill="rgb(153,204,255)" width="149.8125" height="30" stroke="none"/>
      <text stroke-linecap="butt" x="518.4264" y="166.6296" clip-path="url(#clipPath2)" font-family="sans-serif" stroke="none" stroke-miterlimit="1.45" xml:space="preserve">componentWillMount()</text>
      <rect x="504.3102" y="266.9743" clip-path="url(#clipPath2)" fill="rgb(153,204,255)" width="158" height="30" stroke="none"/>
      <text stroke-linecap="butt" x="519.0299" y="286.6296" clip-path="url(#clipPath2)" font-family="sans-serif" stroke="none" stroke-miterlimit="1.45" xml:space="preserve">componentDidMount()</text>
      <rect x="727.3102" y="326.9743" clip-path="url(#clipPath2)" fill="rgb(153,204,255)" width="239" height="30" stroke="none"/>
      <text stroke-linecap="butt" x="734.1871" y="346.6296" clip-path="url(#clipPath2)" font-family="sans-serif" stroke="none" stroke-miterlimit="1.45" xml:space="preserve">componentWillReceiveProps(nextProps)</text>
      <rect x="704.3102" y="406.9743" clip-path="url(#clipPath2)" fill="rgb(153,204,255)" width="285" height="30" stroke="none"/>
      <text stroke-linecap="butt" x="711.3444" y="426.6296" clip-path="url(#clipPath2)" font-family="sans-serif" stroke="none" stroke-miterlimit="1.45" xml:space="preserve">shouldComponentUpdate(nextProps, nextState)</text>
      <rect x="712.8102" y="486.9743" clip-path="url(#clipPath2)" fill="rgb(153,204,255)" width="268" height="30" stroke="none"/>
      <text stroke-linecap="butt" x="721.194" y="506.6296" clip-path="url(#clipPath2)" font-family="sans-serif" stroke="none" stroke-miterlimit="1.45" xml:space="preserve">componentWillUpdate(nextProps, nextState)</text>
      <rect x="715.8102" y="606.9743" clip-path="url(#clipPath2)" fill="rgb(153,204,255)" width="262" height="30" stroke="none"/>
      <text stroke-linecap="butt" x="721.4576" y="626.6296" clip-path="url(#clipPath2)" font-family="sans-serif" stroke="none" stroke-miterlimit="1.45" xml:space="preserve">componentDidUpdate(prevProps, prevState)</text>
      <rect x="288.2932" y="206.9743" clip-path="url(#clipPath2)" fill="rgb(153,204,255)" width="158" height="30" stroke="none"/>
      <text stroke-linecap="butt" x="294.1477" y="226.6296" clip-path="url(#clipPath2)" font-family="sans-serif" stroke="none" stroke-miterlimit="1.45" xml:space="preserve">componentWillUnmount()</text>
      <rect x="818.8102" y="546.9743" clip-path="url(#clipPath2)" fill="rgb(153,204,255)" width="56" height="30" stroke="none"/>
      <text stroke-linecap="butt" x="824.0875" y="566.6296" clip-path="url(#clipPath2)" font-family="sans-serif" stroke="none" stroke-miterlimit="1.45" xml:space="preserve">render()</text>
      <path fill="none" stroke-miterlimit="1.45" d="M382.2932 41.9743 L517.3102 41.9743" stroke-width="2" clip-path="url(#clipPath2)" stroke-linecap="butt"/>
      <path stroke-miterlimit="1.45" d="M526.3102 41.9743 L512.8102 36.3493 L516.1852 41.9743 L512.8102 47.5993 Z" stroke-width="2" clip-path="url(#clipPath2)" stroke-linecap="butt" stroke="none"/>
    </g>
    <g stroke-linecap="butt" transform="matrix(1,0,0,1,-273,-8)" fill="transparent" text-rendering="geometricPrecision" shape-rendering="geometricPrecision" stroke="transparent" stroke-width="2" stroke-miterlimit="1.45">
      <rect x="422.2665" width="64.0703" height="36.6836" y="23.6325" clip-path="url(#clipPath2)" stroke="none"/>
    </g>
    <g text-rendering="geometricPrecision" stroke-miterlimit="1.45" shape-rendering="geometricPrecision" font-family="sans-serif" transform="matrix(1,0,0,1,-273,-8)" stroke-linecap="butt">
      <text x="424.2665" xml:space="preserve" y="38.4587" clip-path="url(#clipPath2)" stroke="none">ReactDOM</text>
      <text x="429.9706" xml:space="preserve" y="54.8005" clip-path="url(#clipPath2)" stroke="none">.render()</text>
      <path fill="none" stroke-dasharray="6,2" d="M583.3102 56.9743 L583.3102 78.9743" clip-path="url(#clipPath2)"/>
      <path stroke-dasharray="6,2" d="M583.3102 86.9743 L588.3102 74.9743 L583.3102 77.9743 L578.3102 74.9743 Z" clip-path="url(#clipPath2)" stroke="none"/>
      <path fill="none" stroke-dasharray="6,2" d="M583.3102 116.9743 L583.3102 138.9743" clip-path="url(#clipPath2)"/>
      <path stroke-dasharray="6,2" d="M583.3102 146.9743 L588.3102 134.9743 L583.3102 137.9743 L578.3102 134.9743 Z" clip-path="url(#clipPath2)" stroke="none"/>
    </g>
    <g stroke-linecap="round" transform="matrix(1,0,0,1,-273,-8)" stroke-dashoffset="2" text-rendering="geometricPrecision" shape-rendering="geometricPrecision" stroke-dasharray="0,12" stroke-width="3" stroke-miterlimit="1.45">
      <path fill="none" d="M870.3578 210.9123 L658.2164 161.9743" clip-path="url(#clipPath2)"/>
    </g>
    <g text-rendering="geometricPrecision" stroke-miterlimit="1.45" stroke-dasharray="6,2" shape-rendering="geometricPrecision" transform="matrix(1,0,0,1,-273,-8)" stroke-linecap="butt">
      <path fill="none" d="M583.3102 176.9743 L583.3102 198.9743" clip-path="url(#clipPath2)"/>
      <path d="M583.3102 206.9743 L588.3102 194.9743 L583.3102 197.9743 L578.3102 194.9743 Z" clip-path="url(#clipPath2)" stroke="none"/>
      <path fill="none" d="M583.3102 236.9743 L583.3102 258.9743" clip-path="url(#clipPath2)"/>
      <path d="M583.3102 266.9743 L588.3102 254.9743 L583.3102 257.9743 L578.3102 254.9743 Z" clip-path="url(#clipPath2)" stroke="none"/>
    </g>
    <g stroke-linecap="round" transform="matrix(1,0,0,1,-273,-8)" stroke-dashoffset="2" text-rendering="geometricPrecision" shape-rendering="geometricPrecision" stroke-dasharray="0,12" stroke-width="3" stroke-miterlimit="1.45">
      <path fill="none" d="M870.7727 233.1159 L662.3102 281.9743" clip-path="url(#clipPath2)"/>
    </g>
    <g text-rendering="geometricPrecision" stroke-miterlimit="1.45" stroke-dasharray="6,2" shape-rendering="geometricPrecision" transform="matrix(1,0,0,1,-273,-8)" stroke-linecap="butt">
      <path fill="none" d="M583.3102 296.9743 L583.3102 318.9743" clip-path="url(#clipPath2)"/>
      <path d="M583.3102 326.9743 L588.3102 314.9743 L583.3102 317.9743 L578.3102 314.9743 Z" clip-path="url(#clipPath2)" stroke="none"/>
      <path fill="none" stroke-dasharray="none" d="M598.3102 341.9743 L718.3102 341.9743" stroke-width="2" clip-path="url(#clipPath2)"/>
      <path stroke-dasharray="none" d="M727.3102 341.9743 L713.8102 336.3493 L717.1852 341.9743 L713.8102 347.5993 Z" stroke-width="2" clip-path="url(#clipPath2)" stroke="none"/>
    </g>
    <g stroke-linecap="butt" transform="matrix(1,0,0,1,-273,-8)" fill="transparent" text-rendering="geometricPrecision" shape-rendering="geometricPrecision" stroke="transparent" stroke-width="2" stroke-miterlimit="1.45">
      <rect x="632.486" width="60.6484" height="20.3418" y="331.8034" clip-path="url(#clipPath2)" stroke="none"/>
    </g>
    <g text-rendering="geometricPrecision" stroke-miterlimit="1.45" shape-rendering="geometricPrecision" font-family="sans-serif" transform="matrix(1,0,0,1,-273,-8)" stroke-linecap="butt">
      <text x="634.486" xml:space="preserve" y="346.6296" clip-path="url(#clipPath2)" stroke="none">setProps()</text>
    </g>
    <g stroke-linecap="round" transform="matrix(1,0,0,1,-273,-8)" stroke-dashoffset="2" text-rendering="geometricPrecision" shape-rendering="geometricPrecision" stroke-dasharray="0,12" stroke-width="3" stroke-miterlimit="1.45">
      <path fill="none" d="M908.2 236.8214 L846.8252 326.9523" clip-path="url(#clipPath2)"/>
    </g>
    <g text-rendering="geometricPrecision" stroke-miterlimit="1.45" stroke-dasharray="6,2" shape-rendering="geometricPrecision" transform="matrix(1,0,0,1,-273,-8)" stroke-linecap="butt">
      <path fill="none" d="M846.8102 356.9743 L846.8102 398.9743" clip-path="url(#clipPath2)"/>
      <path d="M846.8102 406.9743 L851.8102 394.9743 L846.8102 397.9743 L841.8102 394.9743 Z" clip-path="url(#clipPath2)" stroke="none"/>
      <path fill="none" stroke-dasharray="none" d="M597.6633 346.332 L788.7921 404.3597" stroke-width="2" clip-path="url(#clipPath2)"/>
      <path stroke-dasharray="none" d="M797.4039 406.9743 L786.1203 397.67 L787.7156 404.0329 L782.8521 408.4348 Z" stroke-width="2" clip-path="url(#clipPath2)" stroke="none"/>
    </g>
    <g stroke-linecap="butt" transform="matrix(1,0,0,1,-273,-8)" fill="transparent" text-rendering="geometricPrecision" shape-rendering="geometricPrecision" stroke="transparent" stroke-width="2" stroke-miterlimit="1.45">
      <rect x="643.0471" width="56.7871" height="20.3418" y="358.5603" clip-path="url(#clipPath2)" stroke="none"/>
    </g>
    <g text-rendering="geometricPrecision" stroke-miterlimit="1.45" shape-rendering="geometricPrecision" font-family="sans-serif" transform="matrix(1,0,0,1,-273,-8)" stroke-linecap="butt">
      <text x="645.0471" xml:space="preserve" y="373.3864" clip-path="url(#clipPath2)" stroke="none">setState()</text>
      <path fill="none" stroke-dasharray="6,2" d="M704.3102 421.9743 L683.8889 419.985 L664.9808 415.7069 L647.5859 409.1401 L631.7043 400.2845 L617.3359 389.1401 L604.4808 375.7069 L594.6152 362.0315 L594.5673 361.9437" clip-path="url(#clipPath2)"/>
      <path stroke-dasharray="6,2" d="M590.4576 355.08 L592.3323 367.9441 L595.081 362.8017 L600.9119 362.807 Z" clip-path="url(#clipPath2)" stroke="none"/>
    </g>
    <g stroke-linecap="butt" transform="matrix(1,0,0,1,-273,-8)" fill="transparent" text-rendering="geometricPrecision" shape-rendering="geometricPrecision" stroke-dasharray="6,2" stroke="transparent" stroke-miterlimit="1.45">
      <rect x="668.8375" width="30.4727" height="20.3418" y="405.7581" clip-path="url(#clipPath2)" stroke="none"/>
    </g>
    <g text-rendering="geometricPrecision" stroke-miterlimit="1.45" shape-rendering="geometricPrecision" font-family="sans-serif" transform="matrix(1,0,0,1,-273,-8)" stroke-linecap="butt">
      <text x="670.8375" xml:space="preserve" y="420.5843" clip-path="url(#clipPath2)" stroke="none">false</text>
      <path fill="none" stroke-dasharray="6,2" d="M846.8102 436.9743 L846.8102 478.9743" clip-path="url(#clipPath2)"/>
      <path stroke-dasharray="6,2" d="M846.8102 486.9743 L851.8102 474.9743 L846.8102 477.9743 L841.8102 474.9743 Z" clip-path="url(#clipPath2)" stroke="none"/>
    </g>
    <g stroke-linecap="butt" transform="matrix(1,0,0,1,-273,-8)" fill="transparent" text-rendering="geometricPrecision" shape-rendering="geometricPrecision" stroke-dasharray="6,2" stroke="transparent" stroke-miterlimit="1.45">
      <rect x="833.0739" width="27.4727" height="20.3418" y="441.9743" clip-path="url(#clipPath2)" stroke="none"/>
    </g>
    <g text-rendering="geometricPrecision" stroke-miterlimit="1.45" shape-rendering="geometricPrecision" font-family="sans-serif" transform="matrix(1,0,0,1,-273,-8)" stroke-linecap="butt">
      <text x="835.0739" xml:space="preserve" y="456.8005" clip-path="url(#clipPath2)" stroke="none">true</text>
      <path fill="none" d="M587.4356 356.3877 L590.5314 367.2038 L598.9857 390.4027 L608.6729 411.5711 L619.5931 430.7088 L631.7463 447.8159 L645.1326 462.8924 L659.7518 475.9383 L675.6041 486.9536 L692.6893 495.9383 L704.3145 500.3515 L704.4115 500.3759" stroke-width="2" clip-path="url(#clipPath2)"/>
      <path d="M712.8962 503.3776 L702.0452 493.5722 L703.3509 500.0007 L698.2931 504.1781 Z" stroke-width="2" clip-path="url(#clipPath2)" stroke="none"/>
    </g>
    <g stroke-linecap="butt" transform="matrix(1,0,0,1,-273,-8)" fill="transparent" text-rendering="geometricPrecision" shape-rendering="geometricPrecision" stroke="transparent" stroke-width="2" stroke-miterlimit="1.45">
      <rect x="577.2235" width="81.4375" height="20.3418" y="419.515" clip-path="url(#clipPath2)" stroke="none"/>
    </g>
    <g text-rendering="geometricPrecision" stroke-miterlimit="1.45" shape-rendering="geometricPrecision" font-family="sans-serif" transform="matrix(1,0,0,1,-273,-8)" stroke-linecap="butt">
      <text x="579.2235" xml:space="preserve" y="434.3412" clip-path="url(#clipPath2)" stroke="none">forceUpdate()</text>
    </g>
    <g stroke-linecap="round" transform="matrix(1,0,0,1,-273,-8)" stroke-dashoffset="2" text-rendering="geometricPrecision" shape-rendering="geometricPrecision" stroke-dasharray="0,12" stroke-width="3" stroke-miterlimit="1.45">
      <path fill="none" d="M934.5954 236.5956 L942.7261 243.8956 L964.3823 266.2274 L983.279 288.9697 L999.416 312.1225 L1012.7935 335.6858 L1023.4113 359.6595 L1031.2694 384.0438 L1036.3679 408.8385 L1038.7069 434.0438 L1038.2863 459.6595 L1035.106 485.6858 L1029.166 512.1225 L1020.4665 538.9697 L1009.0073 566.2274 L994.7886 593.8956 L977.8268 621.9469" clip-path="url(#clipPath2)"/>
    </g>
    <g text-rendering="geometricPrecision" stroke-miterlimit="1.45" stroke-dasharray="6,2" shape-rendering="geometricPrecision" transform="matrix(1,0,0,1,-273,-8)" stroke-linecap="butt">
      <path fill="none" d="M715.8102 621.9743 L690.6196 612.476 L667.6837 601.9108 L647.0023 590.2788 L628.5754 577.5798 L612.4032 563.814 L598.4855 548.9812 L586.8224 533.0815 L577.4139 516.115 L570.2599 498.0815 L565.3605 478.9812 L562.7157 458.814 L562.3254 437.5798 L564.1898 415.2788 L568.3087 391.9109 L574.6821 367.476 L575.9351 363.7725" clip-path="url(#clipPath2)"/>
      <path d="M578.499 356.1945 L569.9169 365.9591 L575.6146 364.7198 L579.3895 369.164 Z" clip-path="url(#clipPath2)" stroke="none"/>
      <path fill="none" stroke-dasharray="none" d="M568.5024 344.2184 L564.0187 344.8979 L545.4992 346.4317 L527.7518 346.5757 L510.7765 345.3299 L494.5732 342.6943 L479.142 338.6688 L464.4828 333.2535 L450.5958 326.4485 L437.4807 318.2535 L425.1378 308.6688 L413.5669 297.6943 L402.768 285.3299 L392.7412 271.5757 L383.4865 256.4317 L377.6704 245.0955 L377.6309 245.0036" stroke-width="2" clip-path="url(#clipPath2)"/>
      <path stroke-dasharray="none" d="M373.7103 236.9024 L374.5279 251.5045 L378.121 246.0163 L384.6544 246.6039 Z" stroke-width="2" clip-path="url(#clipPath2)" stroke="none"/>
    </g>
    <g stroke-linecap="butt" transform="matrix(1,0,0,1,-273,-8)" fill="transparent" text-rendering="geometricPrecision" shape-rendering="geometricPrecision" stroke="transparent" stroke-width="2" stroke-miterlimit="1.45">
      <rect x="362.5655" width="176.0605" height="36.6836" y="308.1067" clip-path="url(#clipPath2)" stroke="none"/>
    </g>
    <g text-rendering="geometricPrecision" stroke-miterlimit="1.45" shape-rendering="geometricPrecision" font-family="sans-serif" transform="matrix(1,0,0,1,-273,-8)" stroke-linecap="butt">
      <text x="420.5606" xml:space="preserve" y="322.9328" clip-path="url(#clipPath2)" stroke="none">ReactDOM</text>
      <text x="364.5655" xml:space="preserve" y="339.2746" clip-path="url(#clipPath2)" stroke="none">.unmountComponentAtNode()</text>
      <path fill="none" stroke-dasharray="6,2" d="M367.2932 206.9743 L367.2932 64.9743" clip-path="url(#clipPath2)"/>
      <path stroke-dasharray="6,2" d="M367.2932 56.9743 L362.2932 68.9743 L367.2932 65.9743 L372.2932 68.9743 Z" clip-path="url(#clipPath2)" stroke="none"/>
      <path fill="none" stroke-dasharray="6,2" d="M846.8102 516.9743 L846.8102 538.9743" clip-path="url(#clipPath2)"/>
      <path stroke-dasharray="6,2" d="M846.8102 546.9743 L851.8102 534.9743 L846.8102 537.9743 L841.8102 534.9743 Z" clip-path="url(#clipPath2)" stroke="none"/>
      <path fill="none" stroke-dasharray="6,2" d="M846.8102 576.9743 L846.8102 598.9743" clip-path="url(#clipPath2)"/>
      <path stroke-dasharray="6,2" d="M846.8102 606.9743 L851.8102 594.9743 L846.8102 597.9743 L841.8102 594.9743 Z" clip-path="url(#clipPath2)" stroke="none"/>
    </g>
  </g>
</svg>
