<svg version="1.1" xmlns="http://www.w3.org/2000/svg" xmlns:xlink="http://www.w3.org/1999/xlink" width="625.031" height="167"><rect fill="#fff5d8" stroke="none" x="160" y="208" width="257.037" height="147" transform="translate(-150,-198) scale(1,1)"/><path fill="none" stroke="#000" d="M 160 208 L 417.037109375 208 L 417.037109375 355 L 160 355 L 160 208 Z Z" stroke-miterlimit="10" transform="translate(-150,-198) scale(1,1)"/><path fill="none" stroke="#000" d="M 160 238 L 417.037109375 238" stroke-miterlimit="10" transform="translate(-150,-198) scale(1,1)"/><path fill="none" stroke="#000" d="M 194.00390625 238 L 194.00390625 355" stroke-miterlimit="10" transform="translate(-150,-198) scale(1,1)"/><path fill="none" stroke="#000" d="M 324.0234375 238 L 324.0234375 355" stroke-miterlimit="10" transform="translate(-150,-198) scale(1,1)"/><g><text fill="#000" stroke="none" font-family="Courier" font-size="20" font-style="normal" font-weight="bold" text-decoration="none" x="264.515" y="232.5" transform="translate(-150,-198) scale(1,1)">User</text></g><g><text fill="#000" stroke="none" font-family="Courier" font-size="20" font-style="normal" font-weight="normal" text-decoration="none" x="165" y="263" transform="translate(-150,-198) scale(1,1)">PK</text></g><g><text fill="#000" stroke="none" font-family="Courier" font-size="20" font-style="normal" font-weight="normal" text-decoration="none" x="199.004" y="263" transform="translate(-150,-198) scale(1,1)">id</text></g><g><text fill="#000" stroke="none" font-family="Courier" font-size="20" font-style="normal" font-weight="normal" text-decoration="none" x="329.023" y="263" transform="translate(-150,-198) scale(1,1)">Integer</text></g><g/><g><text fill="#000" stroke="none" font-family="Courier" font-size="20" font-style="normal" font-weight="normal" text-decoration="none" x="199.004" y="285" transform="translate(-150,-198) scale(1,1)">first_name</text></g><g><text fill="#000" stroke="none" font-family="Courier" font-size="20" font-style="normal" font-weight="normal" text-decoration="none" x="329.023" y="285" transform="translate(-150,-198) scale(1,1)">String</text></g><g/><g><text fill="#000" stroke="none" font-family="Courier" font-size="20" font-style="normal" font-weight="normal" text-decoration="none" x="199.004" y="307" transform="translate(-150,-198) scale(1,1)">last_name</text></g><g><text fill="#000" stroke="none" font-family="Courier" font-size="20" font-style="normal" font-weight="normal" text-decoration="none" x="329.023" y="307" transform="translate(-150,-198) scale(1,1)">String</text></g><g/><g><text fill="#000" stroke="none" font-family="Courier" font-size="20" font-style="normal" font-weight="normal" text-decoration="none" x="199.004" y="329" transform="translate(-150,-198) scale(1,1)">email</text></g><g><text fill="#000" stroke="none" font-family="Courier" font-size="20" font-style="normal" font-weight="normal" text-decoration="none" x="329.023" y="329" transform="translate(-150,-198) scale(1,1)">String</text></g><g/><g><text fill="#000" stroke="none" font-family="Courier" font-size="20" font-style="normal" font-weight="normal" text-decoration="none" x="199.004" y="351" transform="translate(-150,-198) scale(1,1)">password</text></g><g><text fill="#000" stroke="none" font-family="Courier" font-size="20" font-style="normal" font-weight="normal" text-decoration="none" x="329.023" y="351" transform="translate(-150,-198) scale(1,1)">String</text></g><rect fill="#fff5d8" stroke="none" x="544" y="208" width="221.031" height="125" transform="translate(-150,-198) scale(1,1)"/><path fill="none" stroke="#000" d="M 544 208 L 765.03125 208 L 765.03125 333 L 544 333 L 544 208 Z Z" stroke-miterlimit="10" transform="translate(-150,-198) scale(1,1)"/><path fill="none" stroke="#000" d="M 544 238 L 765.03125 238" stroke-miterlimit="10" transform="translate(-150,-198) scale(1,1)"/><path fill="none" stroke="#000" d="M 578.00390625 238 L 578.00390625 333" stroke-miterlimit="10" transform="translate(-150,-198) scale(1,1)"/><path fill="none" stroke="#000" d="M 672.017578125 238 L 672.017578125 333" stroke-miterlimit="10" transform="translate(-150,-198) scale(1,1)"/><g><text fill="#000" stroke="none" font-family="Courier" font-size="20" font-style="normal" font-weight="bold" text-decoration="none" x="630.512" y="232.5" transform="translate(-150,-198) scale(1,1)">Post</text></g><g><text fill="#000" stroke="none" font-family="Courier" font-size="20" font-style="normal" font-weight="normal" text-decoration="none" x="549" y="263" transform="translate(-150,-198) scale(1,1)">PK</text></g><g><text fill="#000" stroke="none" font-family="Courier" font-size="20" font-style="normal" font-weight="normal" text-decoration="none" x="583.004" y="263" transform="translate(-150,-198) scale(1,1)">id</text></g><g><text fill="#000" stroke="none" font-family="Courier" font-size="20" font-style="normal" font-weight="normal" text-decoration="none" x="677.018" y="263" transform="translate(-150,-198) scale(1,1)">Integer</text></g><g/><g><text fill="#000" stroke="none" font-family="Courier" font-size="20" font-style="normal" font-weight="normal" text-decoration="none" x="583.004" y="285" transform="translate(-150,-198) scale(1,1)">title</text></g><g><text fill="#000" stroke="none" font-family="Courier" font-size="20" font-style="normal" font-weight="normal" text-decoration="none" x="677.018" y="285" transform="translate(-150,-198) scale(1,1)">String</text></g><g/><g><text fill="#000" stroke="none" font-family="Courier" font-size="20" font-style="normal" font-weight="normal" text-decoration="none" x="583.004" y="307" transform="translate(-150,-198) scale(1,1)">text</text></g><g><text fill="#000" stroke="none" font-family="Courier" font-size="20" font-style="normal" font-weight="normal" text-decoration="none" x="677.018" y="307" transform="translate(-150,-198) scale(1,1)">Text</text></g><g/><g><text fill="#000" stroke="none" font-family="Courier" font-size="20" font-style="normal" font-weight="normal" text-decoration="none" x="583.004" y="329" transform="translate(-150,-198) scale(1,1)">user_id</text></g><g><text fill="#000" stroke="none" font-family="Courier" font-size="20" font-style="normal" font-weight="normal" text-decoration="none" x="677.018" y="329" transform="translate(-150,-198) scale(1,1)">Integer</text></g><path fill="none" stroke="#000" d="M 417 266 L 544 266" stroke-miterlimit="10" transform="translate(-150,-198) scale(1,1)"/><path fill="none" stroke="#000" d="M 530 266 L 544 273" stroke-miterlimit="10" transform="translate(-150,-198) scale(1,1)"/><path fill="none" stroke="#000" d="M 530 266 L 544 259" stroke-miterlimit="10" transform="translate(-150,-198) scale(1,1)"/><path fill="#FFF" stroke="none" d="M 515 266 C 515 262.1340064 518.1340064 259 522 259 C 525.8659936 259 529 262.1340064 529 266 C 529 269.8659936 525.8659936 273 522 273 C 518.1340064 273 515 269.8659936 515 266 Z" transform="translate(-150,-198) scale(1,1)"/><path fill="none" stroke="#000" d="M 515 266 C 515 262.1340064 518.1340064 259 522 259 C 525.8659936 259 529 262.1340064 529 266 C 529 269.8659936 525.8659936 273 522 273 C 518.1340064 273 515 269.8659936 515 266 Z" stroke-miterlimit="10" transform="translate(-150,-198) scale(1,1)"/><path fill="none" stroke="#000" d="M 424 259 L 424 273" stroke-miterlimit="10" transform="translate(-150,-198) scale(1,1)"/><g/><g/></svg>