<svg version="1.1" id="Layer_1" xmlns="http://www.w3.org/2000/svg" xmlns:xlink="http://www.w3.org/1999/xlink" x="0" y="0" viewBox="0 0 93.64 28.13" xml:space="preserve" enable-background="new 0 0 93.64 28.13"><style type="text/css">.st0{fill:#405465}.st1{fill:#f08b21}</style><title>sub-hero-logo</title><path class="st0" d="M9.84,18.33c1.14,1.13,2.68,1.77,4.29,1.78v-2.57c-0.93,0.02-1.83-0.34-2.49-1L9.84,18.33z"/><path class="st0" d="M16.33,8.44l-0.94,2.34c0.74,0.3,1.37,0.82,1.79,1.5h2.73C19.36,10.53,18.04,9.11,16.33,8.44z"/><path class="st1" d="M8,14.06c0.01,0.86,0.2,1.7,0.56,2.48l2.31-1c-0.19-0.44-0.29-0.93-0.28-1.41c-0.02-1.96,1.55-3.57,3.51-3.59	c0,0,0.01,0,0.01,0V8.02C10.76,8,8.02,10.7,8,14.05C8,14.05,8,14.06,8,14.06z"/><path class="st1" d="M15.38,17.35l0.94,2.34c1.74-0.67,3.07-2.11,3.62-3.89h-2.73C16.79,16.51,16.15,17.06,15.38,17.35z"/><path class="st0" d="M14.11,20.39c-3.5-0.01-6.32-2.86-6.31-6.35s2.86-6.32,6.35-6.31c2.82,0.01,5.3,1.89,6.07,4.6h2.45	C21.7,7.62,17.1,4.6,12.39,5.57s-7.73,5.57-6.76,10.28s5.57,7.73,10.28,6.76c3.4-0.7,6.06-3.36,6.76-6.76h-2.44	C19.43,18.56,16.93,20.41,14.11,20.39z"/><path class="st0" d="M14.11,5.06L14.11,5.06V2.67l0,0C9.4,2.66,5.18,5.55,3.48,9.94l2.21,0.84C7.07,7.33,10.4,5.07,14.11,5.06z"/><path class="st0" d="M14.11,23.07v2.39c5.61,0,10.4-4.07,11.29-9.61H23C22.15,20.07,18.42,23.1,14.11,23.07z"/><path class="st1" d="M23,12.33h2.4c-0.64-4.01-3.36-7.38-7.15-8.86l-0.84,2.2C20.28,6.81,22.38,9.31,23,12.33z"/><path class="st1" d="M5.08,14.06h-2.4c0,4.67,2.86,8.88,7.2,10.6l0.89-2.2C7.34,21.08,5.09,17.76,5.08,14.06z"/><path class="st0" d="M25.69,12.33h2.4c-0.26-2.01-0.95-3.94-2-5.67l-2,1.27C24.95,9.26,25.49,10.76,25.69,12.33z"/><path class="st0" d="M0,14.07c-0.02,2.09,0.41,4.16,1.25,6.08l2.33-1c-0.74-1.61-1.13-3.35-1.15-5.12"/><path class="st1" d="M14.11,25.74c-3.1,0-6.08-1.23-8.28-3.42l-1.7,1.69c2.64,2.67,6.25,4.16,10,4.13c7.1-0.02,13.09-5.29,14-12.33	h-2.4C24.82,21.52,19.9,25.73,14.11,25.74z"/><path class="st1" d="M14.11,2.39c2.53-0.01,4.99,0.81,7,2.34l1.46-1.92C20.13,0.97,17.15-0.01,14.1,0C8.27,0.01,3.05,3.58,0.92,9	l2.26,0.89C4.93,5.38,9.27,2.4,14.11,2.39z"/><path class="st0" d="M31.76,14.31L31.76,14.31c-0.09-4.38,3.39-8,7.76-8.09c0.13,0,0.26,0,0.4,0c2.31-0.11,4.55,0.76,6.17,2.41	l-2.18,2.51c-1.05-1.08-2.49-1.71-4-1.75c-2.55,0.05-4.57,2.15-4.53,4.69c0,0.06,0,0.11,0.01,0.17l0,0	c-0.16,2.56,1.8,4.77,4.36,4.92c0.05,0,0.11,0.01,0.16,0.01c1.56-0.02,3.03-0.68,4.09-1.82l2.19,2.18c-1.59,1.87-3.96,2.9-6.41,2.8	c-4.37,0.06-7.96-3.44-8.02-7.82C31.76,14.45,31.76,14.38,31.76,14.31z"/><path class="st0" d="M48.94,6.48h3.44v6.19h6.35V6.48h3.44v15.65h-3.44v-6.28h-6.35v6.28h-3.44V6.48z"/><path class="st0" d="M66.34,6.48h11.79v3.06h-8.39v3.16h7.36v3.06h-7.36v3.27h8.49v3.06H66.34V6.48z"/><path class="st0" d="M81.75,6.48h11.89v3.13h-8.45v3.33h7.46v3.13h-7.46v6.05h-3.44V6.48z"/></svg>