<?xml version="1.0" encoding="UTF-8" standalone="no"?>
<!DOCTYPE svg PUBLIC "-//W3C//DTD SVG 1.1//EN"
 "http://www.w3.org/Graphics/SVG/1.1/DTD/svg11.dtd">
<!-- Generated by graphviz version 2.38.0 (20140413.2041)
 -->
<!-- Title: d Pages: 1 -->
<svg width="614pt" height="291pt"
 viewBox="0.00 0.00 614.46 290.86" xmlns="http://www.w3.org/2000/svg" xmlns:xlink="http://www.w3.org/1999/xlink">
<g id="graph0" class="graph" transform="scale(1 1) rotate(0) translate(4 286.863)">
<title>d</title>
<!-- object -->
<g id="node1" class="node"><title>object</title>
<path fill="cornsilk" stroke="black" d="M341.825,-282.722C341.825,-282.722 291.24,-282.722 291.24,-282.722 285.24,-282.722 279.24,-276.722 279.24,-270.722 279.24,-270.722 279.24,-251.289 279.24,-251.289 279.24,-245.289 285.24,-239.289 291.24,-239.289 291.24,-239.289 341.825,-239.289 341.825,-239.289 347.825,-239.289 353.825,-245.289 353.825,-251.289 353.825,-251.289 353.825,-270.722 353.825,-270.722 353.825,-276.722 347.825,-282.722 341.825,-282.722"/>
<text text-anchor="middle" x="316.532" y="-257.663" font-family="Gotham Pro" font-size="14.00">Object</text>
</g>
<!-- module -->
<g id="node2" class="node"><title>module</title>
<path fill="cornsilk" stroke="black" d="M67.0967,-203.006C67.0967,-203.006 11.9677,-203.006 11.9677,-203.006 5.96775,-203.006 -0.0322529,-197.006 -0.0322529,-191.006 -0.0322529,-191.006 -0.0322529,-171.573 -0.0322529,-171.573 -0.0322529,-165.573 5.96775,-159.573 11.9677,-159.573 11.9677,-159.573 67.0967,-159.573 67.0967,-159.573 73.0967,-159.573 79.0967,-165.573 79.0967,-171.573 79.0967,-171.573 79.0967,-191.006 79.0967,-191.006 79.0967,-197.006 73.0967,-203.006 67.0967,-203.006"/>
<text text-anchor="middle" x="39.5322" y="-177.947" font-family="Gotham Pro" font-size="14.00">Module</text>
</g>
<!-- object&#45;&gt;module -->
<g id="edge1" class="edge"><title>object&#45;&gt;module:n</title>
<path fill="none" stroke="black" d="M268.959,-259.882C189.772,-258.378 39.5322,-249.426 39.5322,-203.147"/>
<polygon fill="black" stroke="black" points="269.121,-263.385 279.175,-260.043 269.231,-256.386 269.121,-263.385"/>
</g>
<!-- array -->
<g id="node3" class="node"><title>array</title>
<path fill="cornsilk" stroke="black" d="M151.663,-203.006C151.663,-203.006 109.401,-203.006 109.401,-203.006 103.401,-203.006 97.4012,-197.006 97.4012,-191.006 97.4012,-191.006 97.4012,-171.573 97.4012,-171.573 97.4012,-165.573 103.401,-159.573 109.401,-159.573 109.401,-159.573 151.663,-159.573 151.663,-159.573 157.663,-159.573 163.663,-165.573 163.663,-171.573 163.663,-171.573 163.663,-191.006 163.663,-191.006 163.663,-197.006 157.663,-203.006 151.663,-203.006"/>
<text text-anchor="middle" x="130.532" y="-177.947" font-family="Gotham Pro" font-size="14.00">Array</text>
</g>
<!-- object&#45;&gt;array -->
<g id="edge2" class="edge"><title>object&#45;&gt;array:n</title>
<path fill="none" stroke="black" d="M268.957,-254.954C213.849,-247.75 130.532,-232.075 130.532,-203.147"/>
<polygon fill="black" stroke="black" points="268.534,-258.428 278.892,-256.202 269.407,-251.483 268.534,-258.428"/>
</g>
<!-- numeric -->
<g id="node5" class="node"><title>numeric</title>
<path fill="cornsilk" stroke="black" d="M255.638,-203.006C255.638,-203.006 193.427,-203.006 193.427,-203.006 187.427,-203.006 181.427,-197.006 181.427,-191.006 181.427,-191.006 181.427,-171.573 181.427,-171.573 181.427,-165.573 187.427,-159.573 193.427,-159.573 193.427,-159.573 255.638,-159.573 255.638,-159.573 261.638,-159.573 267.638,-165.573 267.638,-171.573 267.638,-171.573 267.638,-191.006 267.638,-191.006 267.638,-197.006 261.638,-203.006 255.638,-203.006"/>
<text text-anchor="middle" x="224.532" y="-177.947" font-family="Gotham Pro" font-size="14.00">Numeric</text>
</g>
<!-- object&#45;&gt;numeric -->
<g id="edge3" class="edge"><title>object&#45;&gt;numeric:n</title>
<path fill="none" stroke="black" d="M269.454,-249.213C246.819,-240.949 224.532,-226.806 224.532,-203.147"/>
<polygon fill="black" stroke="black" points="268.519,-252.59 279.112,-252.405 270.716,-245.943 268.519,-252.59"/>
</g>
<!-- hash -->
<g id="node10" class="node"><title>hash</title>
<path fill="cornsilk" stroke="black" d="M335.856,-203.006C335.856,-203.006 297.208,-203.006 297.208,-203.006 291.208,-203.006 285.208,-197.006 285.208,-191.006 285.208,-191.006 285.208,-171.573 285.208,-171.573 285.208,-165.573 291.208,-159.573 297.208,-159.573 297.208,-159.573 335.856,-159.573 335.856,-159.573 341.856,-159.573 347.856,-165.573 347.856,-171.573 347.856,-171.573 347.856,-191.006 347.856,-191.006 347.856,-197.006 341.856,-203.006 335.856,-203.006"/>
<text text-anchor="middle" x="316.532" y="-177.947" font-family="Gotham Pro" font-size="14.00">Hash</text>
</g>
<!-- object&#45;&gt;hash -->
<g id="edge4" class="edge"><title>object&#45;&gt;hash:n</title>
<path fill="none" stroke="black" d="M316.532,-229.044C316.532,-220.642 316.532,-211.546 316.532,-203.147"/>
<polygon fill="black" stroke="black" points="313.032,-229.211 316.532,-239.211 320.032,-229.211 313.032,-229.211"/>
</g>
<!-- regexp -->
<g id="node11" class="node"><title>regexp</title>
<path fill="cornsilk" stroke="black" d="M434.779,-203.006C434.779,-203.006 378.286,-203.006 378.286,-203.006 372.286,-203.006 366.286,-197.006 366.286,-191.006 366.286,-191.006 366.286,-171.573 366.286,-171.573 366.286,-165.573 372.286,-159.573 378.286,-159.573 378.286,-159.573 434.779,-159.573 434.779,-159.573 440.779,-159.573 446.779,-165.573 446.779,-171.573 446.779,-171.573 446.779,-191.006 446.779,-191.006 446.779,-197.006 440.779,-203.006 434.779,-203.006"/>
<text text-anchor="middle" x="406.532" y="-177.947" font-family="Gotham Pro" font-size="14.00">Regexp</text>
</g>
<!-- object&#45;&gt;regexp -->
<g id="edge5" class="edge"><title>object&#45;&gt;regexp:n</title>
<path fill="none" stroke="black" d="M363.572,-248.55C385.372,-240.151 406.532,-226.089 406.532,-203.147"/>
<polygon fill="black" stroke="black" points="362.208,-245.319 353.918,-251.917 364.513,-251.928 362.208,-245.319"/>
</g>
<!-- io -->
<g id="node12" class="node"><title>io</title>
<path fill="cornsilk" stroke="black" d="M506.532,-203.006C506.532,-203.006 476.532,-203.006 476.532,-203.006 470.532,-203.006 464.532,-197.006 464.532,-191.006 464.532,-191.006 464.532,-171.573 464.532,-171.573 464.532,-165.573 470.532,-159.573 476.532,-159.573 476.532,-159.573 506.532,-159.573 506.532,-159.573 512.532,-159.573 518.532,-165.573 518.532,-171.573 518.532,-171.573 518.532,-191.006 518.532,-191.006 518.532,-197.006 512.532,-203.006 506.532,-203.006"/>
<text text-anchor="middle" x="491.532" y="-177.947" font-family="Gotham Pro" font-size="14.00">IO</text>
</g>
<!-- object&#45;&gt;io -->
<g id="edge6" class="edge"><title>object&#45;&gt;io:n</title>
<path fill="none" stroke="black" d="M364.092,-254.021C415.913,-246.136 491.532,-230.026 491.532,-203.147"/>
<polygon fill="black" stroke="black" points="363.461,-250.576 354.074,-255.489 364.476,-257.502 363.461,-250.576"/>
</g>
<!-- string -->
<g id="node14" class="node"><title>string</title>
<path fill="cornsilk" stroke="black" d="M594.396,-203.006C594.396,-203.006 548.669,-203.006 548.669,-203.006 542.669,-203.006 536.669,-197.006 536.669,-191.006 536.669,-191.006 536.669,-171.573 536.669,-171.573 536.669,-165.573 542.669,-159.573 548.669,-159.573 548.669,-159.573 594.396,-159.573 594.396,-159.573 600.396,-159.573 606.396,-165.573 606.396,-171.573 606.396,-171.573 606.396,-191.006 606.396,-191.006 606.396,-197.006 600.396,-203.006 594.396,-203.006"/>
<text text-anchor="middle" x="571.532" y="-177.947" font-family="Gotham Pro" font-size="14.00">String</text>
</g>
<!-- object&#45;&gt;string -->
<g id="edge7" class="edge"><title>object&#45;&gt;string:n</title>
<path fill="none" stroke="black" d="M364.323,-258.999C438.155,-256.13 571.532,-245.136 571.532,-203.147"/>
<polygon fill="black" stroke="black" points="363.755,-255.517 353.885,-259.366 364.001,-262.513 363.755,-255.517"/>
</g>
<!-- class -->
<g id="node4" class="node"><title>class</title>
<path fill="cornsilk" stroke="black" d="M59.4346,-123.29C59.4346,-123.29 19.6298,-123.29 19.6298,-123.29 13.6298,-123.29 7.62981,-117.29 7.62981,-111.29 7.62981,-111.29 7.62981,-91.857 7.62981,-91.857 7.62981,-85.857 13.6298,-79.857 19.6298,-79.857 19.6298,-79.857 59.4346,-79.857 59.4346,-79.857 65.4346,-79.857 71.4346,-85.857 71.4346,-91.857 71.4346,-91.857 71.4346,-111.29 71.4346,-111.29 71.4346,-117.29 65.4346,-123.29 59.4346,-123.29"/>
<text text-anchor="middle" x="39.5322" y="-98.2316" font-family="Gotham Pro" font-size="14.00">Class</text>
</g>
<!-- module&#45;&gt;class -->
<g id="edge8" class="edge"><title>module&#45;&gt;class:n</title>
<path fill="none" stroke="black" d="M39.5322,-149.328C39.5322,-140.926 39.5322,-131.83 39.5322,-123.432"/>
<polygon fill="black" stroke="black" points="36.0323,-149.495 39.5322,-159.496 43.0323,-149.496 36.0323,-149.495"/>
</g>
<!-- integer -->
<g id="node6" class="node"><title>integer</title>
<path fill="cornsilk" stroke="black" d="M206.189,-123.29C206.189,-123.29 152.875,-123.29 152.875,-123.29 146.875,-123.29 140.875,-117.29 140.875,-111.29 140.875,-111.29 140.875,-91.857 140.875,-91.857 140.875,-85.857 146.875,-79.857 152.875,-79.857 152.875,-79.857 206.189,-79.857 206.189,-79.857 212.189,-79.857 218.189,-85.857 218.189,-91.857 218.189,-91.857 218.189,-111.29 218.189,-111.29 218.189,-117.29 212.189,-123.29 206.189,-123.29"/>
<text text-anchor="middle" x="179.532" y="-98.2316" font-family="Gotham Pro" font-size="14.00">Integer</text>
</g>
<!-- numeric&#45;&gt;integer -->
<g id="edge9" class="edge"><title>numeric&#45;&gt;integer:n</title>
<path fill="none" stroke="black" d="M190.54,-151.652C184.206,-143.414 179.532,-133.817 179.532,-123.432"/>
<polygon fill="black" stroke="black" points="188.104,-154.183 197.317,-159.415 193.378,-149.58 188.104,-154.183"/>
</g>
<!-- float -->
<g id="node9" class="node"><title>float</title>
<path fill="cornsilk" stroke="black" d="M288.189,-123.29C288.189,-123.29 248.875,-123.29 248.875,-123.29 242.875,-123.29 236.875,-117.29 236.875,-111.29 236.875,-111.29 236.875,-91.857 236.875,-91.857 236.875,-85.857 242.875,-79.857 248.875,-79.857 248.875,-79.857 288.189,-79.857 288.189,-79.857 294.189,-79.857 300.189,-85.857 300.189,-91.857 300.189,-91.857 300.189,-111.29 300.189,-111.29 300.189,-117.29 294.189,-123.29 288.189,-123.29"/>
<text text-anchor="middle" x="268.532" y="-98.2316" font-family="Gotham Pro" font-size="14.00">Float</text>
</g>
<!-- numeric&#45;&gt;float -->
<g id="edge10" class="edge"><title>numeric&#45;&gt;float:n</title>
<path fill="none" stroke="black" d="M257.599,-151.754C263.879,-143.468 268.532,-133.823 268.532,-123.432"/>
<polygon fill="black" stroke="black" points="254.751,-149.699 250.889,-159.565 260.061,-154.26 254.751,-149.699"/>
</g>
<!-- bignum -->
<g id="node7" class="node"><title>bignum</title>
<path fill="cornsilk" stroke="black" d="M159.154,-43.5746C159.154,-43.5746 101.91,-43.5746 101.91,-43.5746 95.9103,-43.5746 89.9103,-37.5746 89.9103,-31.5746 89.9103,-31.5746 89.9103,-12.1412 89.9103,-12.1412 89.9103,-6.14117 95.9103,-0.141172 101.91,-0.141172 101.91,-0.141172 159.154,-0.141172 159.154,-0.141172 165.154,-0.141172 171.154,-6.14117 171.154,-12.1412 171.154,-12.1412 171.154,-31.5746 171.154,-31.5746 171.154,-37.5746 165.154,-43.5746 159.154,-43.5746"/>
<text text-anchor="middle" x="130.532" y="-18.5158" font-family="Gotham Pro" font-size="14.00">Bignum</text>
</g>
<!-- integer&#45;&gt;bignum -->
<g id="edge11" class="edge"><title>integer&#45;&gt;bignum:n</title>
<path fill="none" stroke="black" d="M142.355,-72.2418C135.54,-64.0381 130.532,-54.3809 130.532,-43.7158"/>
<polygon fill="black" stroke="black" points="139.93,-74.7722 149.337,-79.6473 145.023,-69.9702 139.93,-74.7722"/>
</g>
<!-- fixnum -->
<g id="node8" class="node"><title>fixnum</title>
<path fill="cornsilk" stroke="black" d="M257.474,-43.5746C257.474,-43.5746 201.591,-43.5746 201.591,-43.5746 195.591,-43.5746 189.591,-37.5746 189.591,-31.5746 189.591,-31.5746 189.591,-12.1412 189.591,-12.1412 189.591,-6.14117 195.591,-0.141172 201.591,-0.141172 201.591,-0.141172 257.474,-0.141172 257.474,-0.141172 263.474,-0.141172 269.474,-6.14117 269.474,-12.1412 269.474,-12.1412 269.474,-31.5746 269.474,-31.5746 269.474,-37.5746 263.474,-43.5746 257.474,-43.5746"/>
<text text-anchor="middle" x="229.532" y="-18.5158" font-family="Gotham Pro" font-size="14.00">Fixnum</text>
</g>
<!-- integer&#45;&gt;fixnum -->
<g id="edge12" class="edge"><title>integer&#45;&gt;fixnum:n</title>
<path fill="none" stroke="black" d="M217.468,-72.3713C224.422,-64.1651 229.532,-54.4742 229.532,-43.7158"/>
<polygon fill="black" stroke="black" points="214.759,-70.1395 210.344,-79.7707 219.801,-74.9947 214.759,-70.1395"/>
</g>
<!-- file -->
<g id="node13" class="node"><title>file</title>
<path fill="cornsilk" stroke="black" d="M506.532,-123.29C506.532,-123.29 476.532,-123.29 476.532,-123.29 470.532,-123.29 464.532,-117.29 464.532,-111.29 464.532,-111.29 464.532,-91.857 464.532,-91.857 464.532,-85.857 470.532,-79.857 476.532,-79.857 476.532,-79.857 506.532,-79.857 506.532,-79.857 512.532,-79.857 518.532,-85.857 518.532,-91.857 518.532,-91.857 518.532,-111.29 518.532,-111.29 518.532,-117.29 512.532,-123.29 506.532,-123.29"/>
<text text-anchor="middle" x="491.532" y="-98.2316" font-family="Gotham Pro" font-size="14.00">File</text>
</g>
<!-- io&#45;&gt;file -->
<g id="edge13" class="edge"><title>io&#45;&gt;file:n</title>
<path fill="none" stroke="black" d="M491.532,-149.328C491.532,-140.926 491.532,-131.83 491.532,-123.432"/>
<polygon fill="black" stroke="black" points="488.032,-149.495 491.532,-159.496 495.032,-149.496 488.032,-149.495"/>
</g>
</g>
</svg>
