<?xml version="1.0" encoding="UTF-8" standalone="no"?>
<!DOCTYPE svg PUBLIC "-//W3C//DTD SVG 1.1//EN"
 "http://www.w3.org/Graphics/SVG/1.1/DTD/svg11.dtd">
<!-- Generated by graphviz version 2.38.0 (20140413.2041)
 -->
<!-- Title: d Pages: 1 -->
<svg width="2519pt" height="291pt"
 viewBox="0.00 0.00 2519.03 290.86" xmlns="http://www.w3.org/2000/svg" xmlns:xlink="http://www.w3.org/1999/xlink">
<g id="graph0" class="graph" transform="scale(1 1) rotate(0) translate(4 286.863)">
<title>d</title>
<!-- Exception -->
<g id="node1" class="node"><title>Exception</title>
<path fill="gold" stroke="black" d="M465.807,-282.722C465.807,-282.722 392.269,-282.722 392.269,-282.722 386.269,-282.722 380.269,-276.722 380.269,-270.722 380.269,-270.722 380.269,-251.289 380.269,-251.289 380.269,-245.289 386.269,-239.289 392.269,-239.289 392.269,-239.289 465.807,-239.289 465.807,-239.289 471.807,-239.289 477.807,-245.289 477.807,-251.289 477.807,-251.289 477.807,-270.722 477.807,-270.722 477.807,-276.722 471.807,-282.722 465.807,-282.722"/>
<text text-anchor="middle" x="429.038" y="-257.663" font-family="Gotham Pro" font-size="14.00">Exception</text>
</g>
<!-- fatal -->
<g id="node2" class="node"><title>fatal</title>
<path fill="gold" stroke="black" d="M119.493,-203.006C119.493,-203.006 84.5817,-203.006 84.5817,-203.006 78.5817,-203.006 72.5817,-197.006 72.5817,-191.006 72.5817,-191.006 72.5817,-171.573 72.5817,-171.573 72.5817,-165.573 78.5817,-159.573 84.5817,-159.573 84.5817,-159.573 119.493,-159.573 119.493,-159.573 125.493,-159.573 131.493,-165.573 131.493,-171.573 131.493,-171.573 131.493,-191.006 131.493,-191.006 131.493,-197.006 125.493,-203.006 119.493,-203.006"/>
<text text-anchor="middle" x="102.038" y="-177.947" font-family="Gotham Pro" font-size="14.00">fatal</text>
</g>
<!-- Exception&#45;&gt;fatal -->
<g id="edge1" class="edge"><title>Exception&#45;&gt;fatal</title>
<path fill="none" stroke="black" d="M370.299,-253.822C310.88,-246.334 217.057,-231.098 140.038,-203.147 137.208,-202.121 134.335,-200.905 131.501,-199.586"/>
<polygon fill="black" stroke="black" points="369.904,-257.3 380.256,-255.045 370.757,-250.352 369.904,-257.3"/>
</g>
<!-- NoMemoryError -->
<g id="node3" class="node"><title>NoMemoryError</title>
<path fill="gold" stroke="black" d="M276.976,-203.006C276.976,-203.006 161.099,-203.006 161.099,-203.006 155.099,-203.006 149.099,-197.006 149.099,-191.006 149.099,-191.006 149.099,-171.573 149.099,-171.573 149.099,-165.573 155.099,-159.573 161.099,-159.573 161.099,-159.573 276.976,-159.573 276.976,-159.573 282.976,-159.573 288.976,-165.573 288.976,-171.573 288.976,-171.573 288.976,-191.006 288.976,-191.006 288.976,-197.006 282.976,-203.006 276.976,-203.006"/>
<text text-anchor="middle" x="219.038" y="-177.947" font-family="Gotham Pro" font-size="14.00">NoMemoryError</text>
</g>
<!-- Exception&#45;&gt;NoMemoryError -->
<g id="edge2" class="edge"><title>Exception&#45;&gt;NoMemoryError</title>
<path fill="none" stroke="black" d="M370.882,-238.483C341.038,-227.439 304.844,-214.044 275.279,-203.103"/>
<polygon fill="black" stroke="black" points="369.738,-241.792 380.332,-241.98 372.168,-235.227 369.738,-241.792"/>
</g>
<!-- ScriptError -->
<g id="node4" class="node"><title>ScriptError</title>
<path fill="gold" stroke="black" d="M399.389,-203.006C399.389,-203.006 318.686,-203.006 318.686,-203.006 312.686,-203.006 306.686,-197.006 306.686,-191.006 306.686,-191.006 306.686,-171.573 306.686,-171.573 306.686,-165.573 312.686,-159.573 318.686,-159.573 318.686,-159.573 399.389,-159.573 399.389,-159.573 405.389,-159.573 411.389,-165.573 411.389,-171.573 411.389,-171.573 411.389,-191.006 411.389,-191.006 411.389,-197.006 405.389,-203.006 399.389,-203.006"/>
<text text-anchor="middle" x="359.038" y="-177.947" font-family="Gotham Pro" font-size="14.00">ScriptError</text>
</g>
<!-- Exception&#45;&gt;ScriptError -->
<g id="edge3" class="edge"><title>Exception&#45;&gt;ScriptError</title>
<path fill="none" stroke="black" d="M403.407,-231.549C394.948,-222.158 385.701,-211.892 377.848,-203.173"/>
<polygon fill="black" stroke="black" points="400.986,-234.091 410.279,-239.179 406.187,-229.406 400.986,-234.091"/>
</g>
<!-- SignalException -->
<g id="node5" class="node"><title>SignalException</title>
<path fill="gold" stroke="black" d="M556.628,-203.006C556.628,-203.006 441.447,-203.006 441.447,-203.006 435.447,-203.006 429.447,-197.006 429.447,-191.006 429.447,-191.006 429.447,-171.573 429.447,-171.573 429.447,-165.573 435.447,-159.573 441.447,-159.573 441.447,-159.573 556.628,-159.573 556.628,-159.573 562.628,-159.573 568.628,-165.573 568.628,-171.573 568.628,-171.573 568.628,-191.006 568.628,-191.006 568.628,-197.006 562.628,-203.006 556.628,-203.006"/>
<text text-anchor="middle" x="499.038" y="-177.947" font-family="Gotham Pro" font-size="14.00">SignalException</text>
</g>
<!-- Exception&#45;&gt;SignalException -->
<g id="edge4" class="edge"><title>Exception&#45;&gt;SignalException</title>
<path fill="none" stroke="black" d="M454.669,-231.549C463.127,-222.158 472.375,-211.892 480.227,-203.173"/>
<polygon fill="black" stroke="black" points="451.888,-229.406 447.796,-239.179 457.09,-234.091 451.888,-229.406"/>
</g>
<!-- StandardError -->
<g id="node6" class="node"><title>StandardError</title>
<path fill="gold" stroke="black" d="M1421.54,-203.006C1421.54,-203.006 1318.54,-203.006 1318.54,-203.006 1312.54,-203.006 1306.54,-197.006 1306.54,-191.006 1306.54,-191.006 1306.54,-171.573 1306.54,-171.573 1306.54,-165.573 1312.54,-159.573 1318.54,-159.573 1318.54,-159.573 1421.54,-159.573 1421.54,-159.573 1427.54,-159.573 1433.54,-165.573 1433.54,-171.573 1433.54,-171.573 1433.54,-191.006 1433.54,-191.006 1433.54,-197.006 1427.54,-203.006 1421.54,-203.006"/>
<text text-anchor="middle" x="1370.04" y="-177.947" font-family="Gotham Pro" font-size="14.00">StandardError</text>
</g>
<!-- Exception&#45;&gt;StandardError -->
<g id="edge5" class="edge"><title>Exception&#45;&gt;StandardError</title>
<path fill="none" stroke="black" d="M488.091,-255.128C655.715,-241.284 1133.49,-201.826 1306.5,-187.537"/>
<polygon fill="black" stroke="black" points="487.654,-251.652 477.976,-255.964 488.23,-258.629 487.654,-251.652"/>
</g>
<!-- SystemExit -->
<g id="node7" class="node"><title>SystemExit</title>
<path fill="gold" stroke="black" d="M1544.88,-203.006C1544.88,-203.006 1463.2,-203.006 1463.2,-203.006 1457.2,-203.006 1451.2,-197.006 1451.2,-191.006 1451.2,-191.006 1451.2,-171.573 1451.2,-171.573 1451.2,-165.573 1457.2,-159.573 1463.2,-159.573 1463.2,-159.573 1544.88,-159.573 1544.88,-159.573 1550.88,-159.573 1556.88,-165.573 1556.88,-171.573 1556.88,-171.573 1556.88,-191.006 1556.88,-191.006 1556.88,-197.006 1550.88,-203.006 1544.88,-203.006"/>
<text text-anchor="middle" x="1504.04" y="-177.947" font-family="Gotham Pro" font-size="14.00">SystemExit</text>
</g>
<!-- Exception&#45;&gt;SystemExit -->
<g id="edge6" class="edge"><title>Exception&#45;&gt;SystemExit</title>
<path fill="none" stroke="black" d="M488.03,-258.77C675.685,-254.516 1257.32,-238.729 1442.04,-203.147 1445.05,-202.567 1448.11,-201.878 1451.19,-201.108"/>
<polygon fill="black" stroke="black" points="487.733,-255.276 477.814,-258.999 487.89,-262.274 487.733,-255.276"/>
</g>
<!-- LoadError -->
<g id="node8" class="node"><title>LoadError</title>
<path fill="gold" stroke="black" d="M86.1128,-123.29C86.1128,-123.29 11.9624,-123.29 11.9624,-123.29 5.96237,-123.29 -0.0376265,-117.29 -0.0376265,-111.29 -0.0376265,-111.29 -0.0376265,-91.857 -0.0376265,-91.857 -0.0376265,-85.857 5.96237,-79.857 11.9624,-79.857 11.9624,-79.857 86.1128,-79.857 86.1128,-79.857 92.1128,-79.857 98.1128,-85.857 98.1128,-91.857 98.1128,-91.857 98.1128,-111.29 98.1128,-111.29 98.1128,-117.29 92.1128,-123.29 86.1128,-123.29"/>
<text text-anchor="middle" x="49.0376" y="-98.2316" font-family="Gotham Pro" font-size="14.00">LoadError</text>
</g>
<!-- ScriptError&#45;&gt;LoadError -->
<g id="edge7" class="edge"><title>ScriptError&#45;&gt;LoadError</title>
<path fill="none" stroke="black" d="M296.888,-159.309C212.69,-137.99 187.377,-145.3 107.038,-123.432 104.147,-122.645 101.194,-121.78 98.2282,-120.865"/>
<polygon fill="black" stroke="black" points="296.053,-162.708 306.611,-161.831 297.81,-155.932 296.053,-162.708"/>
</g>
<!-- NotImplementedError -->
<g id="node9" class="node"><title>NotImplementedError</title>
<path fill="gold" stroke="black" d="M284.266,-123.29C284.266,-123.29 127.809,-123.29 127.809,-123.29 121.809,-123.29 115.809,-117.29 115.809,-111.29 115.809,-111.29 115.809,-91.857 115.809,-91.857 115.809,-85.857 121.809,-79.857 127.809,-79.857 127.809,-79.857 284.266,-79.857 284.266,-79.857 290.266,-79.857 296.266,-85.857 296.266,-91.857 296.266,-91.857 296.266,-111.29 296.266,-111.29 296.266,-117.29 290.266,-123.29 284.266,-123.29"/>
<text text-anchor="middle" x="206.038" y="-98.2316" font-family="Gotham Pro" font-size="14.00">NotImplementedError</text>
</g>
<!-- ScriptError&#45;&gt;NotImplementedError -->
<g id="edge8" class="edge"><title>ScriptError&#45;&gt;NotImplementedError</title>
<path fill="none" stroke="black" d="M309.011,-154.879C288.889,-144.658 265.98,-133.021 246.886,-123.323"/>
<polygon fill="black" stroke="black" points="307.536,-158.055 318.036,-159.463 310.706,-151.814 307.536,-158.055"/>
</g>
<!-- SyntaxError -->
<g id="node10" class="node"><title>SyntaxError</title>
<path fill="gold" stroke="black" d="M413.076,-123.29C413.076,-123.29 327,-123.29 327,-123.29 321,-123.29 315,-117.29 315,-111.29 315,-111.29 315,-91.857 315,-91.857 315,-85.857 321,-79.857 327,-79.857 327,-79.857 413.076,-79.857 413.076,-79.857 419.076,-79.857 425.076,-85.857 425.076,-91.857 425.076,-91.857 425.076,-111.29 425.076,-111.29 425.076,-117.29 419.076,-123.29 413.076,-123.29"/>
<text text-anchor="middle" x="370.038" y="-98.2316" font-family="Gotham Pro" font-size="14.00">SyntaxError</text>
</g>
<!-- ScriptError&#45;&gt;SyntaxError -->
<g id="edge9" class="edge"><title>ScriptError&#45;&gt;SyntaxError</title>
<path fill="none" stroke="black" d="M363.427,-149.278C364.654,-140.607 365.959,-131.391 367.082,-123.458"/>
<polygon fill="black" stroke="black" points="359.921,-149.071 361.985,-159.463 366.852,-150.052 359.921,-149.071"/>
</g>
<!-- Interrupt -->
<g id="node25" class="node"><title>Interrupt</title>
<path fill="gold" stroke="black" d="M520.85,-123.29C520.85,-123.29 455.226,-123.29 455.226,-123.29 449.226,-123.29 443.226,-117.29 443.226,-111.29 443.226,-111.29 443.226,-91.857 443.226,-91.857 443.226,-85.857 449.226,-79.857 455.226,-79.857 455.226,-79.857 520.85,-79.857 520.85,-79.857 526.85,-79.857 532.85,-85.857 532.85,-91.857 532.85,-91.857 532.85,-111.29 532.85,-111.29 532.85,-117.29 526.85,-123.29 520.85,-123.29"/>
<text text-anchor="middle" x="488.038" y="-98.2316" font-family="Gotham Pro" font-size="14.00">Interrupt</text>
</g>
<!-- SignalException&#45;&gt;Interrupt -->
<g id="edge24" class="edge"><title>SignalException&#45;&gt;Interrupt</title>
<path fill="none" stroke="black" d="M494.648,-149.278C493.421,-140.607 492.116,-131.391 490.994,-123.458"/>
<polygon fill="black" stroke="black" points="491.223,-150.052 496.09,-159.463 498.154,-149.071 491.223,-150.052"/>
</g>
<!-- ArgumentError -->
<g id="node11" class="node"><title>ArgumentError</title>
<path fill="gold" stroke="black" d="M671.859,-123.29C671.859,-123.29 562.216,-123.29 562.216,-123.29 556.216,-123.29 550.216,-117.29 550.216,-111.29 550.216,-111.29 550.216,-91.857 550.216,-91.857 550.216,-85.857 556.216,-79.857 562.216,-79.857 562.216,-79.857 671.859,-79.857 671.859,-79.857 677.859,-79.857 683.859,-85.857 683.859,-91.857 683.859,-91.857 683.859,-111.29 683.859,-111.29 683.859,-117.29 677.859,-123.29 671.859,-123.29"/>
<text text-anchor="middle" x="617.038" y="-98.2316" font-family="Gotham Pro" font-size="14.00">ArgumentError</text>
</g>
<!-- StandardError&#45;&gt;ArgumentError -->
<g id="edge10" class="edge"><title>StandardError&#45;&gt;ArgumentError</title>
<path fill="none" stroke="black" d="M1296.32,-178.532C1171.32,-174.566 910.193,-162.01 693.038,-123.432 690.074,-122.905 687.058,-122.315 684.022,-121.676"/>
<polygon fill="black" stroke="black" points="1296.43,-182.037 1306.53,-178.847 1296.65,-175.041 1296.43,-182.037"/>
</g>
<!-- IndexError -->
<g id="node12" class="node"><title>IndexError</title>
<path fill="gold" stroke="black" d="M790.532,-123.29C790.532,-123.29 713.543,-123.29 713.543,-123.29 707.543,-123.29 701.543,-117.29 701.543,-111.29 701.543,-111.29 701.543,-91.857 701.543,-91.857 701.543,-85.857 707.543,-79.857 713.543,-79.857 713.543,-79.857 790.532,-79.857 790.532,-79.857 796.532,-79.857 802.532,-85.857 802.532,-91.857 802.532,-91.857 802.532,-111.29 802.532,-111.29 802.532,-117.29 796.532,-123.29 790.532,-123.29"/>
<text text-anchor="middle" x="752.038" y="-98.2316" font-family="Gotham Pro" font-size="14.00">IndexError</text>
</g>
<!-- StandardError&#45;&gt;IndexError -->
<g id="edge11" class="edge"><title>StandardError&#45;&gt;IndexError</title>
<path fill="none" stroke="black" d="M1296.24,-176.476C1191.26,-170.167 993.082,-154.985 827.038,-123.432 819.071,-121.918 810.719,-119.968 802.6,-117.869"/>
<polygon fill="black" stroke="black" points="1296.23,-179.982 1306.42,-177.078 1296.64,-172.994 1296.23,-179.982"/>
</g>
<!-- IOError -->
<g id="node13" class="node"><title>IOError</title>
<path fill="gold" stroke="black" d="M903.616,-123.29C903.616,-123.29 848.459,-123.29 848.459,-123.29 842.459,-123.29 836.459,-117.29 836.459,-111.29 836.459,-111.29 836.459,-91.857 836.459,-91.857 836.459,-85.857 842.459,-79.857 848.459,-79.857 848.459,-79.857 903.616,-79.857 903.616,-79.857 909.616,-79.857 915.616,-85.857 915.616,-91.857 915.616,-91.857 915.616,-111.29 915.616,-111.29 915.616,-117.29 909.616,-123.29 903.616,-123.29"/>
<text text-anchor="middle" x="876.038" y="-98.2316" font-family="Gotham Pro" font-size="14.00">IOError</text>
</g>
<!-- StandardError&#45;&gt;IOError -->
<g id="edge12" class="edge"><title>StandardError&#45;&gt;IOError</title>
<path fill="none" stroke="black" d="M1296.48,-177.28C1207.03,-172.175 1052.13,-158.656 924.038,-123.432 921.322,-122.685 918.56,-121.813 915.803,-120.857"/>
<polygon fill="black" stroke="black" points="1296.34,-180.778 1306.52,-177.834 1296.73,-173.789 1296.34,-180.778"/>
</g>
<!-- LocalJumpError -->
<g id="node14" class="node"><title>LocalJumpError</title>
<path fill="gold" stroke="black" d="M1060.95,-123.29C1060.95,-123.29 945.125,-123.29 945.125,-123.29 939.125,-123.29 933.125,-117.29 933.125,-111.29 933.125,-111.29 933.125,-91.857 933.125,-91.857 933.125,-85.857 939.125,-79.857 945.125,-79.857 945.125,-79.857 1060.95,-79.857 1060.95,-79.857 1066.95,-79.857 1072.95,-85.857 1072.95,-91.857 1072.95,-91.857 1072.95,-111.29 1072.95,-111.29 1072.95,-117.29 1066.95,-123.29 1060.95,-123.29"/>
<text text-anchor="middle" x="1003.04" y="-98.2316" font-family="Gotham Pro" font-size="14.00">LocalJumpError</text>
</g>
<!-- StandardError&#45;&gt;LocalJumpError -->
<g id="edge13" class="edge"><title>StandardError&#45;&gt;LocalJumpError</title>
<path fill="none" stroke="black" d="M1296.72,-167.138C1238.35,-156.35 1154.69,-140.176 1082.04,-123.432 1079,-122.731 1075.89,-121.996 1072.77,-121.239"/>
<polygon fill="black" stroke="black" points="1296.12,-170.586 1306.59,-168.955 1297.39,-163.702 1296.12,-170.586"/>
</g>
<!-- NameError -->
<g id="node15" class="node"><title>NameError</title>
<path fill="gold" stroke="black" d="M1182.9,-123.29C1182.9,-123.29 1103.17,-123.29 1103.17,-123.29 1097.17,-123.29 1091.17,-117.29 1091.17,-111.29 1091.17,-111.29 1091.17,-91.857 1091.17,-91.857 1091.17,-85.857 1097.17,-79.857 1103.17,-79.857 1103.17,-79.857 1182.9,-79.857 1182.9,-79.857 1188.9,-79.857 1194.9,-85.857 1194.9,-91.857 1194.9,-91.857 1194.9,-111.29 1194.9,-111.29 1194.9,-117.29 1188.9,-123.29 1182.9,-123.29"/>
<text text-anchor="middle" x="1143.04" y="-98.2316" font-family="Gotham Pro" font-size="14.00">NameError</text>
</g>
<!-- StandardError&#45;&gt;NameError -->
<g id="edge14" class="edge"><title>StandardError&#45;&gt;NameError</title>
<path fill="none" stroke="black" d="M1299.67,-156.199C1265.83,-144.611 1225.97,-130.966 1194.93,-120.339"/>
<polygon fill="black" stroke="black" points="1298.91,-159.637 1309.5,-159.565 1301.18,-153.015 1298.91,-159.637"/>
</g>
<!-- RangeError -->
<g id="node16" class="node"><title>RangeError</title>
<path fill="gold" stroke="black" d="M1346.57,-123.29C1346.57,-123.29 1263.51,-123.29 1263.51,-123.29 1257.51,-123.29 1251.51,-117.29 1251.51,-111.29 1251.51,-111.29 1251.51,-91.857 1251.51,-91.857 1251.51,-85.857 1257.51,-79.857 1263.51,-79.857 1263.51,-79.857 1346.57,-79.857 1346.57,-79.857 1352.57,-79.857 1358.57,-85.857 1358.57,-91.857 1358.57,-91.857 1358.57,-111.29 1358.57,-111.29 1358.57,-117.29 1352.57,-123.29 1346.57,-123.29"/>
<text text-anchor="middle" x="1305.04" y="-98.2316" font-family="Gotham Pro" font-size="14.00">RangeError</text>
</g>
<!-- StandardError&#45;&gt;RangeError -->
<g id="edge15" class="edge"><title>StandardError&#45;&gt;RangeError</title>
<path fill="none" stroke="black" d="M1346,-151.551C1338.21,-142.237 1329.72,-132.089 1322.5,-123.458"/>
<polygon fill="black" stroke="black" points="1343.52,-154.038 1352.62,-159.463 1348.89,-149.547 1343.52,-154.038"/>
</g>
<!-- RegexpError -->
<g id="node17" class="node"><title>RegexpError</title>
<path fill="gold" stroke="black" d="M1480.9,-123.29C1480.9,-123.29 1389.18,-123.29 1389.18,-123.29 1383.18,-123.29 1377.18,-117.29 1377.18,-111.29 1377.18,-111.29 1377.18,-91.857 1377.18,-91.857 1377.18,-85.857 1383.18,-79.857 1389.18,-79.857 1389.18,-79.857 1480.9,-79.857 1480.9,-79.857 1486.9,-79.857 1492.9,-85.857 1492.9,-91.857 1492.9,-91.857 1492.9,-111.29 1492.9,-111.29 1492.9,-117.29 1486.9,-123.29 1480.9,-123.29"/>
<text text-anchor="middle" x="1435.04" y="-98.2316" font-family="Gotham Pro" font-size="14.00">RegexpError</text>
</g>
<!-- StandardError&#45;&gt;RegexpError -->
<g id="edge16" class="edge"><title>StandardError&#45;&gt;RegexpError</title>
<path fill="none" stroke="black" d="M1394.07,-151.551C1401.86,-142.237 1410.35,-132.089 1417.57,-123.458"/>
<polygon fill="black" stroke="black" points="1391.19,-149.547 1387.46,-159.463 1396.56,-154.038 1391.19,-149.547"/>
</g>
<!-- RuntimeError -->
<g id="node18" class="node"><title>RuntimeError</title>
<path fill="gold" stroke="black" d="M1620.94,-123.29C1620.94,-123.29 1523.14,-123.29 1523.14,-123.29 1517.14,-123.29 1511.14,-117.29 1511.14,-111.29 1511.14,-111.29 1511.14,-91.857 1511.14,-91.857 1511.14,-85.857 1517.14,-79.857 1523.14,-79.857 1523.14,-79.857 1620.94,-79.857 1620.94,-79.857 1626.94,-79.857 1632.94,-85.857 1632.94,-91.857 1632.94,-91.857 1632.94,-111.29 1632.94,-111.29 1632.94,-117.29 1626.94,-123.29 1620.94,-123.29"/>
<text text-anchor="middle" x="1572.04" y="-98.2316" font-family="Gotham Pro" font-size="14.00">RuntimeError</text>
</g>
<!-- StandardError&#45;&gt;RuntimeError -->
<g id="edge17" class="edge"><title>StandardError&#45;&gt;RuntimeError</title>
<path fill="none" stroke="black" d="M1433.32,-155.942C1460.49,-145.49 1491.91,-133.401 1517.97,-123.375"/>
<polygon fill="black" stroke="black" points="1431.98,-152.708 1423.9,-159.565 1434.49,-159.241 1431.98,-152.708"/>
</g>
<!-- SecurityError -->
<g id="node19" class="node"><title>SecurityError</title>
<path fill="gold" stroke="black" d="M1759.28,-123.29C1759.28,-123.29 1662.8,-123.29 1662.8,-123.29 1656.8,-123.29 1650.8,-117.29 1650.8,-111.29 1650.8,-111.29 1650.8,-91.857 1650.8,-91.857 1650.8,-85.857 1656.8,-79.857 1662.8,-79.857 1662.8,-79.857 1759.28,-79.857 1759.28,-79.857 1765.28,-79.857 1771.28,-85.857 1771.28,-91.857 1771.28,-91.857 1771.28,-111.29 1771.28,-111.29 1771.28,-117.29 1765.28,-123.29 1759.28,-123.29"/>
<text text-anchor="middle" x="1711.04" y="-98.2316" font-family="Gotham Pro" font-size="14.00">SecurityError</text>
</g>
<!-- StandardError&#45;&gt;SecurityError -->
<g id="edge18" class="edge"><title>StandardError&#45;&gt;SecurityError</title>
<path fill="none" stroke="black" d="M1443.45,-159.216C1531.76,-139.206 1557.31,-143.792 1642.04,-123.432 1644.84,-122.759 1647.69,-122.039 1650.56,-121.286"/>
<polygon fill="black" stroke="black" points="1442.5,-155.844 1433.55,-161.504 1444.08,-162.664 1442.5,-155.844"/>
</g>
<!-- SystemCallError -->
<g id="node20" class="node"><title>SystemCallError</title>
<path fill="gold" stroke="black" d="M1916.54,-123.29C1916.54,-123.29 1801.54,-123.29 1801.54,-123.29 1795.54,-123.29 1789.54,-117.29 1789.54,-111.29 1789.54,-111.29 1789.54,-91.857 1789.54,-91.857 1789.54,-85.857 1795.54,-79.857 1801.54,-79.857 1801.54,-79.857 1916.54,-79.857 1916.54,-79.857 1922.54,-79.857 1928.54,-85.857 1928.54,-91.857 1928.54,-91.857 1928.54,-111.29 1928.54,-111.29 1928.54,-117.29 1922.54,-123.29 1916.54,-123.29"/>
<text text-anchor="middle" x="1859.04" y="-98.2316" font-family="Gotham Pro" font-size="14.00">SystemCallError</text>
</g>
<!-- StandardError&#45;&gt;SystemCallError -->
<g id="edge19" class="edge"><title>StandardError&#45;&gt;SystemCallError</title>
<path fill="none" stroke="black" d="M1443.44,-159.327C1592.09,-131.159 1634.66,-150.205 1780.04,-123.432 1783.11,-122.866 1786.23,-122.244 1789.38,-121.579"/>
<polygon fill="black" stroke="black" points="1442.65,-155.915 1433.49,-161.251 1443.97,-162.788 1442.65,-155.915"/>
</g>
<!-- SystemStackError -->
<g id="node21" class="node"><title>SystemStackError</title>
<path fill="gold" stroke="black" d="M2087.42,-123.29C2087.42,-123.29 1958.66,-123.29 1958.66,-123.29 1952.66,-123.29 1946.66,-117.29 1946.66,-111.29 1946.66,-111.29 1946.66,-91.857 1946.66,-91.857 1946.66,-85.857 1952.66,-79.857 1958.66,-79.857 1958.66,-79.857 2087.42,-79.857 2087.42,-79.857 2093.42,-79.857 2099.42,-85.857 2099.42,-91.857 2099.42,-91.857 2099.42,-111.29 2099.42,-111.29 2099.42,-117.29 2093.42,-123.29 2087.42,-123.29"/>
<text text-anchor="middle" x="2023.04" y="-98.2316" font-family="Gotham Pro" font-size="14.00">SystemStackError</text>
</g>
<!-- StandardError&#45;&gt;SystemStackError -->
<g id="edge20" class="edge"><title>StandardError&#45;&gt;SystemStackError</title>
<path fill="none" stroke="black" d="M1443.63,-159.339C1661.46,-121.584 1723.02,-157.369 1938.04,-123.432 1940.89,-122.982 1943.79,-122.483 1946.71,-121.947"/>
<polygon fill="black" stroke="black" points="1442.71,-155.947 1433.47,-161.132 1443.93,-162.84 1442.71,-155.947"/>
</g>
<!-- ThreadError -->
<g id="node22" class="node"><title>ThreadError</title>
<path fill="gold" stroke="black" d="M2216.67,-123.29C2216.67,-123.29 2129.41,-123.29 2129.41,-123.29 2123.41,-123.29 2117.41,-117.29 2117.41,-111.29 2117.41,-111.29 2117.41,-91.857 2117.41,-91.857 2117.41,-85.857 2123.41,-79.857 2129.41,-79.857 2129.41,-79.857 2216.67,-79.857 2216.67,-79.857 2222.67,-79.857 2228.67,-85.857 2228.67,-91.857 2228.67,-91.857 2228.67,-111.29 2228.67,-111.29 2228.67,-117.29 2222.67,-123.29 2216.67,-123.29"/>
<text text-anchor="middle" x="2173.04" y="-98.2316" font-family="Gotham Pro" font-size="14.00">ThreadError</text>
</g>
<!-- StandardError&#45;&gt;ThreadError -->
<g id="edge21" class="edge"><title>StandardError&#45;&gt;ThreadError</title>
<path fill="none" stroke="black" d="M1443.51,-159.387C1736.17,-111.365 1819.79,-176.556 2108.04,-123.432 2111.07,-122.873 2114.15,-122.213 2117.25,-121.477"/>
<polygon fill="black" stroke="black" points="1442.74,-155.966 1433.46,-161.067 1443.9,-162.871 1442.74,-155.966"/>
</g>
<!-- TypeError -->
<g id="node23" class="node"><title>TypeError</title>
<path fill="gold" stroke="black" d="M2331.36,-123.29C2331.36,-123.29 2258.72,-123.29 2258.72,-123.29 2252.72,-123.29 2246.72,-117.29 2246.72,-111.29 2246.72,-111.29 2246.72,-91.857 2246.72,-91.857 2246.72,-85.857 2252.72,-79.857 2258.72,-79.857 2258.72,-79.857 2331.36,-79.857 2331.36,-79.857 2337.36,-79.857 2343.36,-85.857 2343.36,-91.857 2343.36,-91.857 2343.36,-111.29 2343.36,-111.29 2343.36,-117.29 2337.36,-123.29 2331.36,-123.29"/>
<text text-anchor="middle" x="2295.04" y="-98.2316" font-family="Gotham Pro" font-size="14.00">TypeError</text>
</g>
<!-- StandardError&#45;&gt;TypeError -->
<g id="edge22" class="edge"><title>StandardError&#45;&gt;TypeError</title>
<path fill="none" stroke="black" d="M1443.35,-159.425C1793.31,-103.439 1894.04,-192.446 2238.04,-123.432 2240.83,-122.872 2243.66,-122.198 2246.5,-121.441"/>
<polygon fill="black" stroke="black" points="1442.76,-155.975 1433.45,-161.036 1443.89,-162.884 1442.76,-155.975"/>
</g>
<!-- ZeroDivisionError -->
<g id="node24" class="node"><title>ZeroDivisionError</title>
<path fill="gold" stroke="black" d="M2499.02,-123.29C2499.02,-123.29 2373.06,-123.29 2373.06,-123.29 2367.06,-123.29 2361.06,-117.29 2361.06,-111.29 2361.06,-111.29 2361.06,-91.857 2361.06,-91.857 2361.06,-85.857 2367.06,-79.857 2373.06,-79.857 2373.06,-79.857 2499.02,-79.857 2499.02,-79.857 2505.02,-79.857 2511.02,-85.857 2511.02,-91.857 2511.02,-91.857 2511.02,-111.29 2511.02,-111.29 2511.02,-117.29 2505.02,-123.29 2499.02,-123.29"/>
<text text-anchor="middle" x="2436.04" y="-98.2316" font-family="Gotham Pro" font-size="14.00">ZeroDivisionError</text>
</g>
<!-- StandardError&#45;&gt;ZeroDivisionError -->
<g id="edge23" class="edge"><title>StandardError&#45;&gt;ZeroDivisionError</title>
<path fill="none" stroke="black" d="M1443.55,-159.394C1843.42,-96.0589 1954.65,-180.026 2352.04,-123.432 2354.86,-123.029 2357.73,-122.571 2360.62,-122.069"/>
<polygon fill="black" stroke="black" points="1442.77,-155.975 1433.45,-161.016 1443.88,-162.887 1442.77,-155.975"/>
</g>
<!-- StopIteration -->
<g id="node26" class="node"><title>StopIteration</title>
<path fill="gold" stroke="black" d="M799.476,-43.5746C799.476,-43.5746 704.599,-43.5746 704.599,-43.5746 698.599,-43.5746 692.599,-37.5746 692.599,-31.5746 692.599,-31.5746 692.599,-12.1412 692.599,-12.1412 692.599,-6.14117 698.599,-0.141172 704.599,-0.141172 704.599,-0.141172 799.476,-0.141172 799.476,-0.141172 805.476,-0.141172 811.476,-6.14117 811.476,-12.1412 811.476,-12.1412 811.476,-31.5746 811.476,-31.5746 811.476,-37.5746 805.476,-43.5746 799.476,-43.5746"/>
<text text-anchor="middle" x="752.038" y="-18.5158" font-family="Gotham Pro" font-size="14.00">StopIteration</text>
</g>
<!-- IndexError&#45;&gt;StopIteration -->
<g id="edge25" class="edge"><title>IndexError&#45;&gt;StopIteration</title>
<path fill="none" stroke="black" d="M752.038,-69.5625C752.038,-60.8909 752.038,-51.6753 752.038,-43.7418"/>
<polygon fill="black" stroke="black" points="748.538,-69.7473 752.038,-79.7473 755.538,-69.7474 748.538,-69.7473"/>
</g>
<!-- EOFError -->
<g id="node27" class="node"><title>EOFError</title>
<path fill="gold" stroke="black" d="M910.609,-43.5746C910.609,-43.5746 841.466,-43.5746 841.466,-43.5746 835.466,-43.5746 829.466,-37.5746 829.466,-31.5746 829.466,-31.5746 829.466,-12.1412 829.466,-12.1412 829.466,-6.14117 835.466,-0.141172 841.466,-0.141172 841.466,-0.141172 910.609,-0.141172 910.609,-0.141172 916.609,-0.141172 922.609,-6.14117 922.609,-12.1412 922.609,-12.1412 922.609,-31.5746 922.609,-31.5746 922.609,-37.5746 916.609,-43.5746 910.609,-43.5746"/>
<text text-anchor="middle" x="876.038" y="-18.5158" font-family="Gotham Pro" font-size="14.00">EOFError</text>
</g>
<!-- IOError&#45;&gt;EOFError -->
<g id="edge26" class="edge"><title>IOError&#45;&gt;EOFError</title>
<path fill="none" stroke="black" d="M876.038,-69.5625C876.038,-60.8909 876.038,-51.6753 876.038,-43.7418"/>
<polygon fill="black" stroke="black" points="872.538,-69.7473 876.038,-79.7473 879.538,-69.7474 872.538,-69.7473"/>
</g>
<!-- NoMethodError -->
<g id="node28" class="node"><title>NoMethodError</title>
<path fill="gold" stroke="black" d="M1199.29,-43.5746C1199.29,-43.5746 1086.78,-43.5746 1086.78,-43.5746 1080.78,-43.5746 1074.78,-37.5746 1074.78,-31.5746 1074.78,-31.5746 1074.78,-12.1412 1074.78,-12.1412 1074.78,-6.14117 1080.78,-0.141172 1086.78,-0.141172 1086.78,-0.141172 1199.29,-0.141172 1199.29,-0.141172 1205.29,-0.141172 1211.29,-6.14117 1211.29,-12.1412 1211.29,-12.1412 1211.29,-31.5746 1211.29,-31.5746 1211.29,-37.5746 1205.29,-43.5746 1199.29,-43.5746"/>
<text text-anchor="middle" x="1143.04" y="-18.5158" font-family="Gotham Pro" font-size="14.00">NoMethodError</text>
</g>
<!-- NameError&#45;&gt;NoMethodError -->
<g id="edge27" class="edge"><title>NameError&#45;&gt;NoMethodError</title>
<path fill="none" stroke="black" d="M1143.04,-69.5625C1143.04,-60.8909 1143.04,-51.6753 1143.04,-43.7418"/>
<polygon fill="black" stroke="black" points="1139.54,-69.7473 1143.04,-79.7473 1146.54,-69.7474 1139.54,-69.7473"/>
</g>
<!-- FloatDomainError -->
<g id="node29" class="node"><title>FloatDomainError</title>
<path fill="gold" stroke="black" d="M1369.51,-43.5746C1369.51,-43.5746 1240.57,-43.5746 1240.57,-43.5746 1234.57,-43.5746 1228.57,-37.5746 1228.57,-31.5746 1228.57,-31.5746 1228.57,-12.1412 1228.57,-12.1412 1228.57,-6.14117 1234.57,-0.141172 1240.57,-0.141172 1240.57,-0.141172 1369.51,-0.141172 1369.51,-0.141172 1375.51,-0.141172 1381.51,-6.14117 1381.51,-12.1412 1381.51,-12.1412 1381.51,-31.5746 1381.51,-31.5746 1381.51,-37.5746 1375.51,-43.5746 1369.51,-43.5746"/>
<text text-anchor="middle" x="1305.04" y="-18.5158" font-family="Gotham Pro" font-size="14.00">FloatDomainError</text>
</g>
<!-- RangeError&#45;&gt;FloatDomainError -->
<g id="edge28" class="edge"><title>RangeError&#45;&gt;FloatDomainError</title>
<path fill="none" stroke="black" d="M1305.04,-69.5625C1305.04,-60.8909 1305.04,-51.6753 1305.04,-43.7418"/>
<polygon fill="black" stroke="black" points="1301.54,-69.7473 1305.04,-79.7473 1308.54,-69.7474 1301.54,-69.7473"/>
</g>
<!-- Errno -->
<g id="node30" class="node"><title>Errno</title>
<path fill="gold" stroke="black" d="M1880.42,-43.5746C1880.42,-43.5746 1837.66,-43.5746 1837.66,-43.5746 1831.66,-43.5746 1825.66,-37.5746 1825.66,-31.5746 1825.66,-31.5746 1825.66,-12.1412 1825.66,-12.1412 1825.66,-6.14117 1831.66,-0.141172 1837.66,-0.141172 1837.66,-0.141172 1880.42,-0.141172 1880.42,-0.141172 1886.42,-0.141172 1892.42,-6.14117 1892.42,-12.1412 1892.42,-12.1412 1892.42,-31.5746 1892.42,-31.5746 1892.42,-37.5746 1886.42,-43.5746 1880.42,-43.5746"/>
<text text-anchor="middle" x="1859.04" y="-18.5158" font-family="Gotham Pro" font-size="14.00">Errno</text>
</g>
<!-- SystemCallError&#45;&gt;Errno -->
<g id="edge29" class="edge"><title>SystemCallError&#45;&gt;Errno</title>
<path fill="none" stroke="black" d="M1859.04,-69.5625C1859.04,-60.8909 1859.04,-51.6753 1859.04,-43.7418"/>
<polygon fill="black" stroke="black" points="1855.54,-69.7473 1859.04,-79.7473 1862.54,-69.7474 1855.54,-69.7473"/>
</g>
</g>
</svg>
