<svg version="1.1" xmlns="http://www.w3.org/2000/svg" xmlns:xlink="http://www.w3.org/1999/xlink" width="625.03125" height="167"><defs/><g><g transform="translate(-150,-198) scale(1,1)"><rect fill="#fff5d8" stroke="none" x="160" y="208" width="257.037109375" height="147"/></g><g transform="translate(-150,-198) scale(1,1)"><path fill="none" stroke="#000000" d="M 160 208 L 417.037109375 208 L 417.037109375 355 L 160 355 L 160 208 Z Z" stroke-miterlimit="10"/></g><g transform="translate(-150,-198) scale(1,1)"><path fill="none" stroke="#000000" d="M 160 238 L 417.037109375 238" stroke-miterlimit="10"/></g><g transform="translate(-150,-198) scale(1,1)"><path fill="none" stroke="#000000" d="M 194.00390625 238 L 194.00390625 355" stroke-miterlimit="10"/></g><g transform="translate(-150,-198) scale(1,1)"><path fill="none" stroke="#000000" d="M 288.017578125 238 L 288.017578125 355" stroke-miterlimit="10"/></g><g transform="translate(-150,-198) scale(1,1)"><g><path fill="none" stroke="none"/><text fill="#000000" stroke="none" font-family="Courier" font-size="20px" font-style="normal" font-weight="bold" text-decoration="none" x="240.5107421875" y="232.5">PostInfo</text></g></g><g transform="translate(-150,-198) scale(1,1)"><g><path fill="none" stroke="none"/><text fill="#000000" stroke="none" font-family="Courier" font-size="20px" font-style="normal" font-weight="normal" text-decoration="none" x="165" y="263">PK</text></g></g><g transform="translate(-150,-198) scale(1,1)"><g><path fill="none" stroke="none"/><text fill="#000000" stroke="none" font-family="Courier" font-size="20px" font-style="normal" font-weight="normal" text-decoration="none" x="199.00390625" y="263">id</text></g></g><g transform="translate(-150,-198) scale(1,1)"><g><path fill="none" stroke="none"/><text fill="#000000" stroke="none" font-family="Courier" font-size="20px" font-style="normal" font-weight="normal" text-decoration="none" x="293.017578125" y="263">Integer</text></g></g><g transform="translate(-150,-198) scale(1,1)"><g><path fill="none" stroke="none"/><text fill="#000000" stroke="none" font-family="Courier" font-size="20px" font-style="normal" font-weight="normal" text-decoration="none" x="165" y="285"></text></g></g><g transform="translate(-150,-198) scale(1,1)"><g><path fill="none" stroke="none"/><text fill="#000000" stroke="none" font-family="Courier" font-size="20px" font-style="normal" font-weight="normal" text-decoration="none" x="199.00390625" y="285">post_id</text></g></g><g transform="translate(-150,-198) scale(1,1)"><g><path fill="none" stroke="none"/><text fill="#000000" stroke="none" font-family="Courier" font-size="20px" font-style="normal" font-weight="normal" text-decoration="none" x="293.017578125" y="285">Integer</text></g></g><g transform="translate(-150,-198) scale(1,1)"><g><path fill="none" stroke="none"/><text fill="#000000" stroke="none" font-family="Courier" font-size="20px" font-style="normal" font-weight="normal" text-decoration="none" x="165" y="307"></text></g></g><g transform="translate(-150,-198) scale(1,1)"><g><path fill="none" stroke="none"/><text fill="#000000" stroke="none" font-family="Courier" font-size="20px" font-style="normal" font-weight="normal" text-decoration="none" x="199.00390625" y="307">views</text></g></g><g transform="translate(-150,-198) scale(1,1)"><g><path fill="none" stroke="none"/><text fill="#000000" stroke="none" font-family="Courier" font-size="20px" font-style="normal" font-weight="normal" text-decoration="none" x="293.017578125" y="307">Integer</text></g></g><g transform="translate(-150,-198) scale(1,1)"><g><path fill="none" stroke="none"/><text fill="#000000" stroke="none" font-family="Courier" font-size="20px" font-style="normal" font-weight="normal" text-decoration="none" x="165" y="329"></text></g></g><g transform="translate(-150,-198) scale(1,1)"><g><path fill="none" stroke="none"/><text fill="#000000" stroke="none" font-family="Courier" font-size="20px" font-style="normal" font-weight="normal" text-decoration="none" x="199.00390625" y="329">likes</text></g></g><g transform="translate(-150,-198) scale(1,1)"><g><path fill="none" stroke="none"/><text fill="#000000" stroke="none" font-family="Courier" font-size="20px" font-style="normal" font-weight="normal" text-decoration="none" x="293.017578125" y="329">Integer</text></g></g><g transform="translate(-150,-198) scale(1,1)"><g><path fill="none" stroke="none"/><text fill="#000000" stroke="none" font-family="Courier" font-size="20px" font-style="normal" font-weight="normal" text-decoration="none" x="165" y="351"></text></g></g><g transform="translate(-150,-198) scale(1,1)"><g><path fill="none" stroke="none"/><text fill="#000000" stroke="none" font-family="Courier" font-size="20px" font-style="normal" font-weight="normal" text-decoration="none" x="199.00390625" y="351">rate</text></g></g><g transform="translate(-150,-198) scale(1,1)"><g><path fill="none" stroke="none"/><text fill="#000000" stroke="none" font-family="Courier" font-size="20px" font-style="normal" font-weight="normal" text-decoration="none" x="293.017578125" y="351">Integer</text></g></g><g transform="translate(-150,-198) scale(1,1)"><rect fill="#fff5d8" stroke="none" x="544" y="208" width="221.03125" height="125"/></g><g transform="translate(-150,-198) scale(1,1)"><path fill="none" stroke="#000000" d="M 544 208 L 765.03125 208 L 765.03125 333 L 544 333 L 544 208 Z Z" stroke-miterlimit="10"/></g><g transform="translate(-150,-198) scale(1,1)"><path fill="none" stroke="#000000" d="M 544 238 L 765.03125 238" stroke-miterlimit="10"/></g><g transform="translate(-150,-198) scale(1,1)"><path fill="none" stroke="#000000" d="M 578.00390625 238 L 578.00390625 333" stroke-miterlimit="10"/></g><g transform="translate(-150,-198) scale(1,1)"><path fill="none" stroke="#000000" d="M 672.017578125 238 L 672.017578125 333" stroke-miterlimit="10"/></g><g transform="translate(-150,-198) scale(1,1)"><g><path fill="none" stroke="none"/><text fill="#000000" stroke="none" font-family="Courier" font-size="20px" font-style="normal" font-weight="bold" text-decoration="none" x="630.51171875" y="232.5">Post</text></g></g><g transform="translate(-150,-198) scale(1,1)"><g><path fill="none" stroke="none"/><text fill="#000000" stroke="none" font-family="Courier" font-size="20px" font-style="normal" font-weight="normal" text-decoration="none" x="549" y="263">PK</text></g></g><g transform="translate(-150,-198) scale(1,1)"><g><path fill="none" stroke="none"/><text fill="#000000" stroke="none" font-family="Courier" font-size="20px" font-style="normal" font-weight="normal" text-decoration="none" x="583.00390625" y="263">id</text></g></g><g transform="translate(-150,-198) scale(1,1)"><g><path fill="none" stroke="none"/><text fill="#000000" stroke="none" font-family="Courier" font-size="20px" font-style="normal" font-weight="normal" text-decoration="none" x="677.017578125" y="263">Integer</text></g></g><g transform="translate(-150,-198) scale(1,1)"><g><path fill="none" stroke="none"/><text fill="#000000" stroke="none" font-family="Courier" font-size="20px" font-style="normal" font-weight="normal" text-decoration="none" x="549" y="285"></text></g></g><g transform="translate(-150,-198) scale(1,1)"><g><path fill="none" stroke="none"/><text fill="#000000" stroke="none" font-family="Courier" font-size="20px" font-style="normal" font-weight="normal" text-decoration="none" x="583.00390625" y="285">title</text></g></g><g transform="translate(-150,-198) scale(1,1)"><g><path fill="none" stroke="none"/><text fill="#000000" stroke="none" font-family="Courier" font-size="20px" font-style="normal" font-weight="normal" text-decoration="none" x="677.017578125" y="285">String</text></g></g><g transform="translate(-150,-198) scale(1,1)"><g><path fill="none" stroke="none"/><text fill="#000000" stroke="none" font-family="Courier" font-size="20px" font-style="normal" font-weight="normal" text-decoration="none" x="549" y="307"></text></g></g><g transform="translate(-150,-198) scale(1,1)"><g><path fill="none" stroke="none"/><text fill="#000000" stroke="none" font-family="Courier" font-size="20px" font-style="normal" font-weight="normal" text-decoration="none" x="583.00390625" y="307">text</text></g></g><g transform="translate(-150,-198) scale(1,1)"><g><path fill="none" stroke="none"/><text fill="#000000" stroke="none" font-family="Courier" font-size="20px" font-style="normal" font-weight="normal" text-decoration="none" x="677.017578125" y="307">Text</text></g></g><g transform="translate(-150,-198) scale(1,1)"><g><path fill="none" stroke="none"/><text fill="#000000" stroke="none" font-family="Courier" font-size="20px" font-style="normal" font-weight="normal" text-decoration="none" x="549" y="329"></text></g></g><g transform="translate(-150,-198) scale(1,1)"><g><path fill="none" stroke="none"/><text fill="#000000" stroke="none" font-family="Courier" font-size="20px" font-style="normal" font-weight="normal" text-decoration="none" x="583.00390625" y="329">user_id</text></g></g><g transform="translate(-150,-198) scale(1,1)"><g><path fill="none" stroke="none"/><text fill="#000000" stroke="none" font-family="Courier" font-size="20px" font-style="normal" font-weight="normal" text-decoration="none" x="677.017578125" y="329">Integer</text></g></g><g transform="translate(-150,-198) scale(1,1)"><path fill="none" stroke="#000000" d="M 417 266 L 544 266" stroke-miterlimit="10"/></g><g transform="translate(-150,-198) scale(1,1)"><path fill="none" stroke="#000000" d="M 537 273 L 537 259" stroke-miterlimit="10"/></g><g transform="translate(-150,-198) scale(1,1)"><path fill="none" stroke="#000000" d="M 424 259 L 424 273" stroke-miterlimit="10"/></g><g transform="translate(-150,-198) scale(1,1)"><g><path fill="none" stroke="none"/><text fill="#000000" stroke="none" font-family="Courier" font-size="20px" font-style="normal" font-weight="normal" text-decoration="none" x="442" y="261"></text></g></g><g transform="translate(-150,-198) scale(1,1)"><g><path fill="none" stroke="none"/><text fill="#000000" stroke="none" font-family="Courier" font-size="20px" font-style="normal" font-weight="normal" text-decoration="none" x="518" y="261"></text></g></g></g></svg>