<svg version="1.1" xmlns="http://www.w3.org/2000/svg" xmlns:xlink="http://www.w3.org/1999/xlink" width="705.0390625" height="299"><defs/><g><g transform="translate(-182,-198) scale(1,1)"><rect fill="#fff5d8" stroke="none" x="192" y="208" width="221.03125" height="125"/></g><g transform="translate(-182,-198) scale(1,1)"><path fill="none" stroke="#000000" d="M 192 208 L 413.03125 208 L 413.03125 333 L 192 333 L 192 208 Z Z" stroke-miterlimit="10"/></g><g transform="translate(-182,-198) scale(1,1)"><path fill="none" stroke="#000000" d="M 192 238 L 413.03125 238" stroke-miterlimit="10"/></g><g transform="translate(-182,-198) scale(1,1)"><path fill="none" stroke="#000000" d="M 226.00390625 238 L 226.00390625 333" stroke-miterlimit="10"/></g><g transform="translate(-182,-198) scale(1,1)"><path fill="none" stroke="#000000" d="M 320.017578125 238 L 320.017578125 333" stroke-miterlimit="10"/></g><g transform="translate(-182,-198) scale(1,1)"><g><path fill="none" stroke="none"/><text fill="#000000" stroke="none" font-family="Courier" font-size="20px" font-style="normal" font-weight="bold" text-decoration="none" x="278.51171875" y="232.5">Post</text></g></g><g transform="translate(-182,-198) scale(1,1)"><g><path fill="none" stroke="none"/><text fill="#000000" stroke="none" font-family="Courier" font-size="20px" font-style="normal" font-weight="normal" text-decoration="none" x="197" y="263">PK</text></g></g><g transform="translate(-182,-198) scale(1,1)"><g><path fill="none" stroke="none"/><text fill="#000000" stroke="none" font-family="Courier" font-size="20px" font-style="normal" font-weight="normal" text-decoration="none" x="231.00390625" y="263">id</text></g></g><g transform="translate(-182,-198) scale(1,1)"><g><path fill="none" stroke="none"/><text fill="#000000" stroke="none" font-family="Courier" font-size="20px" font-style="normal" font-weight="normal" text-decoration="none" x="325.017578125" y="263">Integer</text></g></g><g transform="translate(-182,-198) scale(1,1)"><g><path fill="none" stroke="none"/><text fill="#000000" stroke="none" font-family="Courier" font-size="20px" font-style="normal" font-weight="normal" text-decoration="none" x="197" y="285"></text></g></g><g transform="translate(-182,-198) scale(1,1)"><g><path fill="none" stroke="none"/><text fill="#000000" stroke="none" font-family="Courier" font-size="20px" font-style="normal" font-weight="normal" text-decoration="none" x="231.00390625" y="285">title</text></g></g><g transform="translate(-182,-198) scale(1,1)"><g><path fill="none" stroke="none"/><text fill="#000000" stroke="none" font-family="Courier" font-size="20px" font-style="normal" font-weight="normal" text-decoration="none" x="325.017578125" y="285">String</text></g></g><g transform="translate(-182,-198) scale(1,1)"><g><path fill="none" stroke="none"/><text fill="#000000" stroke="none" font-family="Courier" font-size="20px" font-style="normal" font-weight="normal" text-decoration="none" x="197" y="307"></text></g></g><g transform="translate(-182,-198) scale(1,1)"><g><path fill="none" stroke="none"/><text fill="#000000" stroke="none" font-family="Courier" font-size="20px" font-style="normal" font-weight="normal" text-decoration="none" x="231.00390625" y="307">text</text></g></g><g transform="translate(-182,-198) scale(1,1)"><g><path fill="none" stroke="none"/><text fill="#000000" stroke="none" font-family="Courier" font-size="20px" font-style="normal" font-weight="normal" text-decoration="none" x="325.017578125" y="307">Text</text></g></g><g transform="translate(-182,-198) scale(1,1)"><g><path fill="none" stroke="none"/><text fill="#000000" stroke="none" font-family="Courier" font-size="20px" font-style="normal" font-weight="normal" text-decoration="none" x="197" y="329"></text></g></g><g transform="translate(-182,-198) scale(1,1)"><g><path fill="none" stroke="none"/><text fill="#000000" stroke="none" font-family="Courier" font-size="20px" font-style="normal" font-weight="normal" text-decoration="none" x="231.00390625" y="329">user_id</text></g></g><g transform="translate(-182,-198) scale(1,1)"><g><path fill="none" stroke="none"/><text fill="#000000" stroke="none" font-family="Courier" font-size="20px" font-style="normal" font-weight="normal" text-decoration="none" x="325.017578125" y="329">Integer</text></g></g><g transform="translate(-182,-198) scale(1,1)"><rect fill="#fff5d8" stroke="none" x="384" y="384" width="281.041015625" height="103"/></g><g transform="translate(-182,-198) scale(1,1)"><path fill="none" stroke="#000000" d="M 384 384 L 665.041015625 384 L 665.041015625 487 L 384 487 L 384 384 Z Z" stroke-miterlimit="10"/></g><g transform="translate(-182,-198) scale(1,1)"><path fill="none" stroke="#000000" d="M 384 414 L 665.041015625 414" stroke-miterlimit="10"/></g><g transform="translate(-182,-198) scale(1,1)"><path fill="none" stroke="#000000" d="M 418.00390625 414 L 418.00390625 487" stroke-miterlimit="10"/></g><g transform="translate(-182,-198) scale(1,1)"><path fill="none" stroke="#000000" d="M 512.017578125 414 L 512.017578125 487" stroke-miterlimit="10"/></g><g transform="translate(-182,-198) scale(1,1)"><g><path fill="none" stroke="none"/><text fill="#000000" stroke="none" font-family="Courier" font-size="20px" font-style="normal" font-weight="bold" text-decoration="none" x="482.513671875" y="408.5">PostTag</text></g></g><g transform="translate(-182,-198) scale(1,1)"><g><path fill="none" stroke="none"/><text fill="#000000" stroke="none" font-family="Courier" font-size="20px" font-style="normal" font-weight="normal" text-decoration="none" x="389" y="439">PK</text></g></g><g transform="translate(-182,-198) scale(1,1)"><g><path fill="none" stroke="none"/><text fill="#000000" stroke="none" font-family="Courier" font-size="20px" font-style="normal" font-weight="normal" text-decoration="none" x="423.00390625" y="439">id</text></g></g><g transform="translate(-182,-198) scale(1,1)"><g><path fill="none" stroke="none"/><text fill="#000000" stroke="none" font-family="Courier" font-size="20px" font-style="normal" font-weight="normal" text-decoration="none" x="517.017578125" y="439">Integer</text></g></g><g transform="translate(-182,-198) scale(1,1)"><g><path fill="none" stroke="none"/><text fill="#000000" stroke="none" font-family="Courier" font-size="20px" font-style="normal" font-weight="normal" text-decoration="none" x="389" y="461"></text></g></g><g transform="translate(-182,-198) scale(1,1)"><g><path fill="none" stroke="none"/><text fill="#000000" stroke="none" font-family="Courier" font-size="20px" font-style="normal" font-weight="normal" text-decoration="none" x="423.00390625" y="461">post_id</text></g></g><g transform="translate(-182,-198) scale(1,1)"><g><path fill="none" stroke="none"/><text fill="#000000" stroke="none" font-family="Courier" font-size="20px" font-style="normal" font-weight="normal" text-decoration="none" x="517.017578125" y="461">Integer</text></g></g><g transform="translate(-182,-198) scale(1,1)"><g><path fill="none" stroke="none"/><text fill="#000000" stroke="none" font-family="Courier" font-size="20px" font-style="normal" font-weight="normal" text-decoration="none" x="389" y="483"></text></g></g><g transform="translate(-182,-198) scale(1,1)"><g><path fill="none" stroke="none"/><text fill="#000000" stroke="none" font-family="Courier" font-size="20px" font-style="normal" font-weight="normal" text-decoration="none" x="423.00390625" y="483">tag_id</text></g></g><g transform="translate(-182,-198) scale(1,1)"><g><path fill="none" stroke="none"/><text fill="#000000" stroke="none" font-family="Courier" font-size="20px" font-style="normal" font-weight="normal" text-decoration="none" x="517.017578125" y="483">Integer</text></g></g><g transform="translate(-182,-198) scale(1,1)"><path fill="none" stroke="#000000" d="M 312 333 L 312 448 L 384 448" stroke-miterlimit="10"/></g><g transform="translate(-182,-198) scale(1,1)"><path fill="none" stroke="#000000" d="M 370 448 L 384 455" stroke-miterlimit="10"/></g><g transform="translate(-182,-198) scale(1,1)"><path fill="none" stroke="#000000" d="M 370 448 L 384 441" stroke-miterlimit="10"/></g><g transform="translate(-182,-198) scale(1,1)"><path fill="#FFFFFF" stroke="none" d="M 355 448 C 355 444.1340064 358.1340064 441 362 441 C 365.8659936 441 369 444.1340064 369 448 C 369 451.8659936 365.8659936 455 362 455 C 358.1340064 455 355 451.8659936 355 448 Z"/></g><g transform="translate(-182,-198) scale(1,1)"><path fill="none" stroke="#000000" d="M 355 448 C 355 444.1340064 358.1340064 441 362 441 C 365.8659936 441 369 444.1340064 369 448 C 369 451.8659936 365.8659936 455 362 455 C 358.1340064 455 355 451.8659936 355 448 Z" stroke-miterlimit="10"/></g><g transform="translate(-182,-198) scale(1,1)"><path fill="none" stroke="#000000" d="M 319 340 L 305 340" stroke-miterlimit="10"/></g><g transform="translate(-182,-198) scale(1,1)"><g><path fill="none" stroke="none"/><text fill="#000000" stroke="none" font-family="Courier" font-size="16px" font-style="normal" font-weight="normal" text-decoration="none" x="326.5" y="365.5"></text></g></g><g transform="translate(-182,-198) scale(1,1)"><g><path fill="none" stroke="none"/><text fill="#000000" stroke="none" font-family="Courier" font-size="16px" font-style="normal" font-weight="normal" text-decoration="none" x="357.5" y="440.5"></text></g></g><g transform="translate(-182,-198) scale(1,1)"><rect fill="#fff5d8" stroke="none" x="608" y="208" width="269.0390625" height="81"/></g><g transform="translate(-182,-198) scale(1,1)"><path fill="none" stroke="#000000" d="M 608 208 L 877.0390625 208 L 877.0390625 289 L 608 289 L 608 208 Z Z" stroke-miterlimit="10"/></g><g transform="translate(-182,-198) scale(1,1)"><path fill="none" stroke="#000000" d="M 608 238 L 877.0390625 238" stroke-miterlimit="10"/></g><g transform="translate(-182,-198) scale(1,1)"><path fill="none" stroke="#000000" d="M 642.00390625 238 L 642.00390625 289" stroke-miterlimit="10"/></g><g transform="translate(-182,-198) scale(1,1)"><path fill="none" stroke="#000000" d="M 700.01171875 238 L 700.01171875 289" stroke-miterlimit="10"/></g><g transform="translate(-182,-198) scale(1,1)"><g><path fill="none" stroke="none"/><text fill="#000000" stroke="none" font-family="Courier" font-size="20px" font-style="normal" font-weight="bold" text-decoration="none" x="724.5166015625" y="232.5">Tag</text></g></g><g transform="translate(-182,-198) scale(1,1)"><g><path fill="none" stroke="none"/><text fill="#000000" stroke="none" font-family="Courier" font-size="20px" font-style="normal" font-weight="normal" text-decoration="none" x="613" y="263">PK</text></g></g><g transform="translate(-182,-198) scale(1,1)"><g><path fill="none" stroke="none"/><text fill="#000000" stroke="none" font-family="Courier" font-size="20px" font-style="normal" font-weight="normal" text-decoration="none" x="647.00390625" y="263">id</text></g></g><g transform="translate(-182,-198) scale(1,1)"><g><path fill="none" stroke="none"/><text fill="#000000" stroke="none" font-family="Courier" font-size="20px" font-style="normal" font-weight="normal" text-decoration="none" x="705.01171875" y="263">Integer</text></g></g><g transform="translate(-182,-198) scale(1,1)"><g><path fill="none" stroke="none"/><text fill="#000000" stroke="none" font-family="Courier" font-size="20px" font-style="normal" font-weight="normal" text-decoration="none" x="613" y="285"></text></g></g><g transform="translate(-182,-198) scale(1,1)"><g><path fill="none" stroke="none"/><text fill="#000000" stroke="none" font-family="Courier" font-size="20px" font-style="normal" font-weight="normal" text-decoration="none" x="647.00390625" y="285">name</text></g></g><g transform="translate(-182,-198) scale(1,1)"><g><path fill="none" stroke="none"/><text fill="#000000" stroke="none" font-family="Courier" font-size="20px" font-style="normal" font-weight="normal" text-decoration="none" x="705.01171875" y="285">String</text></g></g><g transform="translate(-182,-198) scale(1,1)"><path fill="none" stroke="#000000" d="M 728 289 L 728 448 L 665 448" stroke-miterlimit="10"/></g><g transform="translate(-182,-198) scale(1,1)"><path fill="none" stroke="#000000" d="M 679 448 L 665 441" stroke-miterlimit="10"/></g><g transform="translate(-182,-198) scale(1,1)"><path fill="none" stroke="#000000" d="M 679 448 L 665 455" stroke-miterlimit="10"/></g><g transform="translate(-182,-198) scale(1,1)"><path fill="#FFFFFF" stroke="none" d="M 680 448 C 680 444.1340064 683.1340064 441 687 441 C 690.8659936 441 694 444.1340064 694 448 C 694 451.8659936 690.8659936 455 687 455 C 683.1340064 455 680 451.8659936 680 448 Z"/></g><g transform="translate(-182,-198) scale(1,1)"><path fill="none" stroke="#000000" d="M 680 448 C 680 444.1340064 683.1340064 441 687 441 C 690.8659936 441 694 444.1340064 694 448 C 694 451.8659936 690.8659936 455 687 455 C 683.1340064 455 680 451.8659936 680 448 Z" stroke-miterlimit="10"/></g><g transform="translate(-182,-198) scale(1,1)"><path fill="none" stroke="#000000" d="M 735 296 L 721 296" stroke-miterlimit="10"/></g><g transform="translate(-182,-198) scale(1,1)"><g><path fill="none" stroke="none"/><text fill="#000000" stroke="none" font-family="Courier" font-size="16px" font-style="normal" font-weight="normal" text-decoration="none" x="742.5" y="321.5"></text></g></g><g transform="translate(-182,-198) scale(1,1)"><g><path fill="none" stroke="none"/><text fill="#000000" stroke="none" font-family="Courier" font-size="16px" font-style="normal" font-weight="normal" text-decoration="none" x="689.5" y="469.5"></text></g></g></g></svg>