<svg version="1.1" xmlns="http://www.w3.org/2000/svg" xmlns:xlink="http://www.w3.org/1999/xlink" width="705.039" height="340"><rect fill="#fff5d8" stroke="none" x="144" y="208" width="257.037" height="147" transform="translate(-134,-198) scale(1,1)"/><path fill="none" stroke="#000" d="M 144 208 L 401.037109375 208 L 401.037109375 355 L 144 355 L 144 208 Z Z" stroke-miterlimit="10" transform="translate(-134,-198) scale(1,1)"/><path fill="none" stroke="#000" d="M 144 238 L 401.037109375 238" stroke-miterlimit="10" transform="translate(-134,-198) scale(1,1)"/><path fill="none" stroke="#000" d="M 178.00390625 238 L 178.00390625 355" stroke-miterlimit="10" transform="translate(-134,-198) scale(1,1)"/><path fill="none" stroke="#000" d="M 308.0234375 238 L 308.0234375 355" stroke-miterlimit="10" transform="translate(-134,-198) scale(1,1)"/><g><text fill="#000" stroke="none" font-family="Courier" font-size="20" font-style="normal" font-weight="bold" text-decoration="none" x="248.515" y="232.5" transform="translate(-134,-198) scale(1,1)">User</text></g><g><text fill="#000" stroke="none" font-family="Courier" font-size="20" font-style="normal" font-weight="normal" text-decoration="none" x="149" y="263" transform="translate(-134,-198) scale(1,1)">PK</text></g><g><text fill="#000" stroke="none" font-family="Courier" font-size="20" font-style="normal" font-weight="normal" text-decoration="none" x="183.004" y="263" transform="translate(-134,-198) scale(1,1)">id</text></g><g><text fill="#000" stroke="none" font-family="Courier" font-size="20" font-style="normal" font-weight="normal" text-decoration="none" x="313.023" y="263" transform="translate(-134,-198) scale(1,1)">Integer</text></g><g/><g><text fill="#000" stroke="none" font-family="Courier" font-size="20" font-style="normal" font-weight="normal" text-decoration="none" x="183.004" y="285" transform="translate(-134,-198) scale(1,1)">first_name</text></g><g><text fill="#000" stroke="none" font-family="Courier" font-size="20" font-style="normal" font-weight="normal" text-decoration="none" x="313.023" y="285" transform="translate(-134,-198) scale(1,1)">String</text></g><g/><g><text fill="#000" stroke="none" font-family="Courier" font-size="20" font-style="normal" font-weight="normal" text-decoration="none" x="183.004" y="307" transform="translate(-134,-198) scale(1,1)">last_name</text></g><g><text fill="#000" stroke="none" font-family="Courier" font-size="20" font-style="normal" font-weight="normal" text-decoration="none" x="313.023" y="307" transform="translate(-134,-198) scale(1,1)">String</text></g><g/><g><text fill="#000" stroke="none" font-family="Courier" font-size="20" font-style="normal" font-weight="normal" text-decoration="none" x="183.004" y="329" transform="translate(-134,-198) scale(1,1)">email</text></g><g><text fill="#000" stroke="none" font-family="Courier" font-size="20" font-style="normal" font-weight="normal" text-decoration="none" x="313.023" y="329" transform="translate(-134,-198) scale(1,1)">String</text></g><g/><g><text fill="#000" stroke="none" font-family="Courier" font-size="20" font-style="normal" font-weight="normal" text-decoration="none" x="183.004" y="351" transform="translate(-134,-198) scale(1,1)">password</text></g><g><text fill="#000" stroke="none" font-family="Courier" font-size="20" font-style="normal" font-weight="normal" text-decoration="none" x="313.023" y="351" transform="translate(-134,-198) scale(1,1)">String</text></g><rect fill="#fff5d8" stroke="none" x="352" y="416" width="232" height="112" transform="translate(-134,-198) scale(1,1)"/><path fill="none" stroke="#000" d="M 352 416 L 584 416 L 584 528 L 352 528 L 352 416 Z Z" stroke-miterlimit="10" transform="translate(-134,-198) scale(1,1)"/><path fill="none" stroke="#000" d="M 352 446 L 584 446" stroke-miterlimit="10" transform="translate(-134,-198) scale(1,1)"/><path fill="none" stroke="#000" d="M 386.00390625 446 L 386.00390625 528" stroke-miterlimit="10" transform="translate(-134,-198) scale(1,1)"/><path fill="none" stroke="#000" d="M 480.017578125 446 L 480.017578125 528" stroke-miterlimit="10" transform="translate(-134,-198) scale(1,1)"/><g><text fill="#000" stroke="none" font-family="Courier" font-size="20" font-style="normal" font-weight="bold" text-decoration="none" x="419.992" y="440.5" transform="translate(-134,-198) scale(1,1)">UserPlan</text></g><g><text fill="#000" stroke="none" font-family="Courier" font-size="20" font-style="normal" font-weight="normal" text-decoration="none" x="357" y="471" transform="translate(-134,-198) scale(1,1)">PK</text></g><g><text fill="#000" stroke="none" font-family="Courier" font-size="20" font-style="normal" font-weight="normal" text-decoration="none" x="391.004" y="471" transform="translate(-134,-198) scale(1,1)">id</text></g><g><text fill="#000" stroke="none" font-family="Courier" font-size="20" font-style="normal" font-weight="normal" text-decoration="none" x="485.018" y="471" transform="translate(-134,-198) scale(1,1)">Integer</text></g><g/><g><text fill="#000" stroke="none" font-family="Courier" font-size="20" font-style="normal" font-weight="normal" text-decoration="none" x="391.004" y="493" transform="translate(-134,-198) scale(1,1)">user_id</text></g><g><text fill="#000" stroke="none" font-family="Courier" font-size="20" font-style="normal" font-weight="normal" text-decoration="none" x="485.018" y="493" transform="translate(-134,-198) scale(1,1)">Integer</text></g><g/><g><text fill="#000" stroke="none" font-family="Courier" font-size="20" font-style="normal" font-weight="normal" text-decoration="none" x="391.004" y="515" transform="translate(-134,-198) scale(1,1)">plan_id</text></g><g><text fill="#000" stroke="none" font-family="Courier" font-size="20" font-style="normal" font-weight="normal" text-decoration="none" x="485.018" y="515" transform="translate(-134,-198) scale(1,1)">Integer</text></g><path fill="none" stroke="#000" d="M 264 355 L 264 480 L 352 480" stroke-miterlimit="10" transform="translate(-134,-198) scale(1,1)"/><path fill="none" stroke="#000" d="M 338 480 L 352 487" stroke-miterlimit="10" transform="translate(-134,-198) scale(1,1)"/><path fill="none" stroke="#000" d="M 338 480 L 352 473" stroke-miterlimit="10" transform="translate(-134,-198) scale(1,1)"/><path fill="#FFF" stroke="none" d="M 323 480 C 323 476.1340064 326.1340064 473 330 473 C 333.8659936 473 337 476.1340064 337 480 C 337 483.8659936 333.8659936 487 330 487 C 326.1340064 487 323 483.8659936 323 480 Z" transform="translate(-134,-198) scale(1,1)"/><path fill="none" stroke="#000" d="M 323 480 C 323 476.1340064 326.1340064 473 330 473 C 333.8659936 473 337 476.1340064 337 480 C 337 483.8659936 333.8659936 487 330 487 C 326.1340064 487 323 483.8659936 323 480 Z" stroke-miterlimit="10" transform="translate(-134,-198) scale(1,1)"/><path fill="none" stroke="#000" d="M 271 362 L 257 362" stroke-miterlimit="10" transform="translate(-134,-198) scale(1,1)"/><g/><g/><rect fill="#fff5d8" stroke="none" x="560" y="208" width="269.039" height="125" transform="translate(-134,-198) scale(1,1)"/><path fill="none" stroke="#000" d="M 560 208 L 829.0390625 208 L 829.0390625 333 L 560 333 L 560 208 Z Z" stroke-miterlimit="10" transform="translate(-134,-198) scale(1,1)"/><path fill="none" stroke="#000" d="M 560 238 L 829.0390625 238" stroke-miterlimit="10" transform="translate(-134,-198) scale(1,1)"/><path fill="none" stroke="#000" d="M 594.00390625 238 L 594.00390625 333" stroke-miterlimit="10" transform="translate(-134,-198) scale(1,1)"/><path fill="none" stroke="#000" d="M 736.025390625 238 L 736.025390625 333" stroke-miterlimit="10" transform="translate(-134,-198) scale(1,1)"/><g><text fill="#000" stroke="none" font-family="Courier" font-size="20" font-style="normal" font-weight="bold" text-decoration="none" x="670.516" y="232.5" transform="translate(-134,-198) scale(1,1)">Plan</text></g><g><text fill="#000" stroke="none" font-family="Courier" font-size="20" font-style="normal" font-weight="normal" text-decoration="none" x="565" y="263" transform="translate(-134,-198) scale(1,1)">PK</text></g><g><text fill="#000" stroke="none" font-family="Courier" font-size="20" font-style="normal" font-weight="normal" text-decoration="none" x="599.004" y="263" transform="translate(-134,-198) scale(1,1)">id</text></g><g><text fill="#000" stroke="none" font-family="Courier" font-size="20" font-style="normal" font-weight="normal" text-decoration="none" x="741.025" y="263" transform="translate(-134,-198) scale(1,1)">Integer</text></g><g/><g><text fill="#000" stroke="none" font-family="Courier" font-size="20" font-style="normal" font-weight="normal" text-decoration="none" x="599.004" y="285" transform="translate(-134,-198) scale(1,1)">name</text></g><g><text fill="#000" stroke="none" font-family="Courier" font-size="20" font-style="normal" font-weight="normal" text-decoration="none" x="741.025" y="285" transform="translate(-134,-198) scale(1,1)">String</text></g><g/><g><text fill="#000" stroke="none" font-family="Courier" font-size="20" font-style="normal" font-weight="normal" text-decoration="none" x="599.004" y="307" transform="translate(-134,-198) scale(1,1)">description</text></g><g><text fill="#000" stroke="none" font-family="Courier" font-size="20" font-style="normal" font-weight="normal" text-decoration="none" x="741.025" y="307" transform="translate(-134,-198) scale(1,1)">Text</text></g><g/><g><text fill="#000" stroke="none" font-family="Courier" font-size="20" font-style="normal" font-weight="normal" text-decoration="none" x="599.004" y="329" transform="translate(-134,-198) scale(1,1)">price</text></g><g><text fill="#000" stroke="none" font-family="Courier" font-size="20" font-style="normal" font-weight="normal" text-decoration="none" x="741.025" y="329" transform="translate(-134,-198) scale(1,1)">Decimal</text></g><path fill="none" stroke="#000" d="M 680 333 L 680 480 L 584 480" stroke-miterlimit="10" transform="translate(-134,-198) scale(1,1)"/><path fill="none" stroke="#000" d="M 591 473 L 591 487" stroke-miterlimit="10" transform="translate(-134,-198) scale(1,1)"/><path fill="none" stroke="#000" d="M 687 340 L 673 340" stroke-miterlimit="10" transform="translate(-134,-198) scale(1,1)"/><g/><g/></svg>