<svg version="1.1" xmlns="http://www.w3.org/2000/svg" xmlns:xlink="http://www.w3.org/1999/xlink" width="705.039" height="299"><rect fill="#fff5d8" stroke="none" x="192" y="208" width="221.031" height="125" transform="translate(-182,-198) scale(1,1)"/><path fill="none" stroke="#000" d="M 192 208 L 413.03125 208 L 413.03125 333 L 192 333 L 192 208 Z Z" stroke-miterlimit="10" transform="translate(-182,-198) scale(1,1)"/><path fill="none" stroke="#000" d="M 192 238 L 413.03125 238" stroke-miterlimit="10" transform="translate(-182,-198) scale(1,1)"/><path fill="none" stroke="#000" d="M 226.00390625 238 L 226.00390625 333" stroke-miterlimit="10" transform="translate(-182,-198) scale(1,1)"/><path fill="none" stroke="#000" d="M 320.017578125 238 L 320.017578125 333" stroke-miterlimit="10" transform="translate(-182,-198) scale(1,1)"/><g><text fill="#000" stroke="none" font-family="Courier" font-size="20" font-style="normal" font-weight="bold" text-decoration="none" x="278.512" y="232.5" transform="translate(-182,-198) scale(1,1)">Post</text></g><g><text fill="#000" stroke="none" font-family="Courier" font-size="20" font-style="normal" font-weight="normal" text-decoration="none" x="197" y="263" transform="translate(-182,-198) scale(1,1)">PK</text></g><g><text fill="#000" stroke="none" font-family="Courier" font-size="20" font-style="normal" font-weight="normal" text-decoration="none" x="231.004" y="263" transform="translate(-182,-198) scale(1,1)">id</text></g><g><text fill="#000" stroke="none" font-family="Courier" font-size="20" font-style="normal" font-weight="normal" text-decoration="none" x="325.018" y="263" transform="translate(-182,-198) scale(1,1)">Integer</text></g><g/><g><text fill="#000" stroke="none" font-family="Courier" font-size="20" font-style="normal" font-weight="normal" text-decoration="none" x="231.004" y="285" transform="translate(-182,-198) scale(1,1)">title</text></g><g><text fill="#000" stroke="none" font-family="Courier" font-size="20" font-style="normal" font-weight="normal" text-decoration="none" x="325.018" y="285" transform="translate(-182,-198) scale(1,1)">String</text></g><g/><g><text fill="#000" stroke="none" font-family="Courier" font-size="20" font-style="normal" font-weight="normal" text-decoration="none" x="231.004" y="307" transform="translate(-182,-198) scale(1,1)">text</text></g><g><text fill="#000" stroke="none" font-family="Courier" font-size="20" font-style="normal" font-weight="normal" text-decoration="none" x="325.018" y="307" transform="translate(-182,-198) scale(1,1)">Text</text></g><g/><g><text fill="#000" stroke="none" font-family="Courier" font-size="20" font-style="normal" font-weight="normal" text-decoration="none" x="231.004" y="329" transform="translate(-182,-198) scale(1,1)">user_id</text></g><g><text fill="#000" stroke="none" font-family="Courier" font-size="20" font-style="normal" font-weight="normal" text-decoration="none" x="325.018" y="329" transform="translate(-182,-198) scale(1,1)">Integer</text></g><rect fill="#fff5d8" stroke="none" x="384" y="384" width="281.041" height="103" transform="translate(-182,-198) scale(1,1)"/><path fill="none" stroke="#000" d="M 384 384 L 665.041015625 384 L 665.041015625 487 L 384 487 L 384 384 Z Z" stroke-miterlimit="10" transform="translate(-182,-198) scale(1,1)"/><path fill="none" stroke="#000" d="M 384 414 L 665.041015625 414" stroke-miterlimit="10" transform="translate(-182,-198) scale(1,1)"/><path fill="none" stroke="#000" d="M 418.00390625 414 L 418.00390625 487" stroke-miterlimit="10" transform="translate(-182,-198) scale(1,1)"/><path fill="none" stroke="#000" d="M 512.017578125 414 L 512.017578125 487" stroke-miterlimit="10" transform="translate(-182,-198) scale(1,1)"/><g><text fill="#000" stroke="none" font-family="Courier" font-size="20" font-style="normal" font-weight="bold" text-decoration="none" x="482.514" y="408.5" transform="translate(-182,-198) scale(1,1)">PostTag</text></g><g><text fill="#000" stroke="none" font-family="Courier" font-size="20" font-style="normal" font-weight="normal" text-decoration="none" x="389" y="439" transform="translate(-182,-198) scale(1,1)">PK</text></g><g><text fill="#000" stroke="none" font-family="Courier" font-size="20" font-style="normal" font-weight="normal" text-decoration="none" x="423.004" y="439" transform="translate(-182,-198) scale(1,1)">id</text></g><g><text fill="#000" stroke="none" font-family="Courier" font-size="20" font-style="normal" font-weight="normal" text-decoration="none" x="517.018" y="439" transform="translate(-182,-198) scale(1,1)">Integer</text></g><g/><g><text fill="#000" stroke="none" font-family="Courier" font-size="20" font-style="normal" font-weight="normal" text-decoration="none" x="423.004" y="461" transform="translate(-182,-198) scale(1,1)">post_id</text></g><g><text fill="#000" stroke="none" font-family="Courier" font-size="20" font-style="normal" font-weight="normal" text-decoration="none" x="517.018" y="461" transform="translate(-182,-198) scale(1,1)">Integer</text></g><g/><g><text fill="#000" stroke="none" font-family="Courier" font-size="20" font-style="normal" font-weight="normal" text-decoration="none" x="423.004" y="483" transform="translate(-182,-198) scale(1,1)">tag_id</text></g><g><text fill="#000" stroke="none" font-family="Courier" font-size="20" font-style="normal" font-weight="normal" text-decoration="none" x="517.018" y="483" transform="translate(-182,-198) scale(1,1)">Integer</text></g><path fill="none" stroke="#000" d="M 312 333 L 312 448 L 384 448" stroke-miterlimit="10" transform="translate(-182,-198) scale(1,1)"/><path fill="none" stroke="#000" d="M 370 448 L 384 455" stroke-miterlimit="10" transform="translate(-182,-198) scale(1,1)"/><path fill="none" stroke="#000" d="M 370 448 L 384 441" stroke-miterlimit="10" transform="translate(-182,-198) scale(1,1)"/><path fill="#FFF" stroke="none" d="M 355 448 C 355 444.1340064 358.1340064 441 362 441 C 365.8659936 441 369 444.1340064 369 448 C 369 451.8659936 365.8659936 455 362 455 C 358.1340064 455 355 451.8659936 355 448 Z" transform="translate(-182,-198) scale(1,1)"/><path fill="none" stroke="#000" d="M 355 448 C 355 444.1340064 358.1340064 441 362 441 C 365.8659936 441 369 444.1340064 369 448 C 369 451.8659936 365.8659936 455 362 455 C 358.1340064 455 355 451.8659936 355 448 Z" stroke-miterlimit="10" transform="translate(-182,-198) scale(1,1)"/><path fill="none" stroke="#000" d="M 319 340 L 305 340" stroke-miterlimit="10" transform="translate(-182,-198) scale(1,1)"/><g/><g/><rect fill="#fff5d8" stroke="none" x="608" y="208" width="269.039" height="81" transform="translate(-182,-198) scale(1,1)"/><path fill="none" stroke="#000" d="M 608 208 L 877.0390625 208 L 877.0390625 289 L 608 289 L 608 208 Z Z" stroke-miterlimit="10" transform="translate(-182,-198) scale(1,1)"/><path fill="none" stroke="#000" d="M 608 238 L 877.0390625 238" stroke-miterlimit="10" transform="translate(-182,-198) scale(1,1)"/><path fill="none" stroke="#000" d="M 642.00390625 238 L 642.00390625 289" stroke-miterlimit="10" transform="translate(-182,-198) scale(1,1)"/><path fill="none" stroke="#000" d="M 700.01171875 238 L 700.01171875 289" stroke-miterlimit="10" transform="translate(-182,-198) scale(1,1)"/><g><text fill="#000" stroke="none" font-family="Courier" font-size="20" font-style="normal" font-weight="bold" text-decoration="none" x="724.517" y="232.5" transform="translate(-182,-198) scale(1,1)">Tag</text></g><g><text fill="#000" stroke="none" font-family="Courier" font-size="20" font-style="normal" font-weight="normal" text-decoration="none" x="613" y="263" transform="translate(-182,-198) scale(1,1)">PK</text></g><g><text fill="#000" stroke="none" font-family="Courier" font-size="20" font-style="normal" font-weight="normal" text-decoration="none" x="647.004" y="263" transform="translate(-182,-198) scale(1,1)">id</text></g><g><text fill="#000" stroke="none" font-family="Courier" font-size="20" font-style="normal" font-weight="normal" text-decoration="none" x="705.012" y="263" transform="translate(-182,-198) scale(1,1)">Integer</text></g><g/><g><text fill="#000" stroke="none" font-family="Courier" font-size="20" font-style="normal" font-weight="normal" text-decoration="none" x="647.004" y="285" transform="translate(-182,-198) scale(1,1)">name</text></g><g><text fill="#000" stroke="none" font-family="Courier" font-size="20" font-style="normal" font-weight="normal" text-decoration="none" x="705.012" y="285" transform="translate(-182,-198) scale(1,1)">String</text></g><path fill="none" stroke="#000" d="M 728 289 L 728 448 L 665 448" stroke-miterlimit="10" transform="translate(-182,-198) scale(1,1)"/><path fill="none" stroke="#000" d="M 679 448 L 665 441" stroke-miterlimit="10" transform="translate(-182,-198) scale(1,1)"/><path fill="none" stroke="#000" d="M 679 448 L 665 455" stroke-miterlimit="10" transform="translate(-182,-198) scale(1,1)"/><path fill="#FFF" stroke="none" d="M 680 448 C 680 444.1340064 683.1340064 441 687 441 C 690.8659936 441 694 444.1340064 694 448 C 694 451.8659936 690.8659936 455 687 455 C 683.1340064 455 680 451.8659936 680 448 Z" transform="translate(-182,-198) scale(1,1)"/><path fill="none" stroke="#000" d="M 680 448 C 680 444.1340064 683.1340064 441 687 441 C 690.8659936 441 694 444.1340064 694 448 C 694 451.8659936 690.8659936 455 687 455 C 683.1340064 455 680 451.8659936 680 448 Z" stroke-miterlimit="10" transform="translate(-182,-198) scale(1,1)"/><path fill="none" stroke="#000" d="M 735 296 L 721 296" stroke-miterlimit="10" transform="translate(-182,-198) scale(1,1)"/><g/><g/></svg>