<svg version="1.1" xmlns="http://www.w3.org/2000/svg" xmlns:xlink="http://www.w3.org/1999/xlink" width="705.039" height="353"><rect fill="#fff5d8" stroke="none" x="144" y="208" width="257.037" height="147" transform="translate(-134,-198) scale(1,1)"/><path fill="none" stroke="#000" d="M 144 208 L 401.037109375 208 L 401.037109375 355 L 144 355 L 144 208 Z Z" stroke-miterlimit="10" transform="translate(-134,-198) scale(1,1)"/><path fill="none" stroke="#000" d="M 144 238 L 401.037109375 238" stroke-miterlimit="10" transform="translate(-134,-198) scale(1,1)"/><path fill="none" stroke="#000" d="M 178.00390625 238 L 178.00390625 355" stroke-miterlimit="10" transform="translate(-134,-198) scale(1,1)"/><path fill="none" stroke="#000" d="M 308.0234375 238 L 308.0234375 355" stroke-miterlimit="10" transform="translate(-134,-198) scale(1,1)"/><g><text fill="#000" stroke="none" font-family="Courier" font-size="20" font-style="normal" font-weight="bold" text-decoration="none" x="248.515" y="232.5" transform="translate(-134,-198) scale(1,1)">User</text></g><g><text fill="#000" stroke="none" font-family="Courier" font-size="20" font-style="normal" font-weight="normal" text-decoration="none" x="149" y="263" transform="translate(-134,-198) scale(1,1)">PK</text></g><g><text fill="#000" stroke="none" font-family="Courier" font-size="20" font-style="normal" font-weight="normal" text-decoration="none" x="183.004" y="263" transform="translate(-134,-198) scale(1,1)">id</text></g><g><text fill="#000" stroke="none" font-family="Courier" font-size="20" font-style="normal" font-weight="normal" text-decoration="none" x="313.023" y="263" transform="translate(-134,-198) scale(1,1)">Integer</text></g><g/><g><text fill="#000" stroke="none" font-family="Courier" font-size="20" font-style="normal" font-weight="normal" text-decoration="none" x="183.004" y="285" transform="translate(-134,-198) scale(1,1)">first_name</text></g><g><text fill="#000" stroke="none" font-family="Courier" font-size="20" font-style="normal" font-weight="normal" text-decoration="none" x="313.023" y="285" transform="translate(-134,-198) scale(1,1)">String</text></g><g/><g><text fill="#000" stroke="none" font-family="Courier" font-size="20" font-style="normal" font-weight="normal" text-decoration="none" x="183.004" y="307" transform="translate(-134,-198) scale(1,1)">last_name</text></g><g><text fill="#000" stroke="none" font-family="Courier" font-size="20" font-style="normal" font-weight="normal" text-decoration="none" x="313.023" y="307" transform="translate(-134,-198) scale(1,1)">String</text></g><g/><g><text fill="#000" stroke="none" font-family="Courier" font-size="20" font-style="normal" font-weight="normal" text-decoration="none" x="183.004" y="329" transform="translate(-134,-198) scale(1,1)">email</text></g><g><text fill="#000" stroke="none" font-family="Courier" font-size="20" font-style="normal" font-weight="normal" text-decoration="none" x="313.023" y="329" transform="translate(-134,-198) scale(1,1)">String</text></g><g/><g><text fill="#000" stroke="none" font-family="Courier" font-size="20" font-style="normal" font-weight="normal" text-decoration="none" x="183.004" y="351" transform="translate(-134,-198) scale(1,1)">password</text></g><g><text fill="#000" stroke="none" font-family="Courier" font-size="20" font-style="normal" font-weight="normal" text-decoration="none" x="313.023" y="351" transform="translate(-134,-198) scale(1,1)">String</text></g><rect fill="#fff5d8" stroke="none" x="336" y="416" width="281.041" height="125" transform="translate(-134,-198) scale(1,1)"/><path fill="none" stroke="#000" d="M 336 416 L 617.041015625 416 L 617.041015625 541 L 336 541 L 336 416 Z Z" stroke-miterlimit="10" transform="translate(-134,-198) scale(1,1)"/><path fill="none" stroke="#000" d="M 336 446 L 617.041015625 446" stroke-miterlimit="10" transform="translate(-134,-198) scale(1,1)"/><path fill="none" stroke="#000" d="M 370.00390625 446 L 370.00390625 541" stroke-miterlimit="10" transform="translate(-134,-198) scale(1,1)"/><path fill="none" stroke="#000" d="M 524.02734375 446 L 524.02734375 541" stroke-miterlimit="10" transform="translate(-134,-198) scale(1,1)"/><g><text fill="#000" stroke="none" font-family="Courier" font-size="20" font-style="normal" font-weight="bold" text-decoration="none" x="404.509" y="440.5" transform="translate(-134,-198) scale(1,1)">Subscription</text></g><g><text fill="#000" stroke="none" font-family="Courier" font-size="20" font-style="normal" font-weight="normal" text-decoration="none" x="341" y="471" transform="translate(-134,-198) scale(1,1)">PK</text></g><g><text fill="#000" stroke="none" font-family="Courier" font-size="20" font-style="normal" font-weight="normal" text-decoration="none" x="375.004" y="471" transform="translate(-134,-198) scale(1,1)">id</text></g><g><text fill="#000" stroke="none" font-family="Courier" font-size="20" font-style="normal" font-weight="normal" text-decoration="none" x="529.027" y="471" transform="translate(-134,-198) scale(1,1)">Integer</text></g><g/><g><text fill="#000" stroke="none" font-family="Courier" font-size="20" font-style="normal" font-weight="normal" text-decoration="none" x="375.004" y="493" transform="translate(-134,-198) scale(1,1)">user_id</text></g><g><text fill="#000" stroke="none" font-family="Courier" font-size="20" font-style="normal" font-weight="normal" text-decoration="none" x="529.027" y="493" transform="translate(-134,-198) scale(1,1)">Integer</text></g><g/><g><text fill="#000" stroke="none" font-family="Courier" font-size="20" font-style="normal" font-weight="normal" text-decoration="none" x="375.004" y="515" transform="translate(-134,-198) scale(1,1)">blog_id</text></g><g><text fill="#000" stroke="none" font-family="Courier" font-size="20" font-style="normal" font-weight="normal" text-decoration="none" x="529.027" y="515" transform="translate(-134,-198) scale(1,1)">Integer</text></g><g/><g><text fill="#000" stroke="none" font-family="Courier" font-size="20" font-style="normal" font-weight="normal" text-decoration="none" x="375.004" y="537" transform="translate(-134,-198) scale(1,1)">receive_news</text></g><g><text fill="#000" stroke="none" font-family="Courier" font-size="20" font-style="normal" font-weight="normal" text-decoration="none" x="529.027" y="537" transform="translate(-134,-198) scale(1,1)">Boolean</text></g><path fill="none" stroke="#000" d="M 264 355 L 264 480 L 336 480" stroke-miterlimit="10" transform="translate(-134,-198) scale(1,1)"/><path fill="none" stroke="#000" d="M 322 480 L 336 487" stroke-miterlimit="10" transform="translate(-134,-198) scale(1,1)"/><path fill="none" stroke="#000" d="M 322 480 L 336 473" stroke-miterlimit="10" transform="translate(-134,-198) scale(1,1)"/><path fill="#FFF" stroke="none" d="M 307 480 C 307 476.1340064 310.1340064 473 314 473 C 317.8659936 473 321 476.1340064 321 480 C 321 483.8659936 317.8659936 487 314 487 C 310.1340064 487 307 483.8659936 307 480 Z" transform="translate(-134,-198) scale(1,1)"/><path fill="none" stroke="#000" d="M 307 480 C 307 476.1340064 310.1340064 473 314 473 C 317.8659936 473 321 476.1340064 321 480 C 321 483.8659936 317.8659936 487 314 487 C 310.1340064 487 307 483.8659936 307 480 Z" stroke-miterlimit="10" transform="translate(-134,-198) scale(1,1)"/><path fill="none" stroke="#000" d="M 271 362 L 257 362" stroke-miterlimit="10" transform="translate(-134,-198) scale(1,1)"/><g/><g/><rect fill="#fff5d8" stroke="none" x="560" y="208" width="269.039" height="103" transform="translate(-134,-198) scale(1,1)"/><path fill="none" stroke="#000" d="M 560 208 L 829.0390625 208 L 829.0390625 311 L 560 311 L 560 208 Z Z" stroke-miterlimit="10" transform="translate(-134,-198) scale(1,1)"/><path fill="none" stroke="#000" d="M 560 238 L 829.0390625 238" stroke-miterlimit="10" transform="translate(-134,-198) scale(1,1)"/><path fill="none" stroke="#000" d="M 594.00390625 238 L 594.00390625 311" stroke-miterlimit="10" transform="translate(-134,-198) scale(1,1)"/><path fill="none" stroke="#000" d="M 736.025390625 238 L 736.025390625 311" stroke-miterlimit="10" transform="translate(-134,-198) scale(1,1)"/><g><text fill="#000" stroke="none" font-family="Courier" font-size="20" font-style="normal" font-weight="bold" text-decoration="none" x="670.516" y="232.5" transform="translate(-134,-198) scale(1,1)">Blog</text></g><g><text fill="#000" stroke="none" font-family="Courier" font-size="20" font-style="normal" font-weight="normal" text-decoration="none" x="565" y="263" transform="translate(-134,-198) scale(1,1)">PK</text></g><g><text fill="#000" stroke="none" font-family="Courier" font-size="20" font-style="normal" font-weight="normal" text-decoration="none" x="599.004" y="263" transform="translate(-134,-198) scale(1,1)">id</text></g><g><text fill="#000" stroke="none" font-family="Courier" font-size="20" font-style="normal" font-weight="normal" text-decoration="none" x="741.025" y="263" transform="translate(-134,-198) scale(1,1)">Integer</text></g><g/><g><text fill="#000" stroke="none" font-family="Courier" font-size="20" font-style="normal" font-weight="normal" text-decoration="none" x="599.004" y="285" transform="translate(-134,-198) scale(1,1)">title</text></g><g><text fill="#000" stroke="none" font-family="Courier" font-size="20" font-style="normal" font-weight="normal" text-decoration="none" x="741.025" y="285" transform="translate(-134,-198) scale(1,1)">String</text></g><g/><g><text fill="#000" stroke="none" font-family="Courier" font-size="20" font-style="normal" font-weight="normal" text-decoration="none" x="599.004" y="307" transform="translate(-134,-198) scale(1,1)">description</text></g><g><text fill="#000" stroke="none" font-family="Courier" font-size="20" font-style="normal" font-weight="normal" text-decoration="none" x="741.025" y="307" transform="translate(-134,-198) scale(1,1)">Text</text></g><path fill="none" stroke="#000" d="M 680 311 L 680 480 L 617 480" stroke-miterlimit="10" transform="translate(-134,-198) scale(1,1)"/><path fill="none" stroke="#000" d="M 631 480 L 617 473" stroke-miterlimit="10" transform="translate(-134,-198) scale(1,1)"/><path fill="none" stroke="#000" d="M 631 480 L 617 487" stroke-miterlimit="10" transform="translate(-134,-198) scale(1,1)"/><path fill="#FFF" stroke="none" d="M 632 480 C 632 476.1340064 635.1340064 473 639 473 C 642.8659936 473 646 476.1340064 646 480 C 646 483.8659936 642.8659936 487 639 487 C 635.1340064 487 632 483.8659936 632 480 Z" transform="translate(-134,-198) scale(1,1)"/><path fill="none" stroke="#000" d="M 632 480 C 632 476.1340064 635.1340064 473 639 473 C 642.8659936 473 646 476.1340064 646 480 C 646 483.8659936 642.8659936 487 639 487 C 635.1340064 487 632 483.8659936 632 480 Z" stroke-miterlimit="10" transform="translate(-134,-198) scale(1,1)"/><path fill="none" stroke="#000" d="M 687 318 L 673 318" stroke-miterlimit="10" transform="translate(-134,-198) scale(1,1)"/><g/><g/></svg>