<svg width="119pt" height="288" viewBox="0.00 0.00 118.99 216.00" xmlns="http://www.w3.org/2000/svg" xmlns:xlink="http://www.w3.org/1999/xlink"><g id="graph0" class="graph" transform="scale(0.406688 0.406688) rotate(0) translate(4 527.119)"><title>d</title><g id="node1" class="node"><title>basic_object</title><path fill="#fff8dc" stroke="#000" d="M179.164,-523.213C179.164,-523.213 11.9453,-523.213 11.9453,-523.213 5.94528,-523.213 -0.0547188,-517.213 -0.0547188,-511.213 -0.0547188,-511.213 -0.0547188,-477.839 -0.0547188,-477.839 -0.0547188,-471.839 5.94528,-465.839 11.9453,-465.839 11.9453,-465.839 179.164,-465.839 179.164,-465.839 185.164,-465.839 191.164,-471.839 191.164,-477.839 191.164,-477.839 191.164,-511.213 191.164,-511.213 191.164,-517.213 185.164,-523.213 179.164,-523.213"/><text text-anchor="middle" x="95.555" y="-488.319" font-family="Gotham Pro" font-size="26">Basic Object</text></g><g id="node2" class="node"><title>kernel_bg</title><path fill="#fff8dc" stroke="#000" stroke-dasharray="5,2" d="M144.095,-430.026C144.095,-430.026 47.0148,-430.026 47.0148,-430.026 41.0148,-430.026 35.0148,-424.026 35.0148,-418.026 35.0148,-418.026 35.0148,-384.653 35.0148,-384.653 35.0148,-378.653 41.0148,-372.653 47.0148,-372.653 47.0148,-372.653 144.095,-372.653 144.095,-372.653 150.095,-372.653 156.095,-378.653 156.095,-384.653 156.095,-384.653 156.095,-418.026 156.095,-418.026 156.095,-424.026 150.095,-430.026 144.095,-430.026"/><text text-anchor="middle" x="95.555" y="-395.133" font-family="Gotham Pro" font-size="26" fill="#fff8dc">______</text></g><g id="edge1" class="edge"><title>basic_object-&gt;kernel_bg:n</title><path fill="none" stroke="#000" d="M95.5547,-455.648C95.5547,-447.185 95.5547,-438.253 95.5547,-429.933"/><polygon fill="#000" stroke="#000" points="92.0548,-455.666 95.5547,-465.666 99.0548,-455.666 92.0548,-455.666"/></g><g id="node4" class="node"><title>object</title><path fill="#fff8dc" stroke="#000" d="M140.954,-336.84C140.954,-336.84 50.1552,-336.84 50.1552,-336.84 44.1552,-336.84 38.1552,-330.84 38.1552,-324.84 38.1552,-324.84 38.1552,-291.466 38.1552,-291.466 38.1552,-285.466 44.1552,-279.466 50.1552,-279.466 50.1552,-279.466 140.954,-279.466 140.954,-279.466 146.954,-279.466 152.954,-285.466 152.954,-291.466 152.954,-291.466 152.954,-324.84 152.954,-324.84 152.954,-330.84 146.954,-336.84 140.954,-336.84"/><text text-anchor="middle" x="95.555" y="-301.946" font-family="Gotham Pro" font-size="26">Object</text></g><g id="edge2" class="edge"><title>kernel_bg-&gt;object:n</title><path fill="none" stroke="#000" d="M95.5547,-362.462C95.5547,-353.998 95.5547,-345.066 95.5547,-336.746"/><polygon fill="#000" stroke="#000" points="92.0548,-362.479 95.5547,-372.48 99.0548,-362.48 92.0548,-362.479"/></g><g id="node3" class="node"><title>kernel</title><path fill="#fff8dc" stroke="#000" d="M272.605,-430.026C272.605,-430.026 186.505,-430.026 186.505,-430.026 180.505,-430.026 174.505,-424.026 174.505,-418.026 174.505,-418.026 174.505,-384.653 174.505,-384.653 174.505,-378.653 180.505,-372.653 186.505,-372.653 186.505,-372.653 272.605,-372.653 272.605,-372.653 278.605,-372.653 284.605,-378.653 284.605,-384.653 284.605,-384.653 284.605,-418.026 284.605,-418.026 284.605,-424.026 278.605,-430.026 272.605,-430.026"/><text text-anchor="middle" x="229.555" y="-395.133" font-family="Gotham Pro" font-size="26">Kernel</text></g><g id="node5" class="node"><title>m_bg</title><path fill="#fff8dc" stroke="#000" stroke-dasharray="5,2" d="M110.555,-243.653C110.555,-243.653 80.5547,-243.653 80.5547,-243.653 74.5547,-243.653 68.5547,-237.653 68.5547,-231.653 68.5547,-231.653 68.5547,-198.279 68.5547,-198.279 68.5547,-192.279 74.5547,-186.279 80.5547,-186.279 80.5547,-186.279 110.555,-186.279 110.555,-186.279 116.555,-186.279 122.555,-192.279 122.555,-198.279 122.555,-198.279 122.555,-231.653 122.555,-231.653 122.555,-237.653 116.555,-243.653 110.555,-243.653"/><text text-anchor="middle" x="95.555" y="-208.76" font-family="Gotham Pro" font-size="26" fill="#fff8dc">_</text></g><g id="edge3" class="edge"><title>object-&gt;m_bg:n</title><path fill="none" stroke="#000" d="M95.5547,-269.275C95.5547,-260.812 95.5547,-251.88 95.5547,-243.56"/><polygon fill="#000" stroke="#000" points="92.0548,-269.293 95.5547,-279.293 99.0548,-269.293 92.0548,-269.293"/></g><g id="node7" class="node"><title>c</title><path fill="#fff8dc" stroke="#000" d="M110.555,-150.467C110.555,-150.467 80.5547,-150.467 80.5547,-150.467 74.5547,-150.467 68.5547,-144.467 68.5547,-138.467 68.5547,-138.467 68.5547,-105.093 68.5547,-105.093 68.5547,-99.093 74.5547,-93.093 80.5547,-93.093 80.5547,-93.093 110.555,-93.093 110.555,-93.093 116.555,-93.093 122.555,-99.093 122.555,-105.093 122.555,-105.093 122.555,-138.467 122.555,-138.467 122.555,-144.467 116.555,-150.467 110.555,-150.467"/><text text-anchor="middle" x="95.555" y="-115.573" font-family="Gotham Pro" font-size="26">C</text></g><g id="edge4" class="edge"><title>m_bg-&gt;c:n</title><path fill="none" stroke="#000" d="M95.5547,-176.089C95.5547,-167.625 95.5547,-158.693 95.5547,-150.373"/><polygon fill="#000" stroke="#000" points="92.0548,-176.106 95.5547,-186.106 99.0548,-176.107 92.0548,-176.106"/></g><g id="node6" class="node"><title>m</title><path fill="#fff8dc" stroke="#000" d="M182.555,-243.653C182.555,-243.653 152.555,-243.653 152.555,-243.653 146.555,-243.653 140.555,-237.653 140.555,-231.653 140.555,-231.653 140.555,-198.279 140.555,-198.279 140.555,-192.279 146.555,-186.279 152.555,-186.279 152.555,-186.279 182.555,-186.279 182.555,-186.279 188.555,-186.279 194.555,-192.279 194.555,-198.279 194.555,-198.279 194.555,-231.653 194.555,-231.653 194.555,-237.653 188.555,-243.653 182.555,-243.653"/><text text-anchor="middle" x="167.555" y="-208.76" font-family="Gotham Pro" font-size="26">M</text></g><g id="node8" class="node"><title>d</title><path fill="#fff8dc" stroke="#000" d="M110.555,-57.2801C110.555,-57.2801 80.5547,-57.2801 80.5547,-57.2801 74.5547,-57.2801 68.5547,-51.2801 68.5547,-45.2801 68.5547,-45.2801 68.5547,-11.9064 68.5547,-11.9064 68.5547,-5.90643 74.5547,0.0935669 80.5547,0.0935669 80.5547,0.0935669 110.555,0.0935669 110.555,0.0935669 116.555,0.0935669 122.555,-5.90643 122.555,-11.9064 122.555,-11.9064 122.555,-45.2801 122.555,-45.2801 122.555,-51.2801 116.555,-57.2801 110.555,-57.2801"/><text text-anchor="middle" x="95.555" y="-22.387" font-family="Gotham Pro" font-size="26">D</text></g><g id="edge5" class="edge"><title>c-&gt;d:n</title><path fill="none" stroke="#000" d="M95.5547,-82.9021C95.5547,-74.4389 95.5547,-65.5066 95.5547,-57.1865"/><polygon fill="#000" stroke="#000" points="92.0548,-82.9199 95.5547,-92.9199 99.0548,-82.92 92.0548,-82.9199"/></g></g></svg>