<svg xmlns="http://www.w3.org/2000/svg" width="576" height="540" viewBox="0 0 576 540"><title>mvc</title><rect width="115.2" height="28.8" rx="3" ry="3" style="fill:#f7931e"/><rect y="43.2" width="230.4" height="43.2" rx="3" ry="3" style="fill:#c1272d"/><rect x="345.6" y="43.2" width="230.4" height="43.2" rx="3" ry="3" style="fill:#009245"/><rect x="172.8" y="172.8" width="230.4" height="43.2" rx="3" ry="3" style="fill:#0071bc"/><rect x="172.8" y="374.4" width="230.4" height="43.2" rx="3" ry="3" style="fill:#a67c52"/><rect x="172.8" y="331.2" width="115.2" height="28.8" rx="3" ry="3" style="fill:#a67c52"/><rect x="172.8" y="288" width="115.2" height="28.8" rx="3" ry="3" style="fill:#a67c52"/><rect x="172.8" y="489.6" width="230.4" height="43.2" rx="3" ry="3" style="fill:gray"/><path d="M12.65,6.73q.81-.15,1.78-.24t1.93-.09a12.52,12.52,0,0,1,2,.16,5,5,0,0,1,1.81.65,3.79,3.79,0,0,1,1.32,1.36A4.49,4.49,0,0,1,22,10.86,4.72,4.72,0,0,1,21.56,13a4.09,4.09,0,0,1-1.17,1.43,4.72,4.72,0,0,1-1.66.81,7.42,7.42,0,0,1-1.93.25h-.75l-.45,0-.32,0V20H12.65Zm3.92,1.94c-.26,0-.5,0-.73,0l-.56.07v4.36l.23,0,.33,0h.58a5.53,5.53,0,0,0,1-.1,2.54,2.54,0,0,0,.91-.36A1.85,1.85,0,0,0,19,12a2.62,2.62,0,0,0,.24-1.21,2.13,2.13,0,0,0-.23-1,1.89,1.89,0,0,0-.6-.66,2.37,2.37,0,0,0-.85-.35A5,5,0,0,0,16.57,8.67Z" style="fill:#fff"/><path d="M22.43,15.24a5.4,5.4,0,0,1,1.19-3.75A4.28,4.28,0,0,1,27,10.17a5,5,0,0,1,2,.36,3.73,3.73,0,0,1,1.4,1,4.39,4.39,0,0,1,.84,1.6,7.29,7.29,0,0,1,.28,2.07A5.43,5.43,0,0,1,30.29,19,4.25,4.25,0,0,1,27,20.3a5,5,0,0,1-2-.37,3.81,3.81,0,0,1-1.41-1,4.3,4.3,0,0,1-.84-1.6A7.27,7.27,0,0,1,22.43,15.24Zm2.57,0a5.56,5.56,0,0,0,.12,1.17,3.27,3.27,0,0,0,.35.94,1.67,1.67,0,0,0,.6.62,1.72,1.72,0,0,0,.89.22,1.64,1.64,0,0,0,1.46-.71,4.1,4.1,0,0,0,.48-2.25,4.5,4.5,0,0,0-.44-2.14,1.56,1.56,0,0,0-1.5-.82,1.7,1.7,0,0,0-1.44.69A3.84,3.84,0,0,0,25,15.24Z" style="fill:#fff"/><path d="M37.17,17.39a.72.72,0,0,0-.33-.61,4,4,0,0,0-.81-.42L35,16a4,4,0,0,1-1.06-.56,3,3,0,0,1-.81-.9,2.72,2.72,0,0,1-.33-1.41,2.75,2.75,0,0,1,.84-2.17,3.56,3.56,0,0,1,2.44-.75,7.83,7.83,0,0,1,2,.23,5.73,5.73,0,0,1,1.38.52l-.56,1.8q-.44-.17-1.11-.36a5,5,0,0,0-1.36-.19q-1.11,0-1.11.86a.64.64,0,0,0,.33.56,4.28,4.28,0,0,0,.81.39l1.06.39a4.6,4.6,0,0,1,1.06.55,2.87,2.87,0,0,1,.81.87,2.63,2.63,0,0,1,.33,1.38,2.93,2.93,0,0,1-.93,2.29,4.07,4.07,0,0,1-2.79.84A6.82,6.82,0,0,1,34,20a5.88,5.88,0,0,1-1.45-.6l.69-1.86a6.65,6.65,0,0,0,1.17.49,4.76,4.76,0,0,0,1.5.24,1.66,1.66,0,0,0,.89-.21A.77.77,0,0,0,37.17,17.39Z" style="fill:#fff"/><path d="M40.3,10.44h1.32V8.63l2.5-.71v2.52h2.34v2.11H44.12v3.69a3.66,3.66,0,0,0,.2,1.43.76.76,0,0,0,.76.43,2.51,2.51,0,0,0,.66-.08,4.46,4.46,0,0,0,.62-.23l.44,1.92a6.34,6.34,0,0,1-1.21.42,5.75,5.75,0,0,1-1.4.17,2.52,2.52,0,0,1-1.95-.68,3.27,3.27,0,0,1-.62-2.24V12.55H40.3Z" style="fill:#fff"/><path d="M56,20a3.88,3.88,0,0,1-1.13,3.08,4.66,4.66,0,0,1-3.17,1,9.73,9.73,0,0,1-2.18-.19,5.48,5.48,0,0,1-1.2-.4l.52-2q.44.17,1,.35a5.19,5.19,0,0,0,1.45.17,2.23,2.23,0,0,0,1.78-.57,2.41,2.41,0,0,0,.47-1.58v-.61h-.08a2.79,2.79,0,0,1-2.38.9A3.32,3.32,0,0,1,48.35,19a5.8,5.8,0,0,1-.91-3.61,5.54,5.54,0,0,1,1.23-3.9,4.63,4.63,0,0,1,3.57-1.33,12.61,12.61,0,0,1,2.2.17,9.22,9.22,0,0,1,1.58.4ZM51.8,18.19a1.71,1.71,0,0,0,1.12-.33,2.06,2.06,0,0,0,.6-1V12.57a3.84,3.84,0,0,0-1.48-.25,1.76,1.76,0,0,0-1.5.72A3.87,3.87,0,0,0,50,15.33a4,4,0,0,0,.46,2.13A1.48,1.48,0,0,0,51.8,18.19Z" style="fill:#fff"/><path d="M63.49,12.78a3.26,3.26,0,0,0-1.08-.21,1.76,1.76,0,0,0-1.12.35,1.71,1.71,0,0,0-.6.91V20h-2.5v-9.6h1.94l.29,1.27h.08a2.62,2.62,0,0,1,.88-1.09,2.24,2.24,0,0,1,1.31-.38,3.64,3.64,0,0,1,1.13.21Z" style="fill:#fff"/><path d="M72.61,19.21A4.89,4.89,0,0,1,71,20a6.86,6.86,0,0,1-2.1.32A4.08,4.08,0,0,1,65.55,19a5.82,5.82,0,0,1-1.08-3.71,5.32,5.32,0,0,1,1.21-3.8,4.47,4.47,0,0,1,3.4-1.27,5.29,5.29,0,0,1,1.42.19,3.31,3.31,0,0,1,1.23.63,3.12,3.12,0,0,1,.86,1.19A4.68,4.68,0,0,1,72.92,14a8.44,8.44,0,0,1,0,.86q0,.46-.14,1H67a2.82,2.82,0,0,0,.62,1.82,2.39,2.39,0,0,0,1.83.61,4.08,4.08,0,0,0,2.36-.73Zm-3.57-7a1.75,1.75,0,0,0-1.45.59A2.9,2.9,0,0,0,67,14.31H70.6a2.42,2.42,0,0,0-.32-1.59A1.41,1.41,0,0,0,69,12.16Z" style="fill:#fff"/><path d="M80.54,16.43a1.25,1.25,0,0,0-.45-1,5,5,0,0,0-1.13-.7q-.68-.32-1.48-.65A7.57,7.57,0,0,1,76,13.25,4.21,4.21,0,0,1,74.87,12a3.49,3.49,0,0,1-.45-1.86,4.08,4.08,0,0,1,.33-1.7,3.2,3.2,0,0,1,.93-1.2,4,4,0,0,1,1.43-.71A6.86,6.86,0,0,1,79,6.33a11.57,11.57,0,0,1,2.21.2,5.61,5.61,0,0,1,1.71.59L82,9.32a4.63,4.63,0,0,0-1.27-.49A7.2,7.2,0,0,0,79,8.61,2.33,2.33,0,0,0,77.54,9,1.16,1.16,0,0,0,77,10a1.21,1.21,0,0,0,.45,1,5.19,5.19,0,0,0,1.13.71q.68.33,1.48.67a7.93,7.93,0,0,1,1.48.84,4.25,4.25,0,0,1,1.13,1.21,3.32,3.32,0,0,1,.45,1.8A4.43,4.43,0,0,1,82.82,18a3.51,3.51,0,0,1-1,1.3,4.21,4.21,0,0,1-1.56.77,7.58,7.58,0,0,1-2,.25A10.69,10.69,0,0,1,75.72,20a7.74,7.74,0,0,1-1.61-.54L75,17.25a5.2,5.2,0,0,0,.55.25,7.18,7.18,0,0,0,.76.25,8.77,8.77,0,0,0,.89.19,6,6,0,0,0,1,.08,3.38,3.38,0,0,0,1.79-.39A1.32,1.32,0,0,0,80.54,16.43Z" style="fill:#fff"/><path d="M84.5,13.31A8,8,0,0,1,86,8.14,5.14,5.14,0,0,1,90.2,6.33a5.92,5.92,0,0,1,2.52.5A4.74,4.74,0,0,1,94.5,8.25a6.21,6.21,0,0,1,1.06,2.21,11,11,0,0,1,.35,2.86,8,8,0,0,1-1.49,5.17A5.14,5.14,0,0,1,90.2,20.3a6,6,0,0,1-2.53-.5,4.65,4.65,0,0,1-1.78-1.42,6.3,6.3,0,0,1-1-2.21A11,11,0,0,1,84.5,13.31Zm2.77,0a9.45,9.45,0,0,0,.17,1.87A4.82,4.82,0,0,0,88,16.66a2.68,2.68,0,0,0,.91,1A2.46,2.46,0,0,0,90.2,18a2.5,2.5,0,0,0,2.17-1.09,6.33,6.33,0,0,0,.77-3.55A9.66,9.66,0,0,0,93,11.49,5.09,5.09,0,0,0,92.47,10a2.65,2.65,0,0,0-.9-1A2.7,2.7,0,0,0,88,9.79,6.35,6.35,0,0,0,87.26,13.31Zm10,10.6a7.05,7.05,0,0,1-1.86.25,8.85,8.85,0,0,1-1.9-.2q-.92-.2-1.79-.43L90,23.1a6.28,6.28,0,0,0-1.52-.2,3.34,3.34,0,0,0-.88.12V20.75a5.31,5.31,0,0,1,1.11-.12,6.93,6.93,0,0,1,1.6.19l1.62.41q.83.22,1.69.41a8.51,8.51,0,0,0,1.82.19,8.08,8.08,0,0,0,.86,0,6.7,6.7,0,0,0,.9-.16Z" style="fill:#fff"/><path d="M106.29,20H97.79V6.6h2.63v11.1h5.88Z" style="fill:#fff"/><path d="M101.24,63.47l.29-2.67h-.12l-.83,2.15-2.86,5h-.84l-3-5L93,60.8h-.1l.38,2.65v7h-2.5V57h2.4l3.59,6.14.63,1.54h.08l.58-1.57,3.4-6.11h2.38V70.44h-2.63Z" style="fill:#fff"/><path d="M105.66,65.64a5.4,5.4,0,0,1,1.19-3.75,4.28,4.28,0,0,1,3.34-1.31,5,5,0,0,1,2,.36,3.73,3.73,0,0,1,1.4,1,4.39,4.39,0,0,1,.84,1.6,7.29,7.29,0,0,1,.28,2.07,5.43,5.43,0,0,1-1.18,3.75,4.25,4.25,0,0,1-3.33,1.32,5,5,0,0,1-2-.37,3.81,3.81,0,0,1-1.41-1,4.3,4.3,0,0,1-.84-1.6A7.27,7.27,0,0,1,105.66,65.64Zm2.57,0a5.56,5.56,0,0,0,.12,1.17,3.27,3.27,0,0,0,.35.94,1.67,1.67,0,0,0,.6.62,1.72,1.72,0,0,0,.89.22,1.64,1.64,0,0,0,1.46-.71,4.1,4.1,0,0,0,.48-2.25,4.5,4.5,0,0,0-.44-2.14,1.56,1.56,0,0,0-1.5-.82,1.7,1.7,0,0,0-1.44.69A3.84,3.84,0,0,0,108.23,65.64Z" style="fill:#fff"/><path d="M124.59,67.06q0,.81,0,1.61a13.68,13.68,0,0,0,.17,1.79H123l-.35-1.25h-.08a2.9,2.9,0,0,1-1.1,1.08,3.36,3.36,0,0,1-1.7.41,3.46,3.46,0,0,1-2.8-1.19,5.74,5.74,0,0,1-1-3.73A5.89,5.89,0,0,1,117.08,62a4,4,0,0,1,3.26-1.36,5.84,5.84,0,0,1,1,.07,3.89,3.89,0,0,1,.77.22V57h2.5Zm-4.24,1.54a1.73,1.73,0,0,0,1.15-.35,1.92,1.92,0,0,0,.6-1V63.14a1.91,1.91,0,0,0-.6-.32,2.81,2.81,0,0,0-.84-.11,1.85,1.85,0,0,0-1.58.71,4.22,4.22,0,0,0-.53,2.44,4,4,0,0,0,.43,2A1.47,1.47,0,0,0,120.35,68.59Z" style="fill:#fff"/><path d="M134.46,69.61a4.89,4.89,0,0,1-1.56.78,6.86,6.86,0,0,1-2.1.32,4.08,4.08,0,0,1-3.4-1.35,5.82,5.82,0,0,1-1.08-3.71,5.32,5.32,0,0,1,1.21-3.8,4.47,4.47,0,0,1,3.4-1.27,5.29,5.29,0,0,1,1.42.19,3.31,3.31,0,0,1,1.23.63,3.12,3.12,0,0,1,.86,1.19,4.68,4.68,0,0,1,.33,1.86,8.44,8.44,0,0,1,0,.86q0,.46-.14,1h-5.76a2.82,2.82,0,0,0,.62,1.82,2.39,2.39,0,0,0,1.83.61,4.08,4.08,0,0,0,2.36-.73Zm-3.57-7a1.75,1.75,0,0,0-1.45.59,2.9,2.9,0,0,0-.57,1.56h3.57a2.42,2.42,0,0,0-.32-1.59A1.41,1.41,0,0,0,130.89,62.56Z" style="fill:#fff"/><path d="M139.1,67.21a2.09,2.09,0,0,0,.17,1,.59.59,0,0,0,.56.31,2.61,2.61,0,0,0,.45,0,2.71,2.71,0,0,0,.55-.17l.27,2a4.74,4.74,0,0,1-.94.31,5.54,5.54,0,0,1-1.31.15,2.45,2.45,0,0,1-1.67-.51,2.14,2.14,0,0,1-.58-1.68V57h2.5Z" style="fill:#fff"/><path d="M447,64.89l.35,2.28h.1l.38-2.3L450.44,57h2.76l-5,13.54h-1.88L441.3,57h3.05Z" style="fill:#fff"/><path d="M454,58.13a1.27,1.27,0,0,1,.41-1,1.59,1.59,0,0,1,1.14-.39,1.73,1.73,0,0,1,1.18.39,1.22,1.22,0,0,1,.45,1,1.16,1.16,0,0,1-.45.93,1.79,1.79,0,0,1-1.18.37,1.64,1.64,0,0,1-1.14-.37A1.21,1.21,0,0,1,454,58.13Zm.36,2.71h2.5v9.6h-2.5Z" style="fill:#fff"/><path d="M467,69.61a4.89,4.89,0,0,1-1.56.78,6.86,6.86,0,0,1-2.1.32,4.08,4.08,0,0,1-3.4-1.35,5.82,5.82,0,0,1-1.08-3.71,5.32,5.32,0,0,1,1.21-3.8,4.47,4.47,0,0,1,3.4-1.27,5.29,5.29,0,0,1,1.42.19,3.31,3.31,0,0,1,1.23.63,3.12,3.12,0,0,1,.86,1.19,4.68,4.68,0,0,1,.33,1.86,8.44,8.44,0,0,1,0,.86q0,.46-.14,1h-5.76a2.82,2.82,0,0,0,.62,1.82,2.39,2.39,0,0,0,1.83.61,4.08,4.08,0,0,0,2.36-.73Zm-3.57-7a1.75,1.75,0,0,0-1.45.59,2.9,2.9,0,0,0-.57,1.56H465a2.42,2.42,0,0,0-.32-1.59A1.41,1.41,0,0,0,463.4,62.56Z" style="fill:#fff"/><path d="M475.9,60.84l1.75,4.92.35,1.59h.08l.27-1.61,1.23-4.9h2.28l-3,9.7h-1.84l-1.94-5.38-.25-1.21h-.1l-.23,1.23-1.84,5.36h-1.9l-3.09-9.7h2.71l1.4,4.82.23,1.71h.1l.33-1.73,1.59-4.8Z" style="fill:#fff"/><path d="M258.26,199.49a4,4,0,0,1-1.56.63,9.9,9.9,0,0,1-1.95.19,7,7,0,0,1-2.29-.37,4.9,4.9,0,0,1-1.91-1.21,5.94,5.94,0,0,1-1.31-2.17,9.42,9.42,0,0,1-.49-3.24,8.77,8.77,0,0,1,.55-3.31,6,6,0,0,1,1.42-2.15,5.24,5.24,0,0,1,1.95-1.17,6.82,6.82,0,0,1,2.15-.36,10.48,10.48,0,0,1,1.95.15,7.16,7.16,0,0,1,1.32.36l-.52,2.23a3.83,3.83,0,0,0-1-.31,9.57,9.57,0,0,0-1.47-.1,3.21,3.21,0,0,0-2.56,1.14,5.34,5.34,0,0,0-1,3.52,7.29,7.29,0,0,0,.23,1.9,4.08,4.08,0,0,0,.7,1.46,3.24,3.24,0,0,0,1.17.94,3.71,3.71,0,0,0,1.62.34,5.3,5.3,0,0,0,1.46-.17,4.29,4.29,0,0,0,1-.44Z" style="fill:#fff"/><path d="M258.68,195.24a5.4,5.4,0,0,1,1.19-3.75,4.28,4.28,0,0,1,3.34-1.31,5,5,0,0,1,2,.36,3.73,3.73,0,0,1,1.4,1,4.39,4.39,0,0,1,.84,1.6,7.29,7.29,0,0,1,.28,2.07,5.43,5.43,0,0,1-1.18,3.75,4.25,4.25,0,0,1-3.33,1.32,5,5,0,0,1-2-.37,3.81,3.81,0,0,1-1.41-1,4.3,4.3,0,0,1-.84-1.6A7.27,7.27,0,0,1,258.68,195.24Zm2.57,0a5.56,5.56,0,0,0,.12,1.17,3.27,3.27,0,0,0,.35.94,1.67,1.67,0,0,0,.6.62,1.72,1.72,0,0,0,.89.22,1.64,1.64,0,0,0,1.46-.71,4.1,4.1,0,0,0,.48-2.25,4.5,4.5,0,0,0-.44-2.14,1.56,1.56,0,0,0-1.5-.82,1.7,1.7,0,0,0-1.44.69A3.84,3.84,0,0,0,261.25,195.24Z" style="fill:#fff"/><path d="M275.33,200v-5.45a3.22,3.22,0,0,0-.34-1.69,1.26,1.26,0,0,0-1.14-.52,1.8,1.8,0,0,0-1.2.41,2.29,2.29,0,0,0-.7,1V200h-2.5v-9.6h2l.29,1.27h.08a4.14,4.14,0,0,1,1.17-1.08,3.47,3.47,0,0,1,1.88-.46,3.88,3.88,0,0,1,1.27.19,2.16,2.16,0,0,1,.94.63,2.88,2.88,0,0,1,.58,1.2,7.76,7.76,0,0,1,.19,1.87v6Z" style="fill:#fff"/><path d="M278.92,190.44h1.32v-1.8l2.5-.71v2.52h2.34v2.11h-2.34v3.69a3.66,3.66,0,0,0,.2,1.43.76.76,0,0,0,.76.43,2.51,2.51,0,0,0,.66-.08,4.46,4.46,0,0,0,.62-.23l.44,1.92a6.34,6.34,0,0,1-1.21.42,5.75,5.75,0,0,1-1.4.17,2.52,2.52,0,0,1-1.95-.68,3.27,3.27,0,0,1-.62-2.24v-4.84h-1.32Z" style="fill:#fff"/><path d="M291.92,192.78a3.26,3.26,0,0,0-1.08-.21,1.76,1.76,0,0,0-1.12.35,1.71,1.71,0,0,0-.6.91V200h-2.5v-9.6h1.94l.29,1.27h.08a2.62,2.62,0,0,1,.88-1.09,2.24,2.24,0,0,1,1.31-.38,3.64,3.64,0,0,1,1.13.21Z" style="fill:#fff"/><path d="M292.9,195.24a5.4,5.4,0,0,1,1.19-3.75,4.28,4.28,0,0,1,3.34-1.31,5,5,0,0,1,2,.36,3.73,3.73,0,0,1,1.4,1,4.39,4.39,0,0,1,.84,1.6,7.29,7.29,0,0,1,.28,2.07,5.43,5.43,0,0,1-1.18,3.75,4.25,4.25,0,0,1-3.33,1.32,5,5,0,0,1-2-.37,3.81,3.81,0,0,1-1.41-1,4.3,4.3,0,0,1-.84-1.6A7.27,7.27,0,0,1,292.9,195.24Zm2.57,0a5.56,5.56,0,0,0,.12,1.17,3.27,3.27,0,0,0,.35.94,1.67,1.67,0,0,0,.6.62,1.72,1.72,0,0,0,.89.22,1.64,1.64,0,0,0,1.46-.71,4.1,4.1,0,0,0,.48-2.25,4.5,4.5,0,0,0-.44-2.14,1.56,1.56,0,0,0-1.5-.82A1.7,1.7,0,0,0,296,193,3.84,3.84,0,0,0,295.47,195.24Z" style="fill:#fff"/><path d="M306.24,196.81a2.09,2.09,0,0,0,.17,1,.59.59,0,0,0,.56.31,2.61,2.61,0,0,0,.45,0,2.71,2.71,0,0,0,.55-.17l.27,2a4.74,4.74,0,0,1-.94.31,5.54,5.54,0,0,1-1.31.15,2.45,2.45,0,0,1-1.67-.51,2.14,2.14,0,0,1-.58-1.68V186.6h2.5Z" style="fill:#fff"/><path d="M311.88,196.81a2.09,2.09,0,0,0,.17,1,.59.59,0,0,0,.56.31,2.61,2.61,0,0,0,.45,0,2.71,2.71,0,0,0,.55-.17l.27,2a4.74,4.74,0,0,1-.94.31,5.54,5.54,0,0,1-1.31.15,2.45,2.45,0,0,1-1.67-.51,2.14,2.14,0,0,1-.58-1.68V186.6h2.5Z" style="fill:#fff"/><path d="M322.64,199.21a4.89,4.89,0,0,1-1.56.78,6.86,6.86,0,0,1-2.1.32,4.08,4.08,0,0,1-3.4-1.35,5.82,5.82,0,0,1-1.08-3.71,5.32,5.32,0,0,1,1.21-3.8,4.47,4.47,0,0,1,3.4-1.27,5.29,5.29,0,0,1,1.42.19,3.31,3.31,0,0,1,1.23.63,3.12,3.12,0,0,1,.86,1.19,4.68,4.68,0,0,1,.33,1.86,8.44,8.44,0,0,1,0,.86q0,.46-.14,1H317a2.82,2.82,0,0,0,.62,1.82,2.39,2.39,0,0,0,1.83.61,4.08,4.08,0,0,0,2.36-.73Zm-3.57-7a1.75,1.75,0,0,0-1.45.59,2.9,2.9,0,0,0-.57,1.56h3.57a2.42,2.42,0,0,0-.32-1.59A1.41,1.41,0,0,0,319.06,192.16Z" style="fill:#fff"/><path d="M330,192.78a3.26,3.26,0,0,0-1.08-.21,1.76,1.76,0,0,0-1.12.35,1.71,1.71,0,0,0-.6.91V200h-2.5v-9.6h1.94l.29,1.27H327a2.62,2.62,0,0,1,.88-1.09,2.24,2.24,0,0,1,1.31-.38,3.64,3.64,0,0,1,1.13.21Z" style="fill:#fff"/><path d="M188.36,294.6q.4-.06.91-.1l1-.06,1,0h.91a8.34,8.34,0,0,1,3.05.5,5.2,5.2,0,0,1,2.05,1.4,5.63,5.63,0,0,1,1.15,2.15,9.78,9.78,0,0,1,.36,2.75,10,10,0,0,1-.35,2.63,6,6,0,0,1-1.15,2.25,5.78,5.78,0,0,1-2.12,1.57,7.89,7.89,0,0,1-3.25.6l-.82,0-1.06,0-1-.06q-.5,0-.75-.07Zm4.13,2.15-.85,0a5.36,5.36,0,0,0-.64.06v9l.26,0,.39,0,.4,0h.29a3.91,3.91,0,0,0,1.85-.39,3.15,3.15,0,0,0,1.17-1A4.21,4.21,0,0,0,196,303a8.83,8.83,0,0,0,.17-1.76,8.39,8.39,0,0,0-.15-1.58,4,4,0,0,0-.57-1.43,3.2,3.2,0,0,0-1.12-1A3.62,3.62,0,0,0,192.49,296.75Z" style="fill:#fff"/><path d="M200.59,295.73a1.27,1.27,0,0,1,.41-1,1.59,1.59,0,0,1,1.14-.39,1.73,1.73,0,0,1,1.18.39,1.22,1.22,0,0,1,.45,1,1.16,1.16,0,0,1-.45.93,1.79,1.79,0,0,1-1.18.37,1.64,1.64,0,0,1-1.14-.37A1.21,1.21,0,0,1,200.59,295.73Zm.36,2.71h2.5V308H201Z" style="fill:#fff"/><path d="M209.87,305.39a.72.72,0,0,0-.33-.61,4,4,0,0,0-.81-.42l-1.06-.39a4,4,0,0,1-1.06-.56,3,3,0,0,1-.81-.9,3.21,3.21,0,0,1,.52-3.58,3.56,3.56,0,0,1,2.44-.75,7.83,7.83,0,0,1,2,.23,5.73,5.73,0,0,1,1.38.52l-.56,1.8q-.44-.17-1.11-.36a5,5,0,0,0-1.36-.19q-1.11,0-1.11.86a.64.64,0,0,0,.33.56,4.28,4.28,0,0,0,.81.39l1.06.39a4.6,4.6,0,0,1,1.06.55,2.87,2.87,0,0,1,.81.87,2.63,2.63,0,0,1,.33,1.38,2.93,2.93,0,0,1-.93,2.29,4.07,4.07,0,0,1-2.79.84,6.82,6.82,0,0,1-1.91-.26,5.88,5.88,0,0,1-1.45-.6l.69-1.86a6.65,6.65,0,0,0,1.17.49,4.76,4.76,0,0,0,1.5.24,1.66,1.66,0,0,0,.89-.21A.77.77,0,0,0,209.87,305.39Z" style="fill:#fff"/><path d="M214,298.44h1.82l.29,1.15h.08a3.18,3.18,0,0,1,1.18-1.08,3.65,3.65,0,0,1,1.66-.35,3.24,3.24,0,0,1,2.71,1.14,6,6,0,0,1,.9,3.68,7.93,7.93,0,0,1-.29,2.22,4.68,4.68,0,0,1-.85,1.68,3.73,3.73,0,0,1-1.38,1.06,5.17,5.17,0,0,1-2.85.28,3.37,3.37,0,0,1-.77-.28v3.94H214Zm4.28,1.84a1.67,1.67,0,0,0-1.14.36,2.38,2.38,0,0,0-.64,1.09v4a2,2,0,0,0,1.42.46,1.85,1.85,0,0,0,1.61-.76,4.45,4.45,0,0,0,.54-2.51,3.77,3.77,0,0,0-.42-2A1.48,1.48,0,0,0,218.28,300.28Z" style="fill:#fff"/><path d="M224.3,299a8.21,8.21,0,0,1,1.82-.55,11.76,11.76,0,0,1,2.21-.2,5,5,0,0,1,1.67.24,2.41,2.41,0,0,1,1.62,1.74,5.41,5.41,0,0,1,.16,1.38q0,.85-.06,1.7t-.07,1.68q0,.83,0,1.6a6,6,0,0,0,.29,1.47h-2l-.4-1.32h-.1a3.42,3.42,0,0,1-1.07,1,3.23,3.23,0,0,1-1.76.43,3.43,3.43,0,0,1-1.21-.2,2.59,2.59,0,0,1-1.52-1.46,3,3,0,0,1-.21-1.14,2.67,2.67,0,0,1,.39-1.49,2.84,2.84,0,0,1,1.13-1,5.63,5.63,0,0,1,1.77-.52,12.57,12.57,0,0,1,2.29-.09,2.49,2.49,0,0,0-.15-1.55q-.29-.47-1.29-.47a8.76,8.76,0,0,0-1.58.15,5.8,5.8,0,0,0-1.37.4Zm3.17,7.14a1.92,1.92,0,0,0,1.19-.34,2.33,2.33,0,0,0,.65-.72v-1.25a6.87,6.87,0,0,0-1.14,0,4.19,4.19,0,0,0-1,.17,1.63,1.63,0,0,0-.67.38.86.86,0,0,0-.25.63,1.09,1.09,0,0,0,.32.84A1.23,1.23,0,0,0,227.47,306.13Z" style="fill:#fff"/><path d="M232.89,298.44h1.32v-1.8l2.5-.71v2.52H239v2.11h-2.34v3.69a3.66,3.66,0,0,0,.2,1.43.76.76,0,0,0,.76.43,2.51,2.51,0,0,0,.66-.08,4.46,4.46,0,0,0,.62-.23l.44,1.92a6.34,6.34,0,0,1-1.21.42,5.75,5.75,0,0,1-1.4.17,2.52,2.52,0,0,1-1.95-.68,3.27,3.27,0,0,1-.62-2.24v-4.84h-1.32Z" style="fill:#fff"/><path d="M247.29,307.44a4.16,4.16,0,0,1-1.39.64,6.41,6.41,0,0,1-1.68.22,4.66,4.66,0,0,1-1.95-.37,3.32,3.32,0,0,1-1.3-1,4.23,4.23,0,0,1-.72-1.6,9.06,9.06,0,0,1-.22-2.07,5.72,5.72,0,0,1,1.09-3.75,3.91,3.91,0,0,1,3.19-1.31,6.76,6.76,0,0,1,1.7.17,5.78,5.78,0,0,1,1.16.44l-.6,2a5,5,0,0,0-.87-.33,3.83,3.83,0,0,0-1-.12,1.88,1.88,0,0,0-1.57.68,3.53,3.53,0,0,0-.54,2.18,4.5,4.5,0,0,0,.13,1.13,2.76,2.76,0,0,0,.4.9,1.89,1.89,0,0,0,.7.6,2.18,2.18,0,0,0,1,.22,3.11,3.11,0,0,0,1.08-.16,3.74,3.74,0,0,0,.79-.39Z" style="fill:#fff"/><path d="M254.68,308v-5.45a3.3,3.3,0,0,0-.33-1.69,1.3,1.3,0,0,0-1.19-.52,1.8,1.8,0,0,0-1.16.43,2,2,0,0,0-.7,1.1V308h-2.5V294.6h2.5v4.92h.08a3.48,3.48,0,0,1,1.13-1,3.56,3.56,0,0,1,1.71-.36,4,4,0,0,1,1.29.19,2.09,2.09,0,0,1,.93.63,2.87,2.87,0,0,1,.56,1.2,8.15,8.15,0,0,1,.18,1.87v6Z" style="fill:#fff"/><path d="M266.95,307.21a4.89,4.89,0,0,1-1.56.78,6.86,6.86,0,0,1-2.1.32,4.08,4.08,0,0,1-3.4-1.35,5.82,5.82,0,0,1-1.08-3.71,5.32,5.32,0,0,1,1.21-3.8,4.47,4.47,0,0,1,3.4-1.27,5.29,5.29,0,0,1,1.42.19,3.31,3.31,0,0,1,1.23.63,3.12,3.12,0,0,1,.86,1.19,4.68,4.68,0,0,1,.33,1.86,8.44,8.44,0,0,1,0,.86q0,.46-.14,1H261.3a2.82,2.82,0,0,0,.62,1.82,2.39,2.39,0,0,0,1.83.61,4.08,4.08,0,0,0,2.36-.73Zm-3.57-7a1.75,1.75,0,0,0-1.45.59,2.9,2.9,0,0,0-.57,1.56h3.57a2.42,2.42,0,0,0-.32-1.59A1.41,1.41,0,0,0,263.38,300.16Z" style="fill:#fff"/><path d="M274.32,300.78a3.26,3.26,0,0,0-1.08-.21,1.76,1.76,0,0,0-1.12.35,1.71,1.71,0,0,0-.6.91V308H269v-9.6H271l.29,1.27h.08a2.62,2.62,0,0,1,.88-1.09,2.24,2.24,0,0,1,1.31-.38,3.64,3.64,0,0,1,1.13.21Z" style="fill:#fff"/><path d="M204.06,337.93l1-.14,1-.11,1-.06.88,0a9.93,9.93,0,0,1,1.85.17,5,5,0,0,1,1.63.6,3.18,3.18,0,0,1,1.15,1.16,3.63,3.63,0,0,1,.43,1.85,4.4,4.4,0,0,1-.77,2.69,4,4,0,0,1-2.05,1.44l.94.6,3.07,5.13h-3L208.07,346l-1.38-.25v5.51h-2.63Zm4,2-.8,0a3,3,0,0,0-.6.08v3.9h1.11a2.8,2.8,0,0,0,1.75-.5,2,2,0,0,0,.65-1.65,1.74,1.74,0,0,0-.54-1.35A2.26,2.26,0,0,0,208.09,339.95Z" style="fill:#fff"/><path d="M214.18,346.44a5.4,5.4,0,0,1,1.19-3.75,4.28,4.28,0,0,1,3.34-1.31,5,5,0,0,1,2,.36,3.73,3.73,0,0,1,1.4,1,4.39,4.39,0,0,1,.84,1.6,7.29,7.29,0,0,1,.28,2.07,5.43,5.43,0,0,1-1.18,3.75,4.25,4.25,0,0,1-3.33,1.32,5,5,0,0,1-2-.37,3.81,3.81,0,0,1-1.41-1,4.3,4.3,0,0,1-.84-1.6A7.27,7.27,0,0,1,214.18,346.44Zm2.57,0a5.56,5.56,0,0,0,.12,1.17,3.27,3.27,0,0,0,.35.94,1.67,1.67,0,0,0,.6.62,1.72,1.72,0,0,0,.89.22,1.64,1.64,0,0,0,1.46-.71,4.1,4.1,0,0,0,.48-2.25,4.5,4.5,0,0,0-.44-2.14,1.56,1.56,0,0,0-1.5-.82,1.7,1.7,0,0,0-1.44.69A3.84,3.84,0,0,0,216.75,346.44Z" style="fill:#fff"/><path d="M227.35,341.64v5.45a3.78,3.78,0,0,0,.28,1.69,1.12,1.12,0,0,0,1.08.52,1.7,1.7,0,0,0,1.18-.42,2.59,2.59,0,0,0,.7-1v-6.2h2.5v6.68a15.32,15.32,0,0,0,.08,1.55,9.64,9.64,0,0,0,.23,1.37h-1.88l-.44-1.42H231a3.58,3.58,0,0,1-1.23,1.21,3.51,3.51,0,0,1-1.86.48,4.12,4.12,0,0,1-1.31-.19,2.14,2.14,0,0,1-1-.63,3,3,0,0,1-.59-1.19,7.37,7.37,0,0,1-.2-1.88v-6Z" style="fill:#fff"/><path d="M234.28,341.64h1.32v-1.8l2.5-.71v2.52h2.34v2.11H238.1v3.69a3.66,3.66,0,0,0,.2,1.43.76.76,0,0,0,.76.43,2.51,2.51,0,0,0,.66-.08,4.46,4.46,0,0,0,.62-.23l.44,1.92a6.34,6.34,0,0,1-1.21.42,5.75,5.75,0,0,1-1.4.17,2.52,2.52,0,0,1-1.95-.68,3.27,3.27,0,0,1-.62-2.24v-4.84h-1.32Z" style="fill:#fff"/><path d="M249.56,350.41a4.89,4.89,0,0,1-1.56.78,6.86,6.86,0,0,1-2.1.32,4.08,4.08,0,0,1-3.4-1.35,5.82,5.82,0,0,1-1.08-3.71,5.32,5.32,0,0,1,1.21-3.8,4.47,4.47,0,0,1,3.4-1.27,5.29,5.29,0,0,1,1.42.19,3.31,3.31,0,0,1,1.23.63,3.12,3.12,0,0,1,.86,1.19,4.68,4.68,0,0,1,.33,1.86,8.44,8.44,0,0,1,0,.86q0,.46-.14,1h-5.76a2.82,2.82,0,0,0,.62,1.82,2.39,2.39,0,0,0,1.83.61,4.08,4.08,0,0,0,2.36-.73Zm-3.57-7a1.75,1.75,0,0,0-1.45.59,2.9,2.9,0,0,0-.57,1.56h3.57a2.42,2.42,0,0,0-.32-1.59A1.41,1.41,0,0,0,246,343.36Z" style="fill:#fff"/><path d="M255.61,348.59a.72.72,0,0,0-.33-.61,4,4,0,0,0-.81-.42l-1.06-.39a4,4,0,0,1-1.06-.56,3,3,0,0,1-.81-.9,3.21,3.21,0,0,1,.52-3.58,3.56,3.56,0,0,1,2.44-.75,7.83,7.83,0,0,1,2,.23,5.73,5.73,0,0,1,1.38.52l-.56,1.8q-.44-.17-1.11-.36a5,5,0,0,0-1.36-.19q-1.11,0-1.11.86a.64.64,0,0,0,.33.56,4.28,4.28,0,0,0,.81.39l1.06.39a4.6,4.6,0,0,1,1.06.55,2.87,2.87,0,0,1,.81.87,2.63,2.63,0,0,1,.33,1.38,2.93,2.93,0,0,1-.93,2.29,4.07,4.07,0,0,1-2.79.84,6.82,6.82,0,0,1-1.91-.26,5.88,5.88,0,0,1-1.45-.6l.69-1.86a6.65,6.65,0,0,0,1.17.49,4.76,4.76,0,0,0,1.5.24,1.66,1.66,0,0,0,.89-.21A.77.77,0,0,0,255.61,348.59Z" style="fill:#fff"/><path d="M247.09,395.7l.25,2.38h.08l.27-2.42L250,388.2h1.73l2.3,7.51.27,2.38h.08l.29-2.42,1.63-7.47H259l-3.71,13.54h-1.77l-2.4-7.47-.33-2.05h-.1l-.33,2.07L248,401.73h-1.86l-3.69-13.54h2.86Z" style="fill:#fff"/><path d="M266.75,400.81a4.89,4.89,0,0,1-1.56.78,6.86,6.86,0,0,1-2.1.32,4.08,4.08,0,0,1-3.4-1.35,5.82,5.82,0,0,1-1.08-3.71,5.32,5.32,0,0,1,1.21-3.8,4.47,4.47,0,0,1,3.4-1.27,5.29,5.29,0,0,1,1.42.19,3.31,3.31,0,0,1,1.23.63,3.12,3.12,0,0,1,.86,1.19,4.68,4.68,0,0,1,.33,1.86,8.44,8.44,0,0,1,0,.86q0,.46-.14,1H261.1a2.82,2.82,0,0,0,.62,1.82,2.39,2.39,0,0,0,1.83.61,4.08,4.08,0,0,0,2.36-.73Zm-3.57-7a1.75,1.75,0,0,0-1.45.59,2.9,2.9,0,0,0-.57,1.56h3.57a2.42,2.42,0,0,0-.32-1.59A1.41,1.41,0,0,0,263.17,393.76Z" style="fill:#fff"/><path d="M268.82,388.2h2.5v4.61h.08a2.81,2.81,0,0,1,1-.73,3.55,3.55,0,0,1,1.4-.27,3.13,3.13,0,0,1,2.64,1.18,5.86,5.86,0,0,1,.91,3.6,5.51,5.51,0,0,1-1.28,3.94,4.6,4.6,0,0,1-3.5,1.34,11.59,11.59,0,0,1-2.25-.2,6.73,6.73,0,0,1-1.54-.45Zm4.28,5.72a1.71,1.71,0,0,0-1.12.35,2.23,2.23,0,0,0-.66,1v4.19a2.29,2.29,0,0,0,.66.21,4.77,4.77,0,0,0,.76.06,1.78,1.78,0,0,0,1.55-.74,4.11,4.11,0,0,0,.53-2.35Q274.81,393.92,273.1,393.92Z" style="fill:#fff"/><path d="M289.82,398a1.25,1.25,0,0,0-.45-1,5,5,0,0,0-1.13-.7q-.68-.32-1.48-.65a7.57,7.57,0,0,1-1.48-.83,4.21,4.21,0,0,1-1.13-1.22,3.49,3.49,0,0,1-.45-1.86,4.08,4.08,0,0,1,.33-1.7,3.2,3.2,0,0,1,.93-1.2,4,4,0,0,1,1.43-.71,6.86,6.86,0,0,1,1.84-.23,11.57,11.57,0,0,1,2.21.2,5.61,5.61,0,0,1,1.71.59l-.83,2.21a4.63,4.63,0,0,0-1.27-.49,7.2,7.2,0,0,0-1.82-.22,2.33,2.33,0,0,0-1.41.36,1.16,1.16,0,0,0-.49,1,1.21,1.21,0,0,0,.45,1,5.19,5.19,0,0,0,1.13.71q.68.33,1.48.67a7.93,7.93,0,0,1,1.48.84,4.25,4.25,0,0,1,1.13,1.21,3.32,3.32,0,0,1,.45,1.8,4.43,4.43,0,0,1-.35,1.85,3.51,3.51,0,0,1-1,1.3,4.21,4.21,0,0,1-1.56.77,7.58,7.58,0,0,1-2,.25,10.69,10.69,0,0,1-2.53-.27,7.74,7.74,0,0,1-1.61-.54l.84-2.25a5.2,5.2,0,0,0,.55.25,7.18,7.18,0,0,0,.76.25,8.77,8.77,0,0,0,.89.19,6,6,0,0,0,1,.08,3.38,3.38,0,0,0,1.79-.39A1.32,1.32,0,0,0,289.82,398Z" style="fill:#fff"/><path d="M301.82,400.81a4.89,4.89,0,0,1-1.56.78,6.86,6.86,0,0,1-2.1.32,4.08,4.08,0,0,1-3.4-1.35,5.82,5.82,0,0,1-1.08-3.71,5.32,5.32,0,0,1,1.21-3.8,4.47,4.47,0,0,1,3.4-1.27,5.29,5.29,0,0,1,1.42.19,3.31,3.31,0,0,1,1.23.63,3.12,3.12,0,0,1,.86,1.19,4.68,4.68,0,0,1,.33,1.86,8.44,8.44,0,0,1,0,.86q0,.46-.14,1h-5.76a2.82,2.82,0,0,0,.62,1.82,2.39,2.39,0,0,0,1.83.61,4.08,4.08,0,0,0,2.36-.73Zm-3.57-7a1.75,1.75,0,0,0-1.45.59,2.9,2.9,0,0,0-.57,1.56h3.57a2.42,2.42,0,0,0-.32-1.59A1.41,1.41,0,0,0,298.25,393.76Z" style="fill:#fff"/><path d="M309.2,394.38a3.26,3.26,0,0,0-1.08-.21,1.76,1.76,0,0,0-1.12.35,1.71,1.71,0,0,0-.6.91v6.2h-2.5V392h1.94l.29,1.27h.08a2.62,2.62,0,0,1,.88-1.09,2.24,2.24,0,0,1,1.31-.38,3.64,3.64,0,0,1,1.13.21Z" style="fill:#fff"/><path d="M314,397.07l.33,1.48h.1l.27-1.52,1.63-5H319l-4,9.7h-1.52l-4.17-9.7h2.9Z" style="fill:#fff"/><path d="M327.34,400.81a4.89,4.89,0,0,1-1.56.78,6.86,6.86,0,0,1-2.1.32,4.08,4.08,0,0,1-3.4-1.35,5.82,5.82,0,0,1-1.08-3.71,5.32,5.32,0,0,1,1.21-3.8,4.47,4.47,0,0,1,3.4-1.27,5.29,5.29,0,0,1,1.42.19,3.31,3.31,0,0,1,1.23.63,3.12,3.12,0,0,1,.86,1.19,4.68,4.68,0,0,1,.33,1.86,8.44,8.44,0,0,1,0,.86q0,.46-.14,1H321.7a2.82,2.82,0,0,0,.62,1.82,2.39,2.39,0,0,0,1.83.61,4.08,4.08,0,0,0,2.36-.73Zm-3.57-7a1.75,1.75,0,0,0-1.45.59,2.9,2.9,0,0,0-.57,1.56h3.57a2.42,2.42,0,0,0-.32-1.59A1.41,1.41,0,0,0,323.77,393.76Z" style="fill:#fff"/><path d="M334.71,394.38a3.26,3.26,0,0,0-1.08-.21,1.76,1.76,0,0,0-1.12.35,1.71,1.71,0,0,0-.6.91v6.2h-2.5V392h1.94l.29,1.27h.08a2.62,2.62,0,0,1,.88-1.09,2.24,2.24,0,0,1,1.31-.38A3.64,3.64,0,0,1,335,392Z" style="fill:#fff"/><path d="M266,506.52a4.12,4.12,0,0,1-.12,1,2.74,2.74,0,0,1-.41.91,2.92,2.92,0,0,1-.75.73,3.28,3.28,0,0,1-1.11.47v.12a4.54,4.54,0,0,1,1.09.33,2.83,2.83,0,0,1,.9.63,2.92,2.92,0,0,1,.6,1,3.81,3.81,0,0,1,.22,1.36,3.5,3.5,0,0,1-.44,1.79,3.64,3.64,0,0,1-1.18,1.24,5.44,5.44,0,0,1-1.68.71,8.14,8.14,0,0,1-1.94.23h-.83l-1.09,0-1.19-.09a8.76,8.76,0,0,1-1.1-.17V503.49l.84-.12,1-.1,1.1-.06,1.12,0a11.54,11.54,0,0,1,1.83.14,5.25,5.25,0,0,1,1.59.51,2.92,2.92,0,0,1,1.12,1A3,3,0,0,1,266,506.52ZM260.32,509l.62,0a5.52,5.52,0,0,0,.59-.06,3.49,3.49,0,0,0,1.26-.68,1.51,1.51,0,0,0,.53-1.2,1.58,1.58,0,0,0-.19-.82,1.46,1.46,0,0,0-.51-.51,2.16,2.16,0,0,0-.72-.27,4.54,4.54,0,0,0-.84-.08l-.92,0a5.86,5.86,0,0,0-.65.06V509Zm.86,5.78a3.78,3.78,0,0,0,.93-.11,2.46,2.46,0,0,0,.8-.35,1.86,1.86,0,0,0,.56-.6,1.67,1.67,0,0,0,.21-.86,1.72,1.72,0,0,0-.25-1,1.69,1.69,0,0,0-.65-.56,2.7,2.7,0,0,0-.9-.26,8.78,8.78,0,0,0-1-.06h-1.4v3.67a1.19,1.19,0,0,0,.31.06l.45,0,.5,0Z" style="fill:#fff"/><path d="M273.53,509.58a3.26,3.26,0,0,0-1.08-.21,1.76,1.76,0,0,0-1.12.36,1.71,1.71,0,0,0-.6.91v6.2h-2.5v-9.6h1.94l.29,1.27h.08a2.61,2.61,0,0,1,.88-1.09,2.24,2.24,0,0,1,1.31-.38,3.64,3.64,0,0,1,1.13.21Z" style="fill:#fff"/><path d="M274.51,512a5.4,5.4,0,0,1,1.19-3.75A4.27,4.27,0,0,1,279,507a5,5,0,0,1,2,.37,3.73,3.73,0,0,1,1.4,1,4.39,4.39,0,0,1,.84,1.6,7.3,7.3,0,0,1,.28,2.07,5.43,5.43,0,0,1-1.18,3.75A4.25,4.25,0,0,1,279,517.1a5,5,0,0,1-2-.36,3.81,3.81,0,0,1-1.41-1,4.3,4.3,0,0,1-.84-1.6A7.27,7.27,0,0,1,274.51,512Zm2.57,0a5.57,5.57,0,0,0,.12,1.17,3.26,3.26,0,0,0,.35.94,1.66,1.66,0,0,0,.6.62,1.72,1.72,0,0,0,.89.22,1.64,1.64,0,0,0,1.46-.71A4.1,4.1,0,0,0,281,512a4.5,4.5,0,0,0-.44-2.14,1.56,1.56,0,0,0-1.5-.82,1.7,1.7,0,0,0-1.44.69A3.84,3.84,0,0,0,277.09,512Z" style="fill:#fff"/><path d="M292.06,507.24l1.75,4.92.35,1.59h.08l.27-1.61,1.23-4.9H298l-3,9.7h-1.84l-1.94-5.38-.25-1.21h-.1l-.23,1.23-1.84,5.36H287l-3.09-9.7h2.71l1.4,4.82.23,1.71h.1l.33-1.73,1.59-4.8Z" style="fill:#fff"/><path d="M302.93,514.19a.72.72,0,0,0-.33-.61,3.9,3.9,0,0,0-.81-.42l-1.06-.39a4,4,0,0,1-1.06-.56,3,3,0,0,1-.81-.9,3.21,3.21,0,0,1,.52-3.58,3.56,3.56,0,0,1,2.44-.75,7.85,7.85,0,0,1,2,.23,5.79,5.79,0,0,1,1.38.52l-.56,1.8q-.44-.17-1.11-.36a4.94,4.94,0,0,0-1.36-.19q-1.11,0-1.11.86a.64.64,0,0,0,.33.56,4.28,4.28,0,0,0,.81.39l1.06.39a4.6,4.6,0,0,1,1.06.55,2.87,2.87,0,0,1,.81.87,2.63,2.63,0,0,1,.33,1.38,2.92,2.92,0,0,1-.93,2.29,4.07,4.07,0,0,1-2.79.83,6.82,6.82,0,0,1-1.91-.26,5.92,5.92,0,0,1-1.45-.6l.69-1.86a6.61,6.61,0,0,0,1.17.49,4.76,4.76,0,0,0,1.5.24,1.65,1.65,0,0,0,.89-.21A.77.77,0,0,0,302.93,514.19Z" style="fill:#fff"/><path d="M314.74,516a4.89,4.89,0,0,1-1.56.78,6.86,6.86,0,0,1-2.1.32,4.08,4.08,0,0,1-3.4-1.35A5.82,5.82,0,0,1,306.6,512a5.32,5.32,0,0,1,1.21-3.8,4.47,4.47,0,0,1,3.4-1.27,5.29,5.29,0,0,1,1.42.19,3.3,3.3,0,0,1,1.23.63,3.12,3.12,0,0,1,.86,1.19,4.67,4.67,0,0,1,.33,1.86,8.45,8.45,0,0,1,0,.86q0,.46-.14,1h-5.76a2.81,2.81,0,0,0,.62,1.82,2.39,2.39,0,0,0,1.83.62,4.08,4.08,0,0,0,2.36-.73Zm-3.57-7a1.75,1.75,0,0,0-1.45.59,2.9,2.9,0,0,0-.57,1.56h3.57a2.42,2.42,0,0,0-.32-1.59A1.41,1.41,0,0,0,311.17,509Z" style="fill:#fff"/><path d="M322.11,509.58a3.26,3.26,0,0,0-1.08-.21,1.76,1.76,0,0,0-1.12.36,1.71,1.71,0,0,0-.6.91v6.2h-2.5v-9.6h1.94l.29,1.27h.08a2.61,2.61,0,0,1,.88-1.09,2.24,2.24,0,0,1,1.31-.38,3.64,3.64,0,0,1,1.13.21Z" style="fill:#fff"/><line x1="200.8" y1="100" x2="250.91" y2="150.11" style="fill:none;stroke:#c1272d;stroke-miterlimit:10;stroke-width:3px"/><polygon points="258.4 157.6 243.53 151.36 250.35 149.55 252.16 142.74 258.4 157.6" style="fill:#c1272d"/><line x1="165.09" y1="107.49" x2="215.2" y2="157.6" style="fill:none;stroke:#0071bc;stroke-miterlimit:10;stroke-width:3px"/><polygon points="157.6 100 163.84 114.86 165.65 108.05 172.46 106.24 157.6 100" style="fill:#0071bc"/><line x1="416.8" y1="100" x2="366.69" y2="150.11" style="fill:none;stroke:#009245;stroke-miterlimit:10;stroke-width:3px"/><polygon points="359.2 157.6 365.44 142.74 367.25 149.55 374.06 151.36 359.2 157.6" style="fill:#009245"/><line x1="366.11" y1="107.49" x2="316" y2="157.6" style="fill:none;stroke:#0071bc;stroke-miterlimit:10;stroke-width:3px"/><polygon points="373.6 100 358.74 106.24 365.55 108.05 367.36 114.86 373.6 100" style="fill:#0071bc"/><line x1="229.6" y1="240.19" x2="229.6" y2="272.8" style="fill:none;stroke:#a67c52;stroke-miterlimit:10;stroke-width:3px"/><polygon points="229.6 229.6 223.5 244.52 229.6 240.98 235.7 244.52 229.6 229.6" style="fill:#a67c52"/><line x1="229.6" y1="441.79" x2="229.6" y2="474.4" style="fill:none;stroke:gray;stroke-miterlimit:10;stroke-width:3px"/><polygon points="229.6 431.2 223.5 446.12 229.6 442.58 235.7 446.12 229.6 431.2" style="fill:gray"/><line x1="344.8" y1="348.61" x2="344.8" y2="229.6" style="fill:none;stroke:#0071bc;stroke-miterlimit:10;stroke-width:3px"/><polygon points="344.8 359.2 350.9 344.28 344.8 347.82 338.7 344.28 344.8 359.2" style="fill:#0071bc"/><line x1="344.8" y1="463.81" x2="344.8" y2="431.2" style="fill:none;stroke:#a67c52;stroke-miterlimit:10;stroke-width:3px"/><polygon points="344.8 474.4 350.9 459.48 344.8 463.02 338.7 459.48 344.8 474.4" style="fill:#a67c52"/></svg>