<svg version="1.1" xmlns="http://www.w3.org/2000/svg" xmlns:xlink="http://www.w3.org/1999/xlink" width="705.039" height="353"><rect fill="#fff5d8" stroke="none" x="192" y="208" width="221.031" height="125" transform="translate(-182,-198) scale(1,1)"/><path fill="none" stroke="#000" d="M 192 208 L 413.03125 208 L 413.03125 333 L 192 333 L 192 208 Z Z" stroke-miterlimit="10" transform="translate(-182,-198) scale(1,1)"/><path fill="none" stroke="#000" d="M 192 238 L 413.03125 238" stroke-miterlimit="10" transform="translate(-182,-198) scale(1,1)"/><path fill="none" stroke="#000" d="M 226.00390625 238 L 226.00390625 333" stroke-miterlimit="10" transform="translate(-182,-198) scale(1,1)"/><path fill="none" stroke="#000" d="M 320.017578125 238 L 320.017578125 333" stroke-miterlimit="10" transform="translate(-182,-198) scale(1,1)"/><g><text fill="#000" stroke="none" font-family="Courier" font-size="20" font-style="normal" font-weight="bold" text-decoration="none" x="278.512" y="232.5" transform="translate(-182,-198) scale(1,1)">Post</text></g><g><text fill="#000" stroke="none" font-family="Courier" font-size="20" font-style="normal" font-weight="normal" text-decoration="none" x="197" y="263" transform="translate(-182,-198) scale(1,1)">PK</text></g><g><text fill="#000" stroke="none" font-family="Courier" font-size="20" font-style="normal" font-weight="normal" text-decoration="none" x="231.004" y="263" transform="translate(-182,-198) scale(1,1)">id</text></g><g><text fill="#000" stroke="none" font-family="Courier" font-size="20" font-style="normal" font-weight="normal" text-decoration="none" x="325.018" y="263" transform="translate(-182,-198) scale(1,1)">Integer</text></g><g/><g><text fill="#000" stroke="none" font-family="Courier" font-size="20" font-style="normal" font-weight="normal" text-decoration="none" x="231.004" y="285" transform="translate(-182,-198) scale(1,1)">title</text></g><g><text fill="#000" stroke="none" font-family="Courier" font-size="20" font-style="normal" font-weight="normal" text-decoration="none" x="325.018" y="285" transform="translate(-182,-198) scale(1,1)">String</text></g><g/><g><text fill="#000" stroke="none" font-family="Courier" font-size="20" font-style="normal" font-weight="normal" text-decoration="none" x="231.004" y="307" transform="translate(-182,-198) scale(1,1)">text</text></g><g><text fill="#000" stroke="none" font-family="Courier" font-size="20" font-style="normal" font-weight="normal" text-decoration="none" x="325.018" y="307" transform="translate(-182,-198) scale(1,1)">Text</text></g><g/><g><text fill="#000" stroke="none" font-family="Courier" font-size="20" font-style="normal" font-weight="normal" text-decoration="none" x="231.004" y="329" transform="translate(-182,-198) scale(1,1)">user_id</text></g><g><text fill="#000" stroke="none" font-family="Courier" font-size="20" font-style="normal" font-weight="normal" text-decoration="none" x="325.018" y="329" transform="translate(-182,-198) scale(1,1)">Integer</text></g><rect fill="#fff5d8" stroke="none" x="384" y="416" width="305.045" height="125" transform="translate(-182,-198) scale(1,1)"/><path fill="none" stroke="#000" d="M 384 416 L 689.044921875 416 L 689.044921875 541 L 384 541 L 384 416 Z Z" stroke-miterlimit="10" transform="translate(-182,-198) scale(1,1)"/><path fill="none" stroke="#000" d="M 384 446 L 689.044921875 446" stroke-miterlimit="10" transform="translate(-182,-198) scale(1,1)"/><path fill="none" stroke="#000" d="M 418.00390625 446 L 418.00390625 541" stroke-miterlimit="10" transform="translate(-182,-198) scale(1,1)"/><path fill="none" stroke="#000" d="M 596.03125 446 L 596.03125 541" stroke-miterlimit="10" transform="translate(-182,-198) scale(1,1)"/><g><text fill="#000" stroke="none" font-family="Courier" font-size="20" font-style="normal" font-weight="bold" text-decoration="none" x="494.516" y="440.5" transform="translate(-182,-198) scale(1,1)">Picture</text></g><g><text fill="#000" stroke="none" font-family="Courier" font-size="20" font-style="normal" font-weight="normal" text-decoration="none" x="389" y="471" transform="translate(-182,-198) scale(1,1)">PK</text></g><g><text fill="#000" stroke="none" font-family="Courier" font-size="20" font-style="normal" font-weight="normal" text-decoration="none" x="423.004" y="471" transform="translate(-182,-198) scale(1,1)">id</text></g><g><text fill="#000" stroke="none" font-family="Courier" font-size="20" font-style="normal" font-weight="normal" text-decoration="none" x="601.031" y="471" transform="translate(-182,-198) scale(1,1)">Integer</text></g><g/><g><text fill="#000" stroke="none" font-family="Courier" font-size="20" font-style="normal" font-weight="normal" text-decoration="none" x="423.004" y="493" transform="translate(-182,-198) scale(1,1)">name</text></g><g><text fill="#000" stroke="none" font-family="Courier" font-size="20" font-style="normal" font-weight="normal" text-decoration="none" x="601.031" y="493" transform="translate(-182,-198) scale(1,1)">String</text></g><g/><g><text fill="#000" stroke="none" font-family="Courier" font-size="20" font-style="normal" font-weight="normal" text-decoration="none" x="423.004" y="515" transform="translate(-182,-198) scale(1,1)">imageable_id</text></g><g><text fill="#000" stroke="none" font-family="Courier" font-size="20" font-style="normal" font-weight="normal" text-decoration="none" x="601.031" y="515" transform="translate(-182,-198) scale(1,1)">Integer</text></g><g/><g><text fill="#000" stroke="none" font-family="Courier" font-size="20" font-style="normal" font-weight="normal" text-decoration="none" x="423.004" y="537" transform="translate(-182,-198) scale(1,1)">imageable_type</text></g><g><text fill="#000" stroke="none" font-family="Courier" font-size="20" font-style="normal" font-weight="normal" text-decoration="none" x="601.031" y="537" transform="translate(-182,-198) scale(1,1)">String</text></g><path fill="none" stroke="#000" d="M 304 333 L 304 480 L 384 480" stroke-miterlimit="10" transform="translate(-182,-198) scale(1,1)"/><path fill="none" stroke="#000" d="M 370 480 L 384 487" stroke-miterlimit="10" transform="translate(-182,-198) scale(1,1)"/><path fill="none" stroke="#000" d="M 370 480 L 384 473" stroke-miterlimit="10" transform="translate(-182,-198) scale(1,1)"/><path fill="#FFF" stroke="none" d="M 355 480 C 355 476.1340064 358.1340064 473 362 473 C 365.8659936 473 369 476.1340064 369 480 C 369 483.8659936 365.8659936 487 362 487 C 358.1340064 487 355 483.8659936 355 480 Z" transform="translate(-182,-198) scale(1,1)"/><path fill="none" stroke="#000" d="M 355 480 C 355 476.1340064 358.1340064 473 362 473 C 365.8659936 473 369 476.1340064 369 480 C 369 483.8659936 365.8659936 487 362 487 C 358.1340064 487 355 483.8659936 355 480 Z" stroke-miterlimit="10" transform="translate(-182,-198) scale(1,1)"/><path fill="none" stroke="#000" d="M 311 340 L 297 340" stroke-miterlimit="10" transform="translate(-182,-198) scale(1,1)"/><g/><g/><rect fill="#fff5d8" stroke="none" x="608" y="208" width="269.039" height="147" transform="translate(-182,-198) scale(1,1)"/><path fill="none" stroke="#000" d="M 608 208 L 877.0390625 208 L 877.0390625 355 L 608 355 L 608 208 Z Z" stroke-miterlimit="10" transform="translate(-182,-198) scale(1,1)"/><path fill="none" stroke="#000" d="M 608 238 L 877.0390625 238" stroke-miterlimit="10" transform="translate(-182,-198) scale(1,1)"/><path fill="none" stroke="#000" d="M 642.00390625 238 L 642.00390625 355" stroke-miterlimit="10" transform="translate(-182,-198) scale(1,1)"/><path fill="none" stroke="#000" d="M 772.0234375 238 L 772.0234375 355" stroke-miterlimit="10" transform="translate(-182,-198) scale(1,1)"/><g><text fill="#000" stroke="none" font-family="Courier" font-size="20" font-style="normal" font-weight="bold" text-decoration="none" x="718.516" y="232.5" transform="translate(-182,-198) scale(1,1)">User</text></g><g><text fill="#000" stroke="none" font-family="Courier" font-size="20" font-style="normal" font-weight="normal" text-decoration="none" x="613" y="263" transform="translate(-182,-198) scale(1,1)">PK</text></g><g><text fill="#000" stroke="none" font-family="Courier" font-size="20" font-style="normal" font-weight="normal" text-decoration="none" x="647.004" y="263" transform="translate(-182,-198) scale(1,1)">id</text></g><g><text fill="#000" stroke="none" font-family="Courier" font-size="20" font-style="normal" font-weight="normal" text-decoration="none" x="777.023" y="263" transform="translate(-182,-198) scale(1,1)">Integer</text></g><g/><g><text fill="#000" stroke="none" font-family="Courier" font-size="20" font-style="normal" font-weight="normal" text-decoration="none" x="647.004" y="285" transform="translate(-182,-198) scale(1,1)">first_name</text></g><g><text fill="#000" stroke="none" font-family="Courier" font-size="20" font-style="normal" font-weight="normal" text-decoration="none" x="777.023" y="285" transform="translate(-182,-198) scale(1,1)">String</text></g><g/><g><text fill="#000" stroke="none" font-family="Courier" font-size="20" font-style="normal" font-weight="normal" text-decoration="none" x="647.004" y="307" transform="translate(-182,-198) scale(1,1)">last_name</text></g><g><text fill="#000" stroke="none" font-family="Courier" font-size="20" font-style="normal" font-weight="normal" text-decoration="none" x="777.023" y="307" transform="translate(-182,-198) scale(1,1)">String</text></g><g/><g><text fill="#000" stroke="none" font-family="Courier" font-size="20" font-style="normal" font-weight="normal" text-decoration="none" x="647.004" y="329" transform="translate(-182,-198) scale(1,1)">email</text></g><g><text fill="#000" stroke="none" font-family="Courier" font-size="20" font-style="normal" font-weight="normal" text-decoration="none" x="777.023" y="329" transform="translate(-182,-198) scale(1,1)">String</text></g><g/><g><text fill="#000" stroke="none" font-family="Courier" font-size="20" font-style="normal" font-weight="normal" text-decoration="none" x="647.004" y="351" transform="translate(-182,-198) scale(1,1)">password</text></g><g><text fill="#000" stroke="none" font-family="Courier" font-size="20" font-style="normal" font-weight="normal" text-decoration="none" x="777.023" y="351" transform="translate(-182,-198) scale(1,1)">String</text></g><path fill="none" stroke="#000" d="M 744 355 L 744 480 L 689 480" stroke-miterlimit="10" transform="translate(-182,-198) scale(1,1)"/><path fill="none" stroke="#000" d="M 703 480 L 689 473" stroke-miterlimit="10" transform="translate(-182,-198) scale(1,1)"/><path fill="none" stroke="#000" d="M 703 480 L 689 487" stroke-miterlimit="10" transform="translate(-182,-198) scale(1,1)"/><path fill="#FFF" stroke="none" d="M 704 480 C 704 476.1340064 707.1340064 473 711 473 C 714.8659936 473 718 476.1340064 718 480 C 718 483.8659936 714.8659936 487 711 487 C 707.1340064 487 704 483.8659936 704 480 Z" transform="translate(-182,-198) scale(1,1)"/><path fill="none" stroke="#000" d="M 704 480 C 704 476.1340064 707.1340064 473 711 473 C 714.8659936 473 718 476.1340064 718 480 C 718 483.8659936 714.8659936 487 711 487 C 707.1340064 487 704 483.8659936 704 480 Z" stroke-miterlimit="10" transform="translate(-182,-198) scale(1,1)"/><path fill="none" stroke="#000" d="M 751 362 L 737 362" stroke-miterlimit="10" transform="translate(-182,-198) scale(1,1)"/><g/><g/></svg>