<svg version="1.1" xmlns="http://www.w3.org/2000/svg" xmlns:xlink="http://www.w3.org/1999/xlink" width="705.0390625" height="353"><defs/><g><g transform="translate(-182,-198) scale(1,1)"><rect fill="#fff5d8" stroke="none" x="192" y="208" width="221.03125" height="125"/></g><g transform="translate(-182,-198) scale(1,1)"><path fill="none" stroke="#000000" d="M 192 208 L 413.03125 208 L 413.03125 333 L 192 333 L 192 208 Z Z" stroke-miterlimit="10"/></g><g transform="translate(-182,-198) scale(1,1)"><path fill="none" stroke="#000000" d="M 192 238 L 413.03125 238" stroke-miterlimit="10"/></g><g transform="translate(-182,-198) scale(1,1)"><path fill="none" stroke="#000000" d="M 226.00390625 238 L 226.00390625 333" stroke-miterlimit="10"/></g><g transform="translate(-182,-198) scale(1,1)"><path fill="none" stroke="#000000" d="M 320.017578125 238 L 320.017578125 333" stroke-miterlimit="10"/></g><g transform="translate(-182,-198) scale(1,1)"><g><path fill="none" stroke="none"/><text fill="#000000" stroke="none" font-family="Courier" font-size="20px" font-style="normal" font-weight="bold" text-decoration="none" x="278.51171875" y="232.5">Post</text></g></g><g transform="translate(-182,-198) scale(1,1)"><g><path fill="none" stroke="none"/><text fill="#000000" stroke="none" font-family="Courier" font-size="20px" font-style="normal" font-weight="normal" text-decoration="none" x="197" y="263">PK</text></g></g><g transform="translate(-182,-198) scale(1,1)"><g><path fill="none" stroke="none"/><text fill="#000000" stroke="none" font-family="Courier" font-size="20px" font-style="normal" font-weight="normal" text-decoration="none" x="231.00390625" y="263">id</text></g></g><g transform="translate(-182,-198) scale(1,1)"><g><path fill="none" stroke="none"/><text fill="#000000" stroke="none" font-family="Courier" font-size="20px" font-style="normal" font-weight="normal" text-decoration="none" x="325.017578125" y="263">Integer</text></g></g><g transform="translate(-182,-198) scale(1,1)"><g><path fill="none" stroke="none"/><text fill="#000000" stroke="none" font-family="Courier" font-size="20px" font-style="normal" font-weight="normal" text-decoration="none" x="197" y="285"></text></g></g><g transform="translate(-182,-198) scale(1,1)"><g><path fill="none" stroke="none"/><text fill="#000000" stroke="none" font-family="Courier" font-size="20px" font-style="normal" font-weight="normal" text-decoration="none" x="231.00390625" y="285">title</text></g></g><g transform="translate(-182,-198) scale(1,1)"><g><path fill="none" stroke="none"/><text fill="#000000" stroke="none" font-family="Courier" font-size="20px" font-style="normal" font-weight="normal" text-decoration="none" x="325.017578125" y="285">String</text></g></g><g transform="translate(-182,-198) scale(1,1)"><g><path fill="none" stroke="none"/><text fill="#000000" stroke="none" font-family="Courier" font-size="20px" font-style="normal" font-weight="normal" text-decoration="none" x="197" y="307"></text></g></g><g transform="translate(-182,-198) scale(1,1)"><g><path fill="none" stroke="none"/><text fill="#000000" stroke="none" font-family="Courier" font-size="20px" font-style="normal" font-weight="normal" text-decoration="none" x="231.00390625" y="307">text</text></g></g><g transform="translate(-182,-198) scale(1,1)"><g><path fill="none" stroke="none"/><text fill="#000000" stroke="none" font-family="Courier" font-size="20px" font-style="normal" font-weight="normal" text-decoration="none" x="325.017578125" y="307">Text</text></g></g><g transform="translate(-182,-198) scale(1,1)"><g><path fill="none" stroke="none"/><text fill="#000000" stroke="none" font-family="Courier" font-size="20px" font-style="normal" font-weight="normal" text-decoration="none" x="197" y="329"></text></g></g><g transform="translate(-182,-198) scale(1,1)"><g><path fill="none" stroke="none"/><text fill="#000000" stroke="none" font-family="Courier" font-size="20px" font-style="normal" font-weight="normal" text-decoration="none" x="231.00390625" y="329">user_id</text></g></g><g transform="translate(-182,-198) scale(1,1)"><g><path fill="none" stroke="none"/><text fill="#000000" stroke="none" font-family="Courier" font-size="20px" font-style="normal" font-weight="normal" text-decoration="none" x="325.017578125" y="329">Integer</text></g></g><g transform="translate(-182,-198) scale(1,1)"><rect fill="#fff5d8" stroke="none" x="384" y="416" width="305.044921875" height="125"/></g><g transform="translate(-182,-198) scale(1,1)"><path fill="none" stroke="#000000" d="M 384 416 L 689.044921875 416 L 689.044921875 541 L 384 541 L 384 416 Z Z" stroke-miterlimit="10"/></g><g transform="translate(-182,-198) scale(1,1)"><path fill="none" stroke="#000000" d="M 384 446 L 689.044921875 446" stroke-miterlimit="10"/></g><g transform="translate(-182,-198) scale(1,1)"><path fill="none" stroke="#000000" d="M 418.00390625 446 L 418.00390625 541" stroke-miterlimit="10"/></g><g transform="translate(-182,-198) scale(1,1)"><path fill="none" stroke="#000000" d="M 596.03125 446 L 596.03125 541" stroke-miterlimit="10"/></g><g transform="translate(-182,-198) scale(1,1)"><g><path fill="none" stroke="none"/><text fill="#000000" stroke="none" font-family="Courier" font-size="20px" font-style="normal" font-weight="bold" text-decoration="none" x="494.515625" y="440.5">Picture</text></g></g><g transform="translate(-182,-198) scale(1,1)"><g><path fill="none" stroke="none"/><text fill="#000000" stroke="none" font-family="Courier" font-size="20px" font-style="normal" font-weight="normal" text-decoration="none" x="389" y="471">PK</text></g></g><g transform="translate(-182,-198) scale(1,1)"><g><path fill="none" stroke="none"/><text fill="#000000" stroke="none" font-family="Courier" font-size="20px" font-style="normal" font-weight="normal" text-decoration="none" x="423.00390625" y="471">id</text></g></g><g transform="translate(-182,-198) scale(1,1)"><g><path fill="none" stroke="none"/><text fill="#000000" stroke="none" font-family="Courier" font-size="20px" font-style="normal" font-weight="normal" text-decoration="none" x="601.03125" y="471">Integer</text></g></g><g transform="translate(-182,-198) scale(1,1)"><g><path fill="none" stroke="none"/><text fill="#000000" stroke="none" font-family="Courier" font-size="20px" font-style="normal" font-weight="normal" text-decoration="none" x="389" y="493"></text></g></g><g transform="translate(-182,-198) scale(1,1)"><g><path fill="none" stroke="none"/><text fill="#000000" stroke="none" font-family="Courier" font-size="20px" font-style="normal" font-weight="normal" text-decoration="none" x="423.00390625" y="493">name</text></g></g><g transform="translate(-182,-198) scale(1,1)"><g><path fill="none" stroke="none"/><text fill="#000000" stroke="none" font-family="Courier" font-size="20px" font-style="normal" font-weight="normal" text-decoration="none" x="601.03125" y="493">String</text></g></g><g transform="translate(-182,-198) scale(1,1)"><g><path fill="none" stroke="none"/><text fill="#000000" stroke="none" font-family="Courier" font-size="20px" font-style="normal" font-weight="normal" text-decoration="none" x="389" y="515"></text></g></g><g transform="translate(-182,-198) scale(1,1)"><g><path fill="none" stroke="none"/><text fill="#000000" stroke="none" font-family="Courier" font-size="20px" font-style="normal" font-weight="normal" text-decoration="none" x="423.00390625" y="515">imageable_id</text></g></g><g transform="translate(-182,-198) scale(1,1)"><g><path fill="none" stroke="none"/><text fill="#000000" stroke="none" font-family="Courier" font-size="20px" font-style="normal" font-weight="normal" text-decoration="none" x="601.03125" y="515">Integer</text></g></g><g transform="translate(-182,-198) scale(1,1)"><g><path fill="none" stroke="none"/><text fill="#000000" stroke="none" font-family="Courier" font-size="20px" font-style="normal" font-weight="normal" text-decoration="none" x="389" y="537"></text></g></g><g transform="translate(-182,-198) scale(1,1)"><g><path fill="none" stroke="none"/><text fill="#000000" stroke="none" font-family="Courier" font-size="20px" font-style="normal" font-weight="normal" text-decoration="none" x="423.00390625" y="537">imageable_type</text></g></g><g transform="translate(-182,-198) scale(1,1)"><g><path fill="none" stroke="none"/><text fill="#000000" stroke="none" font-family="Courier" font-size="20px" font-style="normal" font-weight="normal" text-decoration="none" x="601.03125" y="537">String</text></g></g><g transform="translate(-182,-198) scale(1,1)"><path fill="none" stroke="#000000" d="M 304 333 L 304 480 L 384 480" stroke-miterlimit="10"/></g><g transform="translate(-182,-198) scale(1,1)"><path fill="none" stroke="#000000" d="M 370 480 L 384 487" stroke-miterlimit="10"/></g><g transform="translate(-182,-198) scale(1,1)"><path fill="none" stroke="#000000" d="M 370 480 L 384 473" stroke-miterlimit="10"/></g><g transform="translate(-182,-198) scale(1,1)"><path fill="#FFFFFF" stroke="none" d="M 355 480 C 355 476.1340064 358.1340064 473 362 473 C 365.8659936 473 369 476.1340064 369 480 C 369 483.8659936 365.8659936 487 362 487 C 358.1340064 487 355 483.8659936 355 480 Z"/></g><g transform="translate(-182,-198) scale(1,1)"><path fill="none" stroke="#000000" d="M 355 480 C 355 476.1340064 358.1340064 473 362 473 C 365.8659936 473 369 476.1340064 369 480 C 369 483.8659936 365.8659936 487 362 487 C 358.1340064 487 355 483.8659936 355 480 Z" stroke-miterlimit="10"/></g><g transform="translate(-182,-198) scale(1,1)"><path fill="none" stroke="#000000" d="M 311 340 L 297 340" stroke-miterlimit="10"/></g><g transform="translate(-182,-198) scale(1,1)"><g><path fill="none" stroke="none"/><text fill="#000000" stroke="none" font-family="Courier" font-size="16px" font-style="normal" font-weight="normal" text-decoration="none" x="318.5" y="365.5"></text></g></g><g transform="translate(-182,-198) scale(1,1)"><g><path fill="none" stroke="none"/><text fill="#000000" stroke="none" font-family="Courier" font-size="16px" font-style="normal" font-weight="normal" text-decoration="none" x="357.5" y="472.5"></text></g></g><g transform="translate(-182,-198) scale(1,1)"><rect fill="#fff5d8" stroke="none" x="608" y="208" width="269.0390625" height="147"/></g><g transform="translate(-182,-198) scale(1,1)"><path fill="none" stroke="#000000" d="M 608 208 L 877.0390625 208 L 877.0390625 355 L 608 355 L 608 208 Z Z" stroke-miterlimit="10"/></g><g transform="translate(-182,-198) scale(1,1)"><path fill="none" stroke="#000000" d="M 608 238 L 877.0390625 238" stroke-miterlimit="10"/></g><g transform="translate(-182,-198) scale(1,1)"><path fill="none" stroke="#000000" d="M 642.00390625 238 L 642.00390625 355" stroke-miterlimit="10"/></g><g transform="translate(-182,-198) scale(1,1)"><path fill="none" stroke="#000000" d="M 772.0234375 238 L 772.0234375 355" stroke-miterlimit="10"/></g><g transform="translate(-182,-198) scale(1,1)"><g><path fill="none" stroke="none"/><text fill="#000000" stroke="none" font-family="Courier" font-size="20px" font-style="normal" font-weight="bold" text-decoration="none" x="718.515625" y="232.5">User</text></g></g><g transform="translate(-182,-198) scale(1,1)"><g><path fill="none" stroke="none"/><text fill="#000000" stroke="none" font-family="Courier" font-size="20px" font-style="normal" font-weight="normal" text-decoration="none" x="613" y="263">PK</text></g></g><g transform="translate(-182,-198) scale(1,1)"><g><path fill="none" stroke="none"/><text fill="#000000" stroke="none" font-family="Courier" font-size="20px" font-style="normal" font-weight="normal" text-decoration="none" x="647.00390625" y="263">id</text></g></g><g transform="translate(-182,-198) scale(1,1)"><g><path fill="none" stroke="none"/><text fill="#000000" stroke="none" font-family="Courier" font-size="20px" font-style="normal" font-weight="normal" text-decoration="none" x="777.0234375" y="263">Integer</text></g></g><g transform="translate(-182,-198) scale(1,1)"><g><path fill="none" stroke="none"/><text fill="#000000" stroke="none" font-family="Courier" font-size="20px" font-style="normal" font-weight="normal" text-decoration="none" x="613" y="285"></text></g></g><g transform="translate(-182,-198) scale(1,1)"><g><path fill="none" stroke="none"/><text fill="#000000" stroke="none" font-family="Courier" font-size="20px" font-style="normal" font-weight="normal" text-decoration="none" x="647.00390625" y="285">first_name</text></g></g><g transform="translate(-182,-198) scale(1,1)"><g><path fill="none" stroke="none"/><text fill="#000000" stroke="none" font-family="Courier" font-size="20px" font-style="normal" font-weight="normal" text-decoration="none" x="777.0234375" y="285">String</text></g></g><g transform="translate(-182,-198) scale(1,1)"><g><path fill="none" stroke="none"/><text fill="#000000" stroke="none" font-family="Courier" font-size="20px" font-style="normal" font-weight="normal" text-decoration="none" x="613" y="307"></text></g></g><g transform="translate(-182,-198) scale(1,1)"><g><path fill="none" stroke="none"/><text fill="#000000" stroke="none" font-family="Courier" font-size="20px" font-style="normal" font-weight="normal" text-decoration="none" x="647.00390625" y="307">last_name</text></g></g><g transform="translate(-182,-198) scale(1,1)"><g><path fill="none" stroke="none"/><text fill="#000000" stroke="none" font-family="Courier" font-size="20px" font-style="normal" font-weight="normal" text-decoration="none" x="777.0234375" y="307">String</text></g></g><g transform="translate(-182,-198) scale(1,1)"><g><path fill="none" stroke="none"/><text fill="#000000" stroke="none" font-family="Courier" font-size="20px" font-style="normal" font-weight="normal" text-decoration="none" x="613" y="329"></text></g></g><g transform="translate(-182,-198) scale(1,1)"><g><path fill="none" stroke="none"/><text fill="#000000" stroke="none" font-family="Courier" font-size="20px" font-style="normal" font-weight="normal" text-decoration="none" x="647.00390625" y="329">email</text></g></g><g transform="translate(-182,-198) scale(1,1)"><g><path fill="none" stroke="none"/><text fill="#000000" stroke="none" font-family="Courier" font-size="20px" font-style="normal" font-weight="normal" text-decoration="none" x="777.0234375" y="329">String</text></g></g><g transform="translate(-182,-198) scale(1,1)"><g><path fill="none" stroke="none"/><text fill="#000000" stroke="none" font-family="Courier" font-size="20px" font-style="normal" font-weight="normal" text-decoration="none" x="613" y="351"></text></g></g><g transform="translate(-182,-198) scale(1,1)"><g><path fill="none" stroke="none"/><text fill="#000000" stroke="none" font-family="Courier" font-size="20px" font-style="normal" font-weight="normal" text-decoration="none" x="647.00390625" y="351">password</text></g></g><g transform="translate(-182,-198) scale(1,1)"><g><path fill="none" stroke="none"/><text fill="#000000" stroke="none" font-family="Courier" font-size="20px" font-style="normal" font-weight="normal" text-decoration="none" x="777.0234375" y="351">String</text></g></g><g transform="translate(-182,-198) scale(1,1)"><path fill="none" stroke="#000000" d="M 744 355 L 744 480 L 689 480" stroke-miterlimit="10"/></g><g transform="translate(-182,-198) scale(1,1)"><path fill="none" stroke="#000000" d="M 703 480 L 689 473" stroke-miterlimit="10"/></g><g transform="translate(-182,-198) scale(1,1)"><path fill="none" stroke="#000000" d="M 703 480 L 689 487" stroke-miterlimit="10"/></g><g transform="translate(-182,-198) scale(1,1)"><path fill="#FFFFFF" stroke="none" d="M 704 480 C 704 476.1340064 707.1340064 473 711 473 C 714.8659936 473 718 476.1340064 718 480 C 718 483.8659936 714.8659936 487 711 487 C 707.1340064 487 704 483.8659936 704 480 Z"/></g><g transform="translate(-182,-198) scale(1,1)"><path fill="none" stroke="#000000" d="M 704 480 C 704 476.1340064 707.1340064 473 711 473 C 714.8659936 473 718 476.1340064 718 480 C 718 483.8659936 714.8659936 487 711 487 C 707.1340064 487 704 483.8659936 704 480 Z" stroke-miterlimit="10"/></g><g transform="translate(-182,-198) scale(1,1)"><path fill="none" stroke="#000000" d="M 751 362 L 737 362" stroke-miterlimit="10"/></g><g transform="translate(-182,-198) scale(1,1)"><g><path fill="none" stroke="none"/><text fill="#000000" stroke="none" font-family="Courier" font-size="16px" font-style="normal" font-weight="normal" text-decoration="none" x="758.5" y="387.5"></text></g></g><g transform="translate(-182,-198) scale(1,1)"><g><path fill="none" stroke="none"/><text fill="#000000" stroke="none" font-family="Courier" font-size="16px" font-style="normal" font-weight="normal" text-decoration="none" x="713.5" y="501.5"></text></g></g></g></svg>