<svg xmlns="http://www.w3.org/2000/svg" width="162.272" height="35" viewBox="0 0 153 33"><defs><style>.cls-1,.cls-2,.cls-3{fill-rule:evenodd}.cls-2{fill:#d90000}.cls-3{fill:#a60000}</style></defs><path class="cls-1" d="M67.919,7.071c0,0.192.01,0.384,0.01,0.576q0,2.037,0,4.073v0.37a1.64,1.64,0,0,0,.2-0.12,3.37,3.37,0,0,1,1.561-.694,4.712,4.712,0,0,1,2.477.193,4.178,4.178,0,0,1,1.879,1.4,5.42,5.42,0,0,1,1.036,2.412,7.745,7.745,0,0,1,.118,1.949,6.022,6.022,0,0,1-.951,3.042,4.5,4.5,0,0,1-3.692,1.988,4.021,4.021,0,0,1-2.445-.817,1.39,1.39,0,0,0-.184-0.1v0.625a26.989,26.989,0,0,1-2.971.019V21.732q0-7.178,0-14.355c0-.1.007-0.2,0.011-0.3h2.945Zm0.016,7.095v5.1a2.137,2.137,0,0,0,.625.5,2.683,2.683,0,0,0,1.446.3,1.916,1.916,0,0,0,1.31-.569,2.724,2.724,0,0,0,.677-1.219,6.366,6.366,0,0,0,.194-1.43,5.67,5.67,0,0,0-.131-1.406,3.028,3.028,0,0,0-.52-1.225,1.91,1.91,0,0,0-1.106-.755,2.608,2.608,0,0,0-1.38.024A2.124,2.124,0,0,0,67.935,14.166Zm-15.59,7.84H48.926l-3.4-5.359H43.857a0.283,0.283,0,0,0-.023.023,0.063,0.063,0,0,0-.016.027,0.864,0.864,0,0,0-.007.1q0,2.579,0,5.153c-0.012.014-.019,0.024-0.027,0.031a0.052,0.052,0,0,1-.026.017l-2.942.011A1.138,1.138,0,0,1,40.677,22V7.715a1.88,1.88,0,0,1,.217-0.024c1.673,0,3.346-.016,5.017.008a7.718,7.718,0,0,1,2.381.381,4.645,4.645,0,0,1,2.04,1.281,3.491,3.491,0,0,1,.855,1.723,5.409,5.409,0,0,1,.12.966,4.083,4.083,0,0,1-1.978,3.634c-0.168.107-.351,0.189-0.528,0.281-0.1.051-.2,0.1-0.328,0.163Zm-8.522-7.818c0.061,0,.114.013,0.168,0.013,0.579,0,1.158,0,1.737,0a3.2,3.2,0,0,0,1.289-.272A1.792,1.792,0,0,0,48,12.851a2.344,2.344,0,0,0,.085-1.134,1.587,1.587,0,0,0-.882-1.267,2.947,2.947,0,0,0-1.241-.316c-0.657-.022-1.314-0.01-1.972-0.012-0.053,0-.107.006-0.172,0.01v4.055ZM75.461,11.43H78.6l2.475,7.023,2.457-7.025h3.133c-0.575,1.637-1.187,3.238-1.769,4.85s-1.182,3.209-1.773,4.814-1.187,3.229-1.78,4.845h-3.14l1.44-3.947ZM59.888,19.265v-7.8a25.817,25.817,0,0,1,2.967-.032c0.05,0.264.071,9.811,0.023,10.541-0.25.049-2.452,0.063-2.984,0.017V21.37c-0.375.2-.724,0.406-1.091,0.573a3.856,3.856,0,0,1-1.186.289,5.528,5.528,0,0,1-1.091-.02,3.759,3.759,0,0,1-1.963-.744,4.018,4.018,0,0,1-1.43-2.365,6.73,6.73,0,0,1-.2-1.634q0-2.954,0-5.908c0-.034,0-0.067.007-0.1a26.828,26.828,0,0,1,2.991-.028c0,0.117.01,0.238,0.01,0.358,0,1.9,0,3.8,0,5.7a3.691,3.691,0,0,0,.33,1.6,1.607,1.607,0,0,0,1.457.951,2.66,2.66,0,0,0,1.544-.3,2.949,2.949,0,0,0,.337-0.217C59.7,19.453,59.788,19.36,59.888,19.265Zm37.191-2.881H94.155V13.969c0.2-.057,5.594-0.077,6.008-0.023,0.059,0.2.083,6.956,0.023,7.473-0.181.07-.374,0.151-0.571,0.219a11.723,11.723,0,0,1-3.564.607,11.3,11.3,0,0,1-2.21-.136,7.358,7.358,0,0,1-4.254-2.15,6.481,6.481,0,0,1-1.409-2.352,8.2,8.2,0,0,1-.368-3.632A6.7,6.7,0,0,1,92.4,8.169a10.057,10.057,0,0,1,4.125-.431,10.784,10.784,0,0,1,3.215.748c0.182,0.073.2,0.094,0.185,0.3-0.047.573-.1,1.145-0.151,1.718l-0.064.719c-0.1-.045-0.181-0.074-0.254-0.114a7.832,7.832,0,0,0-2.561-.836,6.941,6.941,0,0,0-2.266.008,4.239,4.239,0,0,0-3.168,2.187,4.926,4.926,0,0,0-.565,2.212,5.608,5.608,0,0,0,.458,2.62,3.914,3.914,0,0,0,2.175,2.061,5.8,5.8,0,0,0,3.312.273c0.235-.045.263-0.081,0.264-0.3q0-1.375,0-2.75A1.564,1.564,0,0,0,97.079,16.385Zm35.648,6.564c0.088,0.048.147,0.076,0.2,0.11a5.59,5.59,0,0,0,3.175.877,3.592,3.592,0,0,0,1.075-.174,1.945,1.945,0,0,0,1.384-1.729c0.037-.277.032-0.559,0.048-0.883a1.168,1.168,0,0,0-.186.091,3.448,3.448,0,0,1-1.963.755,4.254,4.254,0,0,1-3.509-1.292,4.8,4.8,0,0,1-1.209-2.16,6.783,6.783,0,0,1,.088-4,4.445,4.445,0,0,1,2.366-2.768,4.082,4.082,0,0,1,3.925.135c0.148,0.085.279,0.2,0.458,0.327,0.013-.22.024-0.407,0.036-0.616a2.163,2.163,0,0,1,.225-0.025q1.21,0,2.422,0c0.271,0,.285.012,0.285,0.272q0,4.753-.011,9.506a6.2,6.2,0,0,1-.378,2.174,3.355,3.355,0,0,1-1.7,1.892,6.379,6.379,0,0,1-2.567.58,10.406,10.406,0,0,1-2.328-.109,7.391,7.391,0,0,1-1.815-.55,0.258,0.258,0,0,1-.172-0.294c0.016-.194.026-0.389,0.038-0.584,0.023-.369.046-0.739,0.071-1.108C132.693,23.242,132.71,23.109,132.727,22.949Zm5.874-6.275c0-.721,0-1.442,0-2.163a0.449,0.449,0,0,0-.17-0.378,2.5,2.5,0,0,0-1.322-.6,2.053,2.053,0,0,0-1.418.247,2.3,2.3,0,0,0-.852,1,4.047,4.047,0,0,0-.336,1.469,4.8,4.8,0,0,0,.347,2.343,1.927,1.927,0,0,0,1.119,1.116,2.454,2.454,0,0,0,2.413-.433,0.531,0.531,0,0,0,.22-0.473C138.594,18.1,138.6,17.386,138.6,16.674Zm-30.227-1.337a2.284,2.284,0,0,0-.121-1.163,1.059,1.059,0,0,0-.677-0.55,3.792,3.792,0,0,0-1.2-.128,7.146,7.146,0,0,0-3.246.791c-0.067.034-.138,0.058-0.209,0.088a0.308,0.308,0,0,1-.05-0.087c-0.076-.579-0.155-1.159-0.223-1.739-0.032-.276-0.024-0.278.226-0.395a8.523,8.523,0,0,1,2.747-.729,11.426,11.426,0,0,1,1.553-.064,6.125,6.125,0,0,1,2.305.442,2.855,2.855,0,0,1,1.726,2.186,7.42,7.42,0,0,1,.133,1.363c0.013,2.127.006,4.253,0.006,6.38,0,0.076-.009.153-0.013,0.224a20.869,20.869,0,0,1-2.929.022c-0.008-.19-0.017-0.388-0.028-0.626-0.084.055-.13,0.083-0.174,0.115a3.932,3.932,0,0,1-2.142.77,5.144,5.144,0,0,1-2.263-.3,3.135,3.135,0,0,1-1.835-1.791,3.283,3.283,0,0,1-.215-1.4,3.232,3.232,0,0,1,2.3-3.012,6.284,6.284,0,0,1,2.061-.379c0.653-.02,1.307-0.007,1.961-0.009h0.31Zm-0.01,2.046c-0.24,0-.459-0.005-0.678,0-0.566.015-1.134,0.005-1.7,0.063a1.365,1.365,0,0,0-.2,2.69,2.981,2.981,0,0,0,1.256-.041,2.465,2.465,0,0,0,1.189-.615,0.486,0.486,0,0,0,.162-0.384c-0.01-.477,0-0.955,0-1.432C108.388,17.579,108.374,17.495,108.364,17.383Zm21.624,4.611h-2.924c-0.01-.2-0.02-0.4-0.031-0.628a1.761,1.761,0,0,0-.161.09,3.929,3.929,0,0,1-2.167.781,5.127,5.127,0,0,1-2.262-.31,3.133,3.133,0,0,1-1.827-1.8,3.27,3.27,0,0,1-.211-1.345,3.224,3.224,0,0,1,2.279-3.054,6.23,6.23,0,0,1,2.06-.384c0.663-.021,1.327-0.008,1.99-0.009h0.293a2.34,2.34,0,0,0-.086-1.1,1.054,1.054,0,0,0-.692-0.614,3.816,3.816,0,0,0-1.227-.132,7.171,7.171,0,0,0-3.246.8c-0.058.029-.12,0.053-0.193,0.085a0.413,0.413,0,0,1-.056-0.106c-0.074-.56-0.149-1.12-0.218-1.681-0.039-.32-0.034-0.325.265-0.458a8.675,8.675,0,0,1,2.694-.7,11.9,11.9,0,0,1,1.582-.065,5.894,5.894,0,0,1,2.331.461,2.846,2.846,0,0,1,1.61,1.873A5.792,5.792,0,0,1,130,15.312q0.006,3.234,0,6.467C130,21.837,130,21.895,129.988,21.994Zm-2.941-4.611c-0.312,0-.578-0.006-0.844,0-0.508.013-1.019,0.008-1.524,0.057a1.368,1.368,0,0,0-.237,2.695,3.017,3.017,0,0,0,1.283-.047,2.5,2.5,0,0,0,1.122-.566,0.532,0.532,0,0,0,.205-0.454c-0.018-.311-0.005-0.623-0.005-0.935V17.383Zm25.886,0.446h-6.976a2.273,2.273,0,0,0,.536,1.442,2.311,2.311,0,0,0,1.361.755,5.515,5.515,0,0,0,2.954-.2c0.306-.108.593-0.269,0.889-0.407,0.058-.027.113-0.058,0.206-0.106,0.028,0.149.06,0.268,0.071,0.39,0.05,0.534.088,1.068,0.144,1.6a0.294,0.294,0,0,1-.2.338,5.356,5.356,0,0,1-1.568.468,12.368,12.368,0,0,1-1.518.141,6.42,6.42,0,0,1-3.544-.83,4.45,4.45,0,0,1-1.851-2.243,6.9,6.9,0,0,1-.349-3.476,5.152,5.152,0,0,1,1.174-2.748,4.442,4.442,0,0,1,2.412-1.445,5.7,5.7,0,0,1,2.85.041,4.334,4.334,0,0,1,2.841,2.341,7.105,7.105,0,0,1,.64,3.551,1.4,1.4,0,0,1-.033.2C152.966,17.69,152.954,17.737,152.933,17.829Zm-2.819-2.059c-0.062-.286-0.107-0.543-0.174-0.794a1.976,1.976,0,0,0-2.62-1.4,2.145,2.145,0,0,0-1.344,2.2h4.138Zm-36.9-4.159h2.9c0.009,0.276.016,0.541,0.025,0.849,0.071-.062.107-0.09,0.139-0.123a3.207,3.207,0,0,1,2.87-.944,6.1,6.1,0,0,1,.734.145c0.186,0.047.208,0.092,0.187,0.295-0.067.639-.14,1.278-0.212,1.917a1.26,1.26,0,0,1-.057.188c-0.085-.027-0.155-0.047-0.222-0.073a2.929,2.929,0,0,0-2.112-.055,2.214,2.214,0,0,0-1.306,1.359,0.872,0.872,0,0,0-.031.316q0,3.073,0,6.145v0.363h-2.9C113.165,21.781,113.15,11.965,113.213,11.612Z"/><path class="cls-2" d="M16.314,1.913a14.249,14.249,0,0,1,10.2,4.273,14.7,14.7,0,0,1,0,20.627,14.311,14.311,0,0,1-20.4,0,14.7,14.7,0,0,1,0-20.627,14.249,14.249,0,0,1,10.2-4.273m0-1.913A16.407,16.407,0,0,0,0,16.5,16.407,16.407,0,0,0,16.314,33,16.407,16.407,0,0,0,32.627,16.5,16.407,16.407,0,0,0,16.314,0h0Z"/><path class="cls-2" d="M9.688,10.476L5.7,14.519,16.314,25.274,26.931,14.519,22.94,10.476H9.688Z"/><path class="cls-3" d="M16.314,25.274L26.931,14.536H19.466Z"/></svg>