<?xml version="1.0" encoding="utf-8"?>
<!-- Generator: Adobe Illustrator 21.1.0, SVG Export Plug-In . SVG Version: 6.00 Build 0)  -->
<svg version="1.1" id="Layer_1" xmlns="http://www.w3.org/2000/svg" xmlns:xlink="http://www.w3.org/1999/xlink" x="0px" y="0px"
	 viewBox="0 0 303 93" style="enable-background:new 0 0 303 93;" xml:space="preserve">
<style type="text/css">
	.st0{fill:url(#SVGID_1_);}
	.st1{fill:none;}
</style>
<path d="M79.9,50.2c-0.4,0-0.9,0-1.3,0h-6.8v6.2c0,1.3-1.1,2.4-2.4,2.4l0,0c-1.3,0-2.4-1.1-2.4-2.4V32.7c0-1.3,1.1-2.4,2.4-2.4h9.2
	c7.3,0,11.5,3.5,11.5,9.7c0,4.6-2.1,7.8-5.9,9.3 M78.6,45.9c4.4,0,6.9-1.9,6.9-5.7s-2.5-5.5-6.9-5.5h-6.8V46L78.6,45.9L78.6,45.9z"
	/>
<g>
	<path d="M111.7,36.9c-1.3,0-2.3,1-2.3,2.3v8.3c0,3.8-2.2,6.7-6,6.8c-3.1,0-5.1-2-5.1-5.3v-9.8c0-1.3-1-2.3-2.3-2.3l0,0
		c-1.3,0-2.3,1-2.3,2.3v11.2c0,5.2,3,8.4,8,8.4c3.5,0,6.3-1.4,7.7-4.4v2.1c0,1.3,1,2.3,2.3,2.3l0,0c1.3,0,2.3-1,2.3-2.3V39.3
		C114,38,113,36.9,111.7,36.9L111.7,36.9z"/>
</g>
<g>
	<path d="M130.6,36.8c-3.4,0-6,1.4-7.6,3.9v-9.8c0-1.2-0.9-2.3-2.1-2.5c-1.4-0.1-2.6,1-2.6,2.3v25.8c0,1.3,1,2.3,2.3,2.3l0,0
		c1.3,0,2.3-1,2.3-2.3v-1.6c1.6,2.5,4.2,3.9,7.7,3.9c6.2,0,10.3-4.4,10.3-10.9C141,41.3,136.8,36.8,130.6,36.8z M129.6,54.8
		c-3.9,0-6.6-2.9-6.6-7.1c0-4.1,2.7-7,6.6-7c3.9,0,6.6,3,6.6,7C136.2,51.9,133.5,54.8,129.6,54.8z"/>
</g>
<path d="M146.5,36.9L146.5,36.9c1.2,0,2.2,1,2.2,2.2v8.1c0,3.9,2.6,6.7,6.3,6.7s6.2-2.8,6.2-6.7v-6.8v-1.3c0-1.2,1-2.2,2.2-2.2h0.2
	c1.2,0,2.2,1,2.2,2.2v17.4c0,6.2-4.4,10.2-11.3,10.2c-2.6,0-5-0.6-7.2-1.8c-1-0.5-1.4-1.8-0.8-2.7l0,0c0.5-0.9,1.7-1.2,2.6-0.7
	c1.6,0.9,3.3,1.4,5.3,1.4c4.1,0,6.8-2.4,6.8-6.2V54c-1.5,2.4-3.9,3.7-7.2,3.7c-5.9,0-9.8-4.2-9.8-10.5v-8
	C144.3,37.9,145.3,36.9,146.5,36.9z"/>
<path d="M92.5,66.2L92.5,66.2c-1.1,0.7-2.6,0.4-3.3-0.8L79,49.3l4.1-2.6l10.2,16.2C94,64,93.6,65.5,92.5,66.2z"/>
<g>
	<path d="M231.5,37.4c-2.1,0.6-3.7,2-4.7,4.1v-2c0-1.3-1-2.3-2.3-2.3s-2.3,1-2.3,2.3v17c0,1.3,1,2.3,2.3,2.3s2.3-1,2.3-2.3v-9.1
		c0.3-3.1,2.3-5.4,5.6-5.9c1-0.1,1.8-1.1,1.8-2.1C234.2,37.9,233,36.9,231.5,37.4z"/>
	<path d="M276.3,37c-1.3,0-2.3,1-2.3,2.3v1.3c-1.5-2.3-4-3.7-7.3-3.6c-5.7,0-9.5,4.2-9.5,10.2c0,6.2,3.9,10.4,9.7,10.4
		c3.2,0,5.7-1.3,7.1-3.6v2.7c0,3.7-2.7,6.1-6.7,6.1c-2,0-3.6-0.5-5.2-1.3c-0.9-0.5-2-0.2-2.5,0.6l-0.1,0.1c-0.5,0.9-0.2,2.1,0.7,2.6
		c2.2,1.2,4.6,1.8,7.3,1.8c6.7,0,11.1-3.9,11.1-10.1V39.3C278.6,38,277.6,37,276.3,37z M267.9,54c-3.7,0-6.2-2.7-6.3-6.6
		c0-3.8,2.6-6.6,6.3-6.6c3.6,0,6.2,2.7,6.2,6.6C274,51.2,271.5,54,267.9,54z"/>
	<path d="M292.9,37c-6.4,0-10.9,4.4-10.9,10.9s4.4,10.9,11,10.9c2.9,0,5.4-0.8,7.4-2.3c0.9-0.7,1-1.9,0.2-2.7
		c-0.6-0.6-1.7-0.7-2.4-0.2c-1.4,1-3,1.5-4.8,1.5c-3.4,0-5.9-2.1-6.7-5.4h14.4c1.1,0,1.9-0.9,1.8-1.9C302.7,41.2,299.6,37,292.9,37z
		 M286.7,46.3c0.5-3.4,2.9-5.6,6.3-5.6c3.5,0,5.8,2.1,6,5.6H286.7z"/>
	<path d="M209.7,37c-3.3,0-5.3,0.6-7.6,1.8c-0.9,0.5-1.3,1.7-0.7,2.6c0.5,0.9,1.6,1.1,2.5,0.7c1.6-0.8,3.2-1.3,4.8-1.3
		c3.4,0,5.1,1.6,5.1,4.3v0.6h-6.5c-5.2,0-8.1,2.5-8.1,6.5c0,3.8,2.9,6.7,7.6,6.7c3,0,5.4-0.9,7-2.7v0.4c0,1.3,1,2.3,2.3,2.3
		s2.3-1,2.3-2.3v-2.1v-4.3v-5.6C218.4,39.8,215.3,37,209.7,37z M213.8,51.1c-0.2,2.3-2.8,4.1-6.1,4.1c-2.6,0-4.2-1.3-4.2-3.2
		c0-2.1,1.4-2.9,4.4-2.9h5.8v2H213.8z"/>
	<path d="M245.7,37c-3.3,0-5.3,0.6-7.6,1.8c-0.9,0.5-1.3,1.7-0.7,2.6c0.5,0.9,1.6,1.1,2.5,0.7c1.6-0.8,3.2-1.3,4.8-1.3
		c3.4,0,5.1,1.6,5.1,4.3v0.6h-6.5c-5.2,0-8.1,2.5-8.1,6.5c0,3.8,2.9,6.7,7.6,6.7c3,0,5.4-0.9,7-2.7v0.4c0,1.3,1,2.3,2.3,2.3
		s2.3-1,2.3-2.3v-12C254.4,39.8,251.3,37,245.7,37z M249.8,51.1c-0.2,2.3-2.8,4.1-6.1,4.1c-2.6,0-4.2-1.3-4.2-3.2
		c0-2.1,1.4-2.9,4.4-2.9h5.8v2H249.8z"/>
	<path d="M193.3,43.5h-5c-1.1,0-2.1,0.9-2.1,2.1c0,1.1,0.9,2.1,2.1,2.1h3v5c-2,1.2-4.4,1.9-6.5,1.9c-5.8,0-10.3-4.4-10.3-10.1
		c0-5.6,4.5-10,10.3-10c2.3,0,4.6,0.7,6.6,2c0.9,0.6,2.2,0.3,2.9-0.5c0.8-1.1,0.6-2.5-0.6-3.2c-2.6-1.6-5.7-2.5-8.9-2.5
		c-8.6,0-15.1,6.2-15.1,14.3s6.5,14.3,14.9,14.3c3.4,0,7.1-1.2,9.9-2.9c0.7-0.4,1.1-1.2,1.1-2.1v-8.2c0,0,0,0,0-0.1c0,0,0,0,0-0.1
		C195.4,44.4,194.5,43.5,193.3,43.5z"/>
</g>
<linearGradient id="SVGID_1_" gradientUnits="userSpaceOnUse" x1="-2.2332" y1="-2.2724" x2="83.9911" y2="143.1692" gradientTransform="matrix(1 0 0 -1 0 93)">
	<stop  offset="0" style="stop-color:#24D6FF"/>
	<stop  offset="3.927205e-03" style="stop-color:#25D5FF"/>
	<stop  offset="0.1905" style="stop-color:#42A0EE"/>
	<stop  offset="0.3736" style="stop-color:#5A75E1"/>
	<stop  offset="0.5492" style="stop-color:#6D53D7"/>
	<stop  offset="0.7156" style="stop-color:#7A3BCF"/>
	<stop  offset="0.8688" style="stop-color:#822CCB"/>
	<stop  offset="0.9964" style="stop-color:#8527C9"/>
</linearGradient>
<path class="st0" d="M27.1,66.6c7.3,0,13.2,5.9,13.2,13.2c0,7.3-5.9,13.2-13.2,13.2s-13.2-5.9-13.2-13.2
	C13.9,72.5,19.8,66.6,27.1,66.6L27.1,66.6z M27.1,11.1c14.5,0,26.2,11.7,26.2,26.2S41.6,63.5,27.1,63.5S0.9,51.8,0.9,37.3
	C0.9,22.8,12.6,11.1,27.1,11.1L27.1,11.1z M27.1,20.9c-9,0-16.4,7.3-16.4,16.4c0,9,7.3,16.4,16.4,16.4c9,0,16.4-7.3,16.4-16.4
	S36.1,20.9,27.1,20.9L27.1,20.9z M46.1,0c-3.6,0-6.5,2.9-6.5,6.5s2.9,6.5,6.5,6.5s6.5-2.9,6.5-6.5C52.7,2.9,49.8,0,46.1,0z"/>
<rect id="_x3C_Slice_x3E_" class="st1" width="303" height="93"/>
</svg>
